<svg height="960" viewBox="0 0 960 960" width="960" xmlns="http://www.w3.org/2000/svg"><path d="m108.390438 25.8787031 788.534072 42.4499706c28.653926 1.5425564 51.097166 25.2265045 51.097166 53.9219213v683.50769c0 28.036079-21.455452 51.408891-49.389141 53.802788l-785.192733 67.290434c-15.1976936 1.302431-30.2373383-3.883355-41.4025114-14.275908l-42.3951944-39.461482c-10.994764-10.233935-17.230154-24.584904-17.2083472-39.605483l1.0900609-748.8300196c.0394339-27.090994 20.145954-49.9596921 47.0089886-53.4669532l37.9638504-4.9565932c3.2794461-.4281673 6.5912921-.5541517 9.8937891-.3763649zm-12.196806 41.0162603-30.4823489 3.9800726c-6.9644905.9092899-12.177292 6.8382116-12.1875156 13.8618027l-1.0900184 748.8300203c0 3.894224 1.6109289 7.614845 4.4614233 10.268088l42.3951944 39.461482c1.2957012 1.206039 2.7926622 2.141613 4.4044712 2.776925-4.6535244-6.25133-7.9098097-13.686931-9.2284686-21.915281-.4193079-2.616456-.629957-5.262104-.629957-7.911944v-777.0792846c0-4.336885.8365996-8.4783717 2.3572196-12.271881zm17.64278 12.271881v777.0792846c0 1.589904.12639 3.177293.377975 4.747166 1.858687 11.598096 10.133409 20.571171 20.621984 23.877879l760.380712-65.164018c7.242068-.62064 12.804593-6.680258 12.804593-13.948871v-683.50769c0-7.439553-5.818618-13.579836-13.247414-13.979758l-771.721958-41.5446511c-5.333996 1.6203561-9.215892 6.5771746-9.215892 12.4406585zm62.620199 45.6585926c8.284268 0 15.00521 6.704084 15.011647 14.988352l.531319 684.257666c.006428 8.284269-6.704084 15.011648-14.988352 15.011648-8.284269 0-15.005211-6.704084-15.011643-14.988353l-.531324-684.257666c-.006428-8.284269 6.704084-15.011647 14.988353-15.011647zm61.779899 2.773534c8.284265-.010151 15.008227 6.697335 15.01839 14.9816l.828469 675.347503c.010151 8.284265-6.697334 15.008227-14.981599 15.018401-8.284265.010151-15.008227-6.697334-15.01839-14.981599l-.828469-675.347504c-.010151-8.284265 6.697334-15.008227 14.981599-15.018401zm61.779885 2.78724c8.28426-.013962 15.011315 6.690422 15.025298 14.974681l1.124827 666.365278c.013962 8.28426-6.690421 15.011315-14.97468 15.02532-8.28426.013962-15.011315-6.690421-15.025299-14.974681l-1.124827-666.365278c-.013961-8.284259 6.690422-15.011314 14.974681-15.02532zm61.779861 2.800945c8.284252-.017865 15.014477 6.683336 15.032378 14.967588l1.420397 657.310991c.017865 8.284252-6.683336 15.014476-14.967588 15.032413-8.284252.017866-15.014477-6.683336-15.032378-14.967588l-1.420397-657.31099c-.017865-8.284252 6.683336-15.014477 14.967588-15.032414zm61.779827 2.814651c8.284243-.021867 15.017718 6.676068 15.039638 14.96031l1.715179 648.184641c.021867 8.284242-6.676068 15.017717-14.96031 15.039691-8.284243.021867-15.017718-6.676068-15.039638-14.96031l-1.715179-648.184641c-.021867-8.284242 6.676068-15.017717 14.96031-15.039691zm61.779783 2.828355c8.284231-.025971 15.021042 6.668609 15.047089 14.952839l2.009174 638.986228c.025972 8.28423-6.668609 15.021041-14.952839 15.047164-8.28423.025972-15.021041-6.668609-15.047088-14.952839l-2.009174-638.986227c-.025972-8.284231 6.668608-15.021042 14.952838-15.047165zm61.779728 2.842061c8.284216-.030185 15.024453 6.660946 15.054741 14.945162l2.302382 629.715752c.030185 8.284216-6.660946 15.024453-14.945162 15.054843-8.284216.030185-15.024452-6.660946-15.05474-14.945162l-2.302382-629.715752c-.030185-8.284216 6.660946-15.024453 14.945161-15.054843zm61.779661 2.855766c8.284199-.034514 15.027957 6.653068 15.062605 14.937267l2.594804 620.373215c.034514 8.284198-6.653068 15.027956-14.937267 15.062738-8.284199.034514-15.027956-6.653068-15.062605-14.937267l-2.594804-620.373214c-.034514-8.284199 6.653069-15.027957 14.937267-15.062739zm61.779581 2.869471c8.284179-.038964 15.031559 6.644963 15.070695 14.929142l2.886439 610.958614c.038965 8.284179-6.644963 15.031559-14.929142 15.070866-8.284178.038965-15.031558-6.644963-15.070694-14.929142l-2.886439-610.958614c-.038965-8.284179 6.644963-15.031559 14.929141-15.070866zm66.205499 2.063081c8.284262.012169 14.990133 6.737742 14.977997 15.022004l-.883025 601.95535c-.012152 8.284262-6.737725 14.990133-15.021987 14.977997-8.284263-.012169-14.990133-6.737742-14.977997-15.022004l.883025-601.95535c.012152-8.284262 6.737725-14.990132 15.021987-14.977997zm63.259134 3.532304c8.284235.02454 14.980095 6.760079 14.955689 15.044314l-1.748679 591.907711c-.024473 8.284235-6.760012 14.980095-15.044247 14.955689-8.284235-.02454-14.980095-6.760079-14.955689-15.044314l1.748679-591.907711c.024473-8.284235 6.760012-14.980095 15.044247-14.955689zm62.539246 1.212984c8.283953.073195 14.940564 6.847526 14.867957 15.131479l-5.115148 583.601025c-.072607 8.283953-6.846937 14.940564-15.13089 14.868545-8.283953-.073195-14.940565-6.847526-14.867957-15.131479l5.115147-583.601025c.072607-8.283953 6.846938-14.940564 15.130891-14.868545z"/></svg>