<?xml version="1.0" encoding="UTF-8"?>
<svg width="638.37" height="576.38" data-name="Layer 1" version="1.1" viewBox="0 0 638.37 576.38" xmlns="http://www.w3.org/2000/svg" xmlns:cc="http://creativecommons.org/ns#" xmlns:dc="http://purl.org/dc/elements/1.1/" xmlns:rdf="http://www.w3.org/1999/02/22-rdf-syntax-ns#">
 <title>1Artboard 24</title>
 <g>
  <path d="m580.88 176.98h-523.38a50.05 50.05 0 0 0-50 50v263.46a50.073 50.073 0 0 0 40.105 49.005c2.0682 16.918 12.273 29.436 25.023 29.436 12.495 0 22.618-12.018 24.955-28.436h443.21c2.3318 16.423 12.455 28.436 24.955 28.436 12.727 0 22.955-12.523 25.023-29.436a50.073 50.073 0 0 0 40.105-49.005v-263.46a50.05 50.05 0 0 0-49.995-50zm-508.25 377.36c-4.05 0-8.4773-5.6-10.186-13.886h20.373c-1.7091 8.2818-6.1364 13.886-10.186 13.886zm493.11 0c-4.05 0-8.4773-5.6-10.186-13.886h20.373c-1.7046 8.2818-6.1182 13.886-10.186 13.886zm50.582-63.891a35.491 35.491 0 0 1-35.377 35.455h-523.52a35.491 35.491 0 0 1-35.377-35.455v-263.47a35.495 35.495 0 0 1 35.455-35.455h523.37a35.495 35.495 0 0 1 35.455 35.455z" stroke="#000" stroke-width="15"/>
  <g stroke-width="40">
   <path d="m199.03 213.92h-126.4a7.1182 7.1182 0 1 0 0 14.236h126.4a7.1182 7.1182 0 1 0 0-14.236z"/>
   <path d="m382.39 213.92h-126.4a7.1182 7.1182 0 1 0 0 14.236h126.4a7.1182 7.1182 0 0 0 0-14.236z"/>
   <path d="m565.75 213.92h-126.39a7.1182 7.1182 0 0 0 0 14.236h126.4a7.1182 7.1182 0 1 0 0-14.236z"/>
   <path d="m199.03 237.66h-126.4a7.1182 7.1182 0 1 0 0 14.236h126.4a7.1182 7.1182 0 1 0 0-14.236z"/>
   <path d="m382.39 237.66h-126.4a7.1182 7.1182 0 1 0 0 14.236h126.4a7.1182 7.1182 0 0 0 0-14.236z"/>
   <path d="m565.75 237.66h-126.39a7.1273 7.1273 0 0 0 0 14.255h126.4a7.1182 7.1182 0 1 0 0-14.236z"/>
   <path d="m199.03 261.4h-126.4a7.1182 7.1182 0 1 0 0 14.236h126.4a7.1182 7.1182 0 1 0 0-14.236z"/>
   <path d="m382.39 261.4h-126.4a7.1182 7.1182 0 1 0 0 14.236h126.4a7.1182 7.1182 0 0 0 0-14.236z"/>
   <path d="m565.75 261.4h-126.39a7.1182 7.1182 0 0 0 0 14.236h126.4a7.1182 7.1182 0 1 0 0-14.236z"/>
  </g>
 </g>
 <g stroke-width=".45454">
  <path d="m146.38 167.26c-3.1273-2.7273-6.0909-5.6091-9.0091-8.5091-1.4682-1.4409-2.8909-2.9182-4.3273-4.3818l-0.53636-0.55c-0.18182-0.18637-0.36364-0.40455-0.54545-0.60455l-1.0955-1.2364c-0.36818-0.40909-0.69545-0.85455-1.0454-1.2864-0.35-0.43181-0.7-0.86363-1.0227-1.3136a46.691 46.691 0 0 1-8.8546-25.432 48.705 48.705 0 0 1 0.16364-6.9773c0.12727-1.1591 0.25-2.3273 0.45455-3.4773 0.10454-0.57727 0.18636-1.1591 0.31363-1.7318l0.38637-1.7182c0.12272-0.57727 0.29091-1.1364 0.45454-1.7045 0.16364-0.56818 0.31364-1.1364 0.49546-1.6955 0.37727-1.1136 0.73636-2.2454 1.2-3.3318a49.891 49.891 0 0 1 3.0818-6.4091l0.9091-1.5273c0.15454-0.25454 0.30454-0.50909 0.45454-0.76363l0.50455-0.73637 1.0136-1.4727 1.0864-1.4227c0.70454-0.96364 1.5227-1.8182 2.2954-2.75 0.4-0.45455 0.82273-0.86818 1.2318-1.3s0.82273-0.86818 1.2636-1.2727c0.86818-0.82273 1.7454-1.6409 2.6773-2.3864 0.45454-0.37728 0.90909-0.77273 1.3909-1.1318l1.4364-1.0727c0.24091-0.17727 0.45455-0.35909 0.72273-0.52727l0.74545-0.49091 1.5-0.97727 1.0818-0.71364c0.34546-0.23636 0.70909-0.45454 1.0364-0.70454a40.518 40.518 0 0 0 12.945-15.05 42.618 42.618 0 0 0 4.4545-19.9l-0.0636-1.3091-0.0273-0.65909-0.0227-0.64091-0.11818-1.3182-0.18637-1.3136c-0.0954-0.88636-0.3-1.7455-0.45454-2.6318-0.0818-0.45454-0.20909-0.86818-0.30455-1.3045-0.0954-0.43636-0.19091-0.88182-0.32727-1.3091-0.25909-0.85909-0.48636-1.7409-0.8-2.5909-0.15-0.42727-0.28182-0.86818-0.45455-1.2909l-0.50454-1.2727-0.25455-0.64091-0.28636-0.62727-0.57273-1.2636c-0.2-0.41818-0.42273-0.82273-0.63182-1.2409s-0.40454-0.81364-0.66818-1.2773c-1.9818-3.5818-3.9454-7.1818-5.8182-10.845-1.8727-3.6636-3.7136-7.35-5.3818-11.164 3.1409 2.7273 6.1273 5.5773 9.0546 8.4636 2.9273 2.8864 5.7909 5.8227 8.6364 8.7818 0.35 0.34546 0.72727 0.80454 1.0909 1.2136s0.74091 0.83636 1.0954 1.2682l1.0318 1.3273 0.51364 0.66818 0.48182 0.69091 0.95454 1.3955c0.31364 0.45455 0.59091 0.96364 0.90909 1.4455 0.60909 0.95909 1.1182 1.9727 1.65 2.9864a47.991 47.991 0 0 1 4.3318 13.073 50.305 50.305 0 0 1-10.395 39.927 51.273 51.273 0 0 1-10.455 9.7909c-0.47727 0.35909-0.99091 0.66364-1.4909 0.99546l-1.4682 0.94545-1.0545 0.68182c-0.35455 0.22273-0.70455 0.45455-1.0409 0.7l-1 0.73636c-0.34091 0.24091-0.65909 0.51364-0.98637 0.76819-0.67272 0.5-1.2818 1.0682-1.9182 1.6091a41.255 41.255 0 0 0-6.5954 7.5545 42.514 42.514 0 0 0-6.9318 19.159 43.595 43.595 0 0 0 0.16363 10.623 45.832 45.832 0 0 0 2.8136 10.609c0.15909 0.45455 0.36364 0.85909 0.54546 1.2955 0.18181 0.43636 0.35909 0.87272 0.57727 1.2954l0.95909 1.9182 0.35909 0.68182c0.95455 1.8182 1.9227 3.6364 2.8454 5.4546 1.8591 3.6818 3.6773 7.3818 5.3364 11.2z"/>
  <path d="m316.98 167.26c-3.1273-2.7273-6.0909-5.6091-9.0091-8.5091-1.4682-1.4409-2.8909-2.9182-4.3273-4.3818l-0.53636-0.55c-0.18182-0.18637-0.36364-0.40455-0.54545-0.60455l-1.0955-1.2364c-0.36818-0.40909-0.69545-0.85455-1.0454-1.2864-0.35-0.43181-0.7-0.86363-1.0227-1.3136a46.691 46.691 0 0 1-8.8546-25.432 48.705 48.705 0 0 1 0.16364-6.9773c0.12727-1.1591 0.25-2.3273 0.45455-3.4773 0.10454-0.57727 0.18636-1.1591 0.31363-1.7318l0.38637-1.7182c0.12272-0.57727 0.29091-1.1364 0.45454-1.7045 0.16364-0.56818 0.31364-1.1364 0.49546-1.6955 0.37727-1.1136 0.73636-2.2454 1.2-3.3318a49.891 49.891 0 0 1 3.0727-6.4l0.90909-1.5273c0.15455-0.25454 0.30455-0.50909 0.45455-0.76363l0.50455-0.73637 1.0136-1.4727 1.0864-1.4227c0.70454-0.96364 1.5227-1.8182 2.2954-2.75 0.4-0.45455 0.82273-0.86818 1.2318-1.3s0.82273-0.86818 1.2636-1.2727c0.86819-0.82273 1.7455-1.6409 2.6773-2.3864 0.45454-0.37727 0.90909-0.77273 1.3909-1.1318l1.4364-1.0727c0.24091-0.17727 0.45455-0.35909 0.72273-0.52727l0.74545-0.49091 1.5-0.97727 1.0818-0.71364c0.34545-0.23636 0.70909-0.45454 1.0364-0.70454a40.518 40.518 0 0 0 12.945-15.05 42.618 42.618 0 0 0 4.4545-19.9l-0.0636-1.3091-0.0273-0.65909-0.0591-0.65455-0.11818-1.3182-0.18636-1.3136c-0.0955-0.88636-0.3-1.7455-0.45455-2.6318-0.0818-0.45455-0.20909-0.86818-0.30454-1.3045-0.0955-0.43636-0.19091-0.88182-0.32728-1.3091-0.25909-0.85909-0.48636-1.7409-0.8-2.5909-0.15-0.42727-0.28181-0.86818-0.45454-1.2909l-0.50455-1.2727-0.25454-0.64091-0.28637-0.62727-0.57272-1.2636c-0.2-0.41818-0.42273-0.82273-0.63182-1.2409-0.20909-0.41818-0.40455-0.81364-0.66818-1.2773-1.9818-3.5818-3.9455-7.1818-5.8182-10.845-1.8727-3.6636-3.7136-7.35-5.3818-11.164 3.1409 2.7273 6.1273 5.5773 9.0545 8.4636 2.9273 2.8864 5.7909 5.8227 8.6364 8.7818 0.35 0.34545 0.72727 0.80454 1.0909 1.2136 0.36363 0.40909 0.7409 0.83636 1.0954 1.2682l1.0318 1.3273 0.51363 0.66818 0.48182 0.69091 0.95455 1.3955c0.31363 0.45454 0.59091 0.96364 0.90909 1.4455 0.60909 0.95909 1.1182 1.9727 1.65 2.9864a47.991 47.991 0 0 1 4.3318 13.073 50.305 50.305 0 0 1-10.355 39.945 51.273 51.273 0 0 1-10.455 9.7909c-0.47728 0.35909-0.99091 0.66364-1.4909 0.99545l-1.4682 0.94546-1.0546 0.68182c-0.35455 0.22272-0.70455 0.45454-1.0409 0.7l-0.99545 0.72272c-0.34091 0.24091-0.65909 0.51364-0.98637 0.76819-0.67272 0.5-1.2818 1.0682-1.9182 1.6091a41.255 41.255 0 0 0-6.5954 7.5545 42.514 42.514 0 0 0-6.9318 19.159 43.595 43.595 0 0 0 0.16363 10.623 45.832 45.832 0 0 0 2.8136 10.609c0.15909 0.45455 0.36364 0.85909 0.54546 1.2955 0.18181 0.43636 0.35909 0.87272 0.57727 1.2954l0.95909 1.9182 0.35909 0.68182c0.95455 1.8182 1.9227 3.6364 2.8454 5.4546 1.8636 3.6818 3.6773 7.3818 5.3364 11.2z"/>
  <path d="m500.78 167.26c-3.1273-2.7273-6.0909-5.6091-9.0091-8.5091-1.4682-1.4409-2.8909-2.9182-4.3273-4.3818l-0.53636-0.55c-0.18182-0.18637-0.36364-0.40455-0.54545-0.60455l-1.0955-1.2364c-0.36818-0.40909-0.69545-0.85455-1.0454-1.2864-0.35-0.43181-0.7-0.86363-1.0227-1.3136a46.691 46.691 0 0 1-8.8409-25.432 48.705 48.705 0 0 1 0.16364-6.9773c0.12727-1.1591 0.25-2.3273 0.45454-3.4773 0.10455-0.57727 0.18637-1.1591 0.31364-1.7318l0.38636-1.7182c0.12273-0.57727 0.29091-1.1364 0.45455-1.7045 0.16363-0.56818 0.31363-1.1364 0.49545-1.6955 0.37728-1.1136 0.73637-2.2454 1.2-3.3318a49.891 49.891 0 0 1 3.0818-6.4091l0.90909-1.5273c0.15455-0.25454 0.30455-0.50909 0.45455-0.76363l0.50454-0.73637 1.0136-1.4727 1.0864-1.4227c0.70455-0.96364 1.5227-1.8182 2.2955-2.75 0.4-0.45455 0.82272-0.86818 1.2318-1.3 0.40909-0.43182 0.82272-0.86818 1.2636-1.2727 0.86818-0.82273 1.7455-1.6409 2.6773-2.3864 0.45455-0.37728 0.9091-0.77273 1.3909-1.1318l1.4364-1.0727c0.24091-0.17727 0.45454-0.35909 0.72272-0.52727l0.74546-0.49091 1.5-0.97727 1.0818-0.71364c0.34545-0.23636 0.70909-0.45454 1.0364-0.70454a40.518 40.518 0 0 0 12.945-15.05 42.618 42.618 0 0 0 4.4545-19.9l-0.0636-1.3091-0.0273-0.65909-0.0273-0.64091-0.11818-1.3182-0.18637-1.3136c-0.0954-0.88636-0.3-1.7455-0.45454-2.6318-0.0818-0.45454-0.20909-0.86818-0.30455-1.3045-0.0954-0.43636-0.19091-0.88182-0.32727-1.3091-0.25909-0.85909-0.48636-1.7409-0.8-2.5909-0.15-0.42727-0.28182-0.86818-0.45455-1.2909l-0.50454-1.2727-0.25455-0.64091-0.28636-0.62727-0.57273-1.2636c-0.2-0.41818-0.42272-0.82273-0.63182-1.2409-0.20909-0.41818-0.40454-0.81364-0.66818-1.2773-1.9818-3.5818-3.9454-7.1818-5.8182-10.845-1.8727-3.6636-3.7136-7.35-5.3818-11.164 3.1409 2.7273 6.1273 5.5773 9.0546 8.4636 2.9273 2.8864 5.7909 5.8227 8.6364 8.7818 0.35 0.34546 0.72727 0.80454 1.0909 1.2136s0.74091 0.83636 1.0955 1.2682l1.0318 1.3273 0.51364 0.66818 0.48182 0.69091 0.95454 1.3955c0.31364 0.45455 0.59091 0.96364 0.90909 1.4455 0.6091 0.95909 1.1182 1.9727 1.65 2.9864a47.991 47.991 0 0 1 4.3318 13.073 50.305 50.305 0 0 1-10.355 39.945 51.273 51.273 0 0 1-10.455 9.7909c-0.47727 0.35909-0.99091 0.66363-1.4909 0.99545l-1.4682 0.94545-1.0545 0.68182c-0.35455 0.22273-0.70455 0.45455-1.0409 0.7l-1.0227 0.72273c-0.34091 0.24091-0.65909 0.51364-0.98636 0.76818-0.67273 0.5-1.2818 1.0682-1.9182 1.6091a41.255 41.255 0 0 0-6.5954 7.5546 42.514 42.514 0 0 0-6.9318 19.182 43.595 43.595 0 0 0 0.16364 10.623 45.832 45.832 0 0 0 2.8136 10.609c0.15909 0.45455 0.36364 0.8591 0.54546 1.2955s0.35909 0.87273 0.57727 1.2954l0.95909 1.9182 0.35909 0.68181c0.95455 1.8182 1.9227 3.6364 2.8455 5.4546 1.8364 3.6545 3.65 7.3545 5.3091 11.173z"/>
  <path d="m188 139.53c-1.85-1.6273-3.6091-3.3227-5.3364-5.0409-0.87273-0.85454-1.7136-1.7273-2.5636-2.5954-0.42272-0.40909-0.85909-0.93636-1.2909-1.4136-0.43182-0.47727-0.82728-1.0136-1.2227-1.5409a27.727 27.727 0 0 1-5.2455-15.068 29.645 29.645 0 0 1 9.0909-22.686c0.51364-0.48637 1.0318-0.97273 1.5864-1.4136 0.55454-0.44091 1.1045-0.90909 1.6773-1.3045 0.57273-0.39546 1.1727-0.79091 1.7591-1.1864l0.64091-0.42272c0.20454-0.14091 0.42273-0.26364 0.61364-0.41819a24.091 24.091 0 0 0 7.6727-8.9182 22.814 22.814 0 0 0 1.1864-2.7636c0.15-0.47728 0.32272-0.95455 0.45454-1.4455 0.0682-0.24545 0.14546-0.48636 0.20909-0.73182l0.17728-0.74091c0.12272-0.49545 0.19545-1 0.2909-1.5 0.0955-0.5 0.15-1.0136 0.18637-1.5227a24.018 24.018 0 0 0 0.13182-3.0909 26.555 26.555 0 0 0-0.90909-6.2227 25.955 25.955 0 0 0-1.0409-3.0546c-0.18637-0.51363-0.45455-0.99545-0.65455-1.5-0.2-0.50454-0.49091-0.95909-0.77727-1.4864-1.1727-2.1227-2.3364-4.2545-3.4455-6.4273-1.1091-2.1727-2.2-4.3545-3.1818-6.6136 1.8636 1.6182 3.6364 3.3045 5.3636 5 1.7273 1.6955 3.4318 3.45 5.1091 5.2045 0.42273 0.45454 0.86364 0.97727 1.2909 1.4727 0.42727 0.49546 0.83182 1.0364 1.2046 1.5909 0.37272 0.55455 0.75454 1.1046 1.0909 1.6864 0.33636 0.58182 0.65909 1.1682 0.97727 1.7682s0.58636 1.2182 0.85 1.8454c0.26364 0.62728 0.50454 1.2636 0.7 1.9182a27.505 27.505 0 0 1 1.0136 3.9818 29.659 29.659 0 0 1-1.8182 16.391 29.918 29.918 0 0 1-10.486 13.077c-0.28182 0.21363-0.58636 0.39545-0.88182 0.5909l-0.87273 0.5591c-0.40909 0.27727-0.84545 0.52272-1.2409 0.81818-0.39546 0.29545-0.81364 0.56818-1.1909 0.88182-0.37728 0.31363-0.75909 0.63181-1.1364 0.95454a24.85 24.85 0 0 0-3.9136 4.4727 25.032 25.032 0 0 0-4.0909 11.364 26.209 26.209 0 0 0 1.7682 12.582c0.20909 0.51364 0.42727 1.0273 0.66364 1.5364 0.23636 0.50909 0.48181 0.98636 0.78181 1.5409 0.56364 1.0773 1.1409 2.1454 1.6864 3.2364 1.0773 2.2045 2.1545 4.3773 3.1227 6.6364z"/>
  <path d="m358.61 139.53c-1.85-1.6273-3.6091-3.3227-5.3364-5.0409-0.87272-0.85454-1.7136-1.7273-2.5636-2.5954-0.42273-0.40909-0.85909-0.93636-1.2909-1.4136-0.43182-0.47727-0.82728-1.0136-1.2227-1.5409a27.727 27.727 0 0 1-5.2454-15.068 29.645 29.645 0 0 1 9.0909-22.686c0.51364-0.48637 1.0318-0.97273 1.5864-1.4136 0.55454-0.44091 1.1045-0.90909 1.6773-1.3045 0.57273-0.39546 1.1727-0.79091 1.7591-1.1864l0.64091-0.42272c0.20455-0.14091 0.42273-0.26364 0.61364-0.41819a24.091 24.091 0 0 0 7.6727-8.9182 22.814 22.814 0 0 0 1.1864-2.7636c0.15-0.47728 0.32273-0.95455 0.45454-1.4455 0.0682-0.24545 0.14546-0.48636 0.20909-0.73182l0.17728-0.74091c0.12272-0.49545 0.19545-1 0.29091-1.5 0.0955-0.5 0.15-1.0136 0.18636-1.5227a24.018 24.018 0 0 0 0.13182-3.0909 26.555 26.555 0 0 0-0.90909-6.2227 25.955 25.955 0 0 0-1.0455-3.0409c-0.18636-0.51364-0.45454-0.99545-0.65454-1.5-0.2-0.50454-0.49091-0.95909-0.77728-1.4864-1.1727-2.1227-2.3364-4.2546-3.4454-6.4273-1.1091-2.1727-2.2-4.3545-3.1818-6.6136 1.8636 1.6182 3.6364 3.3045 5.3636 5 1.7273 1.6955 3.4318 3.45 5.1091 5.2045 0.42273 0.45455 0.86364 0.97728 1.2909 1.4727 0.42727 0.49546 0.83182 1.0364 1.2045 1.5909 0.37273 0.55455 0.75455 1.1046 1.0909 1.6864 0.33637 0.58182 0.65909 1.1682 0.97728 1.7682 0.31818 0.6 0.58636 1.2182 0.85 1.8454 0.26363 0.62727 0.50454 1.2636 0.7 1.9182a27.505 27.505 0 0 1 1.0136 3.9818 29.659 29.659 0 0 1-1.8182 16.391 29.918 29.918 0 0 1-10.495 13.073c-0.28182 0.21363-0.58637 0.39545-0.88182 0.59091l-0.87273 0.55909c-0.40909 0.27727-0.84545 0.52272-1.2409 0.81818-0.39545 0.29545-0.81364 0.56818-1.1909 0.88182-0.37727 0.31363-0.75909 0.63181-1.1364 0.95454a24.85 24.85 0 0 0-3.9136 4.4727 25.032 25.032 0 0 0-4.0909 11.364 26.209 26.209 0 0 0 1.7682 12.582c0.2091 0.51364 0.42728 1.0273 0.66364 1.5364s0.48182 0.98636 0.78182 1.5409c0.56364 1.0773 1.1409 2.1454 1.6864 3.2364 1.0773 2.1954 2.1546 4.3682 3.1364 6.6273z"/>
  <path d="m542.41 139.53c-1.85-1.6273-3.6091-3.3227-5.3364-5.0409-0.87272-0.85454-1.7136-1.7273-2.5636-2.5954-0.42273-0.40909-0.85909-0.93636-1.2909-1.4136-0.43182-0.47727-0.82728-1.0136-1.2227-1.5409a27.727 27.727 0 0 1-5.2454-15.068 29.645 29.645 0 0 1 9.0909-22.686c0.51364-0.48637 1.0318-0.97273 1.5864-1.4136 0.55454-0.44091 1.1045-0.90909 1.6773-1.3045 0.57273-0.39546 1.1727-0.79091 1.7591-1.1864l0.64091-0.42272c0.20455-0.14091 0.42273-0.26364 0.61364-0.41819a24.091 24.091 0 0 0 7.6909-8.9182 22.814 22.814 0 0 0 1.1864-2.7636c0.15-0.47728 0.32273-0.95455 0.45455-1.4455 0.0682-0.24545 0.14545-0.48636 0.20909-0.73182l0.17727-0.74091c0.12273-0.49545 0.19545-1 0.29091-1.5 0.0954-0.5 0.15-1.0136 0.18636-1.5227a24.018 24.018 0 0 0 0.13182-3.0909 26.555 26.555 0 0 0-0.90909-6.2227 25.955 25.955 0 0 0-1.0409-3.0546c-0.18636-0.51363-0.45455-0.99545-0.65455-1.5-0.2-0.50454-0.4909-0.95909-0.77727-1.4864-1.1727-2.1227-2.3364-4.2545-3.4454-6.4273-1.1091-2.1727-2.2-4.3545-3.1818-6.6136 1.8636 1.6182 3.6364 3.3045 5.3636 5 1.7273 1.6955 3.4318 3.45 5.1091 5.2045 0.42272 0.45454 0.86363 0.97727 1.2909 1.4727 0.42727 0.49546 0.83181 1.0364 1.2045 1.5909 0.37273 0.55455 0.75455 1.1046 1.0909 1.6864s0.65909 1.1682 0.97727 1.7682 0.58637 1.2182 0.85 1.8454c0.26364 0.62728 0.50455 1.2636 0.7 1.9182a27.505 27.505 0 0 1 1.0136 3.9818 29.659 29.659 0 0 1-1.8182 16.391 29.918 29.918 0 0 1-10.486 13.077c-0.28181 0.21363-0.58636 0.39545-0.88181 0.5909l-0.87273 0.5591c-0.40909 0.27727-0.84546 0.52272-1.2409 0.81818-0.39546 0.29545-0.81364 0.56818-1.1909 0.88182-0.37727 0.31363-0.75909 0.63181-1.1364 0.95454a24.85 24.85 0 0 0-3.9136 4.4727 25.032 25.032 0 0 0-4.0909 11.364 26.209 26.209 0 0 0 1.7682 12.582c0.20909 0.51364 0.42728 1.0273 0.66364 1.5364s0.48182 0.98636 0.78182 1.5409c0.56363 1.0773 1.1409 2.1454 1.6864 3.2364 1.0455 2.2045 2.1227 4.3773 3.1046 6.6364z"/>
 </g>
 <metadata>
  <rdf:RDF>
   <cc:Work rdf:about="">
    <dc:title>1Artboard 24</dc:title>
   </cc:Work>
  </rdf:RDF>
 </metadata>
</svg>
