<svg height="960" viewBox="0 0 960 960" width="960" xmlns="http://www.w3.org/2000/svg"><path d="m593.912762 3.42082672 2.037409.20811555c224.359105 23.58109223 380.389757 257.31939573 352.861883 519.22962773-27.527875 261.910232-228.745809 458.100196-453.104914 434.519104-2.497193-.262466-4.989222-.551549-7.475874-.867173l-1.68679-.220418-141.545479-13.792884c-.842767-.082125-1.677138-.189946-2.502384-.322629l-.219537-.037931-.760797-.058048c-1.580012-.128815-3.159835-.270014-4.739399-.423608l-2.369144-.239687c-207.494414-21.808541-349.2171292-248.724484-322.4636065-503.26725 23.8733017-227.139292 175.2731045-407.7437725 358.9125505-425.4785579l5.219796-.4574047-4.2524.3725554.552932-.1045306c1.385255-.2516599 2.795812-.4323821 4.227828-.5382478l.615023-.0407766 154.883217-9.08944501 1.697607-.1326463c3.712327-.27661157 7.429242-.49357924 11.149936-.65067868l1.782457-.06867502 3.165368-.17788121c1.213886-.06369436 2.416728-.08097256 3.606341-.0419787l.599291.02485991 1.110206-.01754636c12.884434-.16216406 25.794536.39378038 38.69848 1.67373429zm-32.175978 38.30641278-5.855799.0146743c-3.938843.0474749-7.867461.1707251-11.78475.3686731l-.046642.0023605-.033117.001136-.013379.0012241-.020621.0007759-.087.005-5.338.32.627-.042.893-.059 1.877498-.1137961 1.868502-.1012039.072-.004.083-.005h.004l.014-.001-.018.001-.155.009-1.618298.0869105c-.630055.0357353-1.259813.0734022-1.889267.112996l-.238435.0150935-.16852.010776-.72448.048224-.756016.0504648.129016-.0084648-.226.015-5.258741.410497c-176.485904 15.2935457-327.576294 181.8661536-350.446603 399.4626046-25.113938 238.943163 113.79692 449.850334 311.155764 474.564481.082056.010276.164672.020587.247298.030867l5.859084.672265c10.029561 1.054149 20.015592 1.609085 29.940545 1.681919l5.947502-.014015c186.116603-2.243264 349.405014-173.671206 373.254853-400.587271 25.37217-241.400068-116.670931-454.1846267-317.262146-475.2676129l-5.952244-.567579c-.048015-.0041108-.096029-.0082101-.144042-.012298l-1.933699-.1585259-.030571-.0023318-.057697-.004613-.974303-.073387 1.032.078 1.96427.1608577-5.77227-.4368577.316.022 1.537.106-.123351-.0086247-1.413649-.0973753-.341014-.0238048.025014.0018048-.057-.004-.42-.027-5.26-.295-.508-.024-.139-.006-5.455-.2-.031-.001-.065021-.0017652.059021.0017652-.149-.004-.413-.01-5.286-.091zm-134.012402 7.2693416-48.16101 2.8357931-.008913.2275546c-163.538867 12.8081233-305.374997 176.6293722-327.8294536 390.2692562-24.6391526 234.425877 103.7941766 440.063835 286.8638686 459.305235 3.437487.361295 6.869794.654302 10.296068.879906l-.006472.171446 40.434013 3.945245c-152.196591-73.235299-248.238857-260.29159-226.576789-466.392402 19.247139-183.124296 126.261112-332.222316 264.988688-391.2420339zm163.482912 10.223711c194.713369 20.4651997 331.883481 225.9498839 307.467438 458.2530169-24.416043 232.303134-201.311328 404.778215-396.024697 384.313015-194.713368-20.4652-331.883481-225.949884-307.467438-458.253017 24.416044-232.303134 201.311328-404.7782146 396.024697-384.3130149zm-376.134259 386.4035839c-23.33819 222.048051 106.838146 417.055863 289.66757 436.27201 182.829423 19.216147 350.705498-144.465094 374.043689-366.513146 23.33819-222.048051-106.838146-417.0558633-289.667569-436.27201-182.829424-19.2161467-350.705499 144.465095-374.04369 366.513146zm384.872114-249.755013c136.802123 14.378482 232.884886 153.956551 216.428737 310.52635-16.456149 156.5698-139.459185 273.121023-276.261308 258.742541-136.802124-14.378483-232.884887-153.956552-216.428738-310.526351 16.45615-156.5698 139.459186-273.121023 276.261309-258.74254zm-256.370871 260.833109c-15.367718 146.214078 73.561455 275.400229 198.628869 288.545344s238.912583-94.728594 254.280301-240.942672c15.367719-146.214078-73.561454-275.400229-198.628868-288.545344-125.067414-13.145114-238.912583 94.728594-254.280302 240.942672zm-258.0232314 157.453479 64.8119664 4.161902c5.511496.35392 9.692536 5.10878 9.338616 10.620276-.353921 5.511495-5.108781 9.692536-10.620276 9.338615l-64.8119671-4.161902c-5.5114957-.353921-9.6925362-5.10878-9.3386154-10.620276.3539209-5.511496 5.1087804-9.692536 10.6202761-9.338615zm-4.4000379-36.062177 64.8119663 4.161902c5.511496.353921 9.692537 5.10878 9.338616 10.620276s-5.108781 9.692536-10.620276 9.338615l-64.811967-4.161902c-5.5114957-.353921-9.6925362-5.10878-9.3386153-10.620276.3539208-5.511495 5.1087804-9.692536 10.620276-9.338615zm-3.3000284-36.062177 64.8119667 4.161902c5.511496.353921 9.692536 5.108781 9.338615 10.620276-.353921 5.511496-5.10878 9.692537-10.620276 9.338616l-64.8119664-4.161902c-5.5114957-.353921-9.6925362-5.108781-9.3386153-10.620276.3539208-5.511496 5.1087803-9.692537 10.620276-9.338616zm-3.3000284-36.062176 64.8119671 4.161902c5.511495.35392 9.692536 5.10878 9.338615 10.620276-.353921 5.511495-5.10878 9.692536-10.620276 9.338615l-64.8119668-4.161902c-5.5114957-.353921-9.6925362-5.10878-9.3386153-10.620276.3539208-5.511496 5.1087803-9.692536 10.620276-9.338615zm-3.3000284-36.062177 64.8119665 4.161902c5.511496.353921 9.692536 5.10878 9.338615 10.620276-.35392 5.511496-5.10878 9.692536-10.620276 9.338615l-64.8119662-4.161902c-5.5114957-.353921-9.6925362-5.10878-9.3386154-10.620276.3539209-5.511495 5.1087804-9.692536 10.6202761-9.338615zm2.2000189-36.062177 64.8119666 4.161902c5.511496.353921 9.692536 5.108781 9.338615 10.620276-.35392 5.511496-5.10878 9.692537-10.620276 9.338616l-64.8119663-4.161902c-5.5114956-.353921-9.6925361-5.108781-9.3386153-10.620276.3539208-5.511496 5.1087804-9.692537 10.620276-9.338616zm5.5000474-36.062176 64.8119662 4.161902c5.511496.35392 9.692537 5.10878 9.338616 10.620276-.353921 5.511495-5.108781 9.692536-10.620276 9.338615l-64.8119669-4.161902c-5.5114957-.353921-9.6925362-5.10878-9.3386154-10.620276.3539209-5.511496 5.1087804-9.692536 10.6202761-9.338615zm8.8000757-36.062177 64.8119665 4.161902c5.511496.353921 9.692536 5.10878 9.338616 10.620276-.353921 5.511496-5.108781 9.692536-10.620277 9.338615l-64.8119662-4.161902c-5.5114956-.353921-9.6925361-5.10878-9.3386153-10.620276.3539208-5.511495 5.1087804-9.692536 10.620276-9.338615z"/></svg>
