<svg height="960" viewBox="0 0 960 960" width="960" xmlns="http://www.w3.org/2000/svg"><path d="m597.759264 10.2592498 1.373435.1250227c24.188464 2.2109121 42.70782 22.4884323 42.721864 46.8008411l-.000563 14.5758864.558049.6410358c9.536862 11.1163963 15.382841 25.491861 15.637953 41.2264092l.008708 1.074894-.00071 84.987661 64.807073 1.402052c21.531703.465771 38.786776 17.882773 39.134927 39.339226v424.426003c0 22.091418-17.908653 40.000039-40.000071 40l-94.999929-.001281v53.351758c-.00513 24.494335-17.654969 44.984833-41.11072 49.197712l-.70728.12053-.239196.438863c-3.03734 5.440159-7.312247 10.109791-12.463702 13.61454l-.236102.156597.264712.391139c4.606189 6.932412 7.341755 15.215127 7.486259 24.127704l.006029.744157v65c0 24.852814-20.147186 45-45 45h-89c-24.852814 0-45-20.147186-45-45v-65c0-8.947013 2.611075-17.284177 7.112785-24.29105l.046215-.07295-.166728-.101103c-5.644743-3.488156-10.338109-8.33313-13.647051-14.061876l-.243221-.428021-.255029-.018499c-24.863563-2.055181-44.470395-22.21801-45.777692-47.18644l-.010279-.223061-.023019-.367506c-.03378-.612245-.056328-1.225461-.067628-1.839578l-.008511-.921842-.000842-54.441074-71.755443-2.13166c-.588141-.017475-1.175788-.047923-1.762514-.091319l-.879344-.0748c-24.94986-2.399837-45.853517-14.452966-59.244948-35.041472-11.377286-17.491882-16.316751-39.324038-16.316751-65.336754v-297.13696c0-23.183974 3.456639-42.426767 11.634893-58.213364 10.773478-20.79619 29.395744-34.169126 52.519767-36.759391.105945-.011868.211937-.023312.317973-.034332l58.479367-6.078948.000933-87.444661c0-13.803104 4.317308-26.6536756 11.709976-37.2234608l.172091-.2438782.000977-20.0339901c.010179-24.1366588 18.290284-44.298366 42.220112-46.7366501l.726863-.0684482c48.660534-4.21269512 86.174478-6.35281369 112.92472-6.3969116h.798149c26.508584 0 62.488796 2.09587483 108.253443 6.2592498zm-156.759185 897.6058712-.000079 1.384244c0 2.605456 2.001603 4.773851 4.598652 4.98299l2.737326.213981c13.687189 1.035776 27.383167 1.553664 41.087935 1.553664 14.730816 0 30.048066-.598337 45.951746-1.795049 2.608401-.196529 4.624341-2.370321 4.624341-4.986116l.000368-1.256055c-1.253679.199338-2.539279.302876-3.849061.302876h-90.731923c-1.509152 0-2.9862-.137458-4.419305-.400535zm95.151228-28.240601h-90.731923c-2.386183 0-4.320568 1.934384-4.320568 4.320568s1.934385 4.320568 4.320568 4.320568h90.731923c1.679122 0 3.134524-.957854 3.849609-2.356962l-.000039-3.927288c-.715098-1.399066-2.170479-2.356886-3.84957-2.356886zm-1.151307-37.62452h-89c-2.761424 0-5 2.238576-5 5v5c0 2.418891 1.717665 4.436601 3.999812 4.899944l-.000629 2.728133c.139783-.002368.279853-.003557.420201-.003557l90.581616-.00052.000186-2.724259c2.28165-.463729 3.998814-2.481202 3.998814-4.899741v-5c0-2.761424-2.238576-5-5-5zm-3.3634-33.814833h-83.181281l-.000319 13.814833h83.181zm17.535278-19.623024-1.266826.032032c-22.101831.563923-42.220457.846108-60.360132.846108-16.982542 0-35.69979-.247332-56.156484-.741665 25.297217 2.200908 44.667921 3.301382 58.111564 3.301382 13.718619 0 33.609246-1.145952 59.671878-3.437857zm-154.155619-103.944987c-3.976534 1.32135-6.844398 5.071719-6.844398 9.491914v63.606383c0 5.389233 4.272544 9.808283 9.658636 9.992253l1.817883.061388c33.255956 1.114126 62.554803 1.671189 87.89654 1.671189 25.802496 0 55.707304-.577504 89.714423-1.732577 5.386092-.18397 9.658635-4.60302 9.658635-9.992253v-63.606383c0-4.011361-2.361887-7.471073-5.770846-9.064322l-171.430966.00091c-.197992 0-.395974 0-.593879-.00882l-2.199052-.064893c-1.760778.18556-3.554717.139535-5.333582-.158757zm38.786741-449.472156-8.828 428.964 151.942978.00007c2.299146 0 4.537885.258635 6.688708.748398l138.393314.000813v-423.481281zm-20.708302-.447212c-8.785564 3.367205-14.701152 6.633953-17.746764 9.800242-42.41959 44.100399-62.639102 134.431747-62.639102 198.889601 0 64.457855 13.249471 142.658223 44.610656 191.272065 5.249261 8.137025 14.119544 17.953564 26.610849 29.449617l1.039663-.000313 8.837-429.396zm-37.970461 2.357186-108.289656 11.253814c-19.069267 2.135775-28.6039 20.538097-28.6039 55.206964v297.059443c0 24.916433 5.692764 42.176768 17.078293 51.781003 5.86865 4.866504 13.229445 7.725241 22.082504 8.576785l97.794522 2.905017-.510744-.54805c-5.88145-6.352742-10.595283-12.259312-14.162108-17.788347-31.13198-48.258547-47.804316-125.906749-47.804316-202.113972 0-35.438974 5.68607-75.937825 16.185665-112.587038 10.92524-38.134938 26.460641-70.549752 46.22974-93.745619zm198.832038 196.993622c49.125391 0 88.048942 43.248391 88.048942 95.609936s-38.923551 95.609936-88.048942 95.609936c-49.12539 0-88.048942-43.248391-88.048942-95.609936s38.923552-95.609936 88.048942-95.609936zm0 20c-37.582393 0-68.048942 33.851721-68.048942 75.609936 0 41.758214 30.466549 75.609936 68.048942 75.609936s68.048942-33.851722 68.048942-75.609936c0-41.758215-30.466549-75.609936-68.048942-75.609936zm-62.108161-98.292916c4.474094 0 8.101064 3.868768 8.101064 8.641135 0 4.772368-3.62697 8.641136-8.101064 8.641136-4.474095 0-8.101065-3.868768-8.101065-8.641136 0-4.772367 3.62697-8.641135 8.101065-8.641135zm62.648232 0c4.474094 0 8.101065 3.868768 8.101065 8.641135 0 4.772368-3.626971 8.641136-8.101065 8.641136s-8.101065-3.868768-8.101065-8.641136c0-4.772367 3.626971-8.641135 8.101065-8.641135zm62.648233 0c4.474094 0 8.101064 3.868768 8.101064 8.641135 0 4.772368-3.62697 8.641136-8.101064 8.641136-4.474095 0-8.101065-3.868768-8.101065-8.641136 0-4.772367 3.62697-8.641135 8.101065-8.641135zm-147.439375-255.558736c-39.037274 0-78.121499 1.605124-117.254024 4.815618l-.009713.001075c-2.669541.217701-5.279994.039289-7.773482-.486088-1.296143 1.318566-2.350388 2.876019-3.090715 4.600307-.408733 1.793268-.624337 3.659197-.624337 5.575483l-.00048 88.439201c1.804762 6.258412 7.575045 10.835823 14.414441 10.835823h228.67662c6.396716 0 11.858237-4.004042 14.014948-9.642509l.000248-89.632515c0-2.514291-.371165-4.941892-1.061691-7.230999-.8927-1.52442-2.046573-2.877038-3.400292-3.996541-2.846051 1.022148-5.913874 1.578654-9.111644 1.579273-.78473.000152-1.569094-.033908-2.360383-.102915-36.143707-3.169329-73.616859-4.755213-112.419496-4.755213zm.821759-55.8469843-1.654088.0000151c-17.592436.0264519-40.119998.8878237-67.582686 2.5841153-12.893935.8979493-26.913083 2.0026856-42.057216 3.3137607-3.617636.3127962-6.395468 3.3398947-6.397 6.9710276v20.494289c.000041.2056677.009147.4112338.02729.6160997.054974.6207466.189385 1.2153641.392325 1.7747185.698941-.042163 1.402664-.0632231 2.111306-.0632231l226.072478.000006c.26845-.7424228.414918-1.5432365.415192-2.378246l-.000001-20.4774074c-.00209-3.6175542-2.760292-6.6376104-6.36283-6.9668952l-1.356448-.1234736c-15.08606-1.3724333-29.055549-2.5130802-41.908467-3.4219405-24.481891-1.5236524-45.048553-2.2980852-61.699855-2.3228461z"/></svg>