<svg height="960" viewBox="0 0 960 960" width="960" xmlns="http://www.w3.org/2000/svg"><path d="m542.5 2c225.714682 0 405.5 215.447249 405.5 478s-179.785318 478-405.5 478c-14.07981 0-28.079798-.845519-41.960433-2.524926l-.983567-.122074-.713938-.046815c-20.13953-1.340194-35.933148-2.6923-47.563769-4.087758l-.608295-.073486c-13.512992-1.643721-31.728601-4.640564-54.881906-9.004365-.367095-.069188-.732256-.143273-1.095418-.222181l-.502674-.113395-3.481646-.597635c-196.847356-35.516318-342.7363339-227.980429-345.6635015-455.239709l-.0448525-6.967656c0-239.611499 158.744217-440.9317635 367.831926-465.5035266l6.224074-.6764734 1.89645-.2433419c11.491167-1.4582916 22.669718-2.77921642 33.536281-3.96265854l2.710141-.29299623c11.305475-1.21320738 26.427939-2.55652529 45.451975-4.04183344l1.280195-.14644299c12.05719-1.3401748 24.203722-2.05124805 36.413618-2.1327269zm-.05136 40.0000004-.04664-.0000004-5.769718.0553067c-.172727.0032583-.345424.0066603-.518092.0102059-1.850157.0364773-3.69689.0906795-5.540173.1612821l5.540173-.1612821c-1.975736.0405693-3.947653.099932-5.91563.1779519-1.815015.0696739-3.626128.1572782-5.433796.2606622l5.433796-.2606622c-2.065087.0818697-4.125836.1842833-6.18211.3070834-1.694104.0983156-3.384469.2131492-5.07172.3417392l5.07172-.3417392c-2.040051.1218313-4.075696.2637287-6.106801.4255384-1.588093.1232706-3.172485.2617987-4.754037.4124241l4.754037-.4124241c-2.023412.1611968-4.042318.3421555-6.056584.542724-1.580648.153884-3.157984.3232512-4.732399.5046206l4.732399-.5046206c-1.798802.1791138-3.593904.3738666-5.385211.58415l-.039468.0010152c-184.683853 21.6996538-328.995776 208.5743255-328.995776 435.8960245 0 226.140161 142.815656 412.25266 326.119298 435.544294l.003935-.013948c.01238.000811.024762.001622.037145.002433l-.004077.016214c.866745.110027 1.734396.216414 2.602942.319147.264224.029129.528131.059971.79212.090476l-.79212-.090476c1.922651.227415 3.849683.436927 5.780981.628396l-4.988861-.53792c1.976317.228375 3.957236.437889 5.942629.62839l-.953768-.09047c1.991169.197405 3.986872.375631 5.98698.534524l-5.033212-.444054c1.944767.186603 3.893828.354963 5.847064.504938l-.813852-.060884c1.986625.157821 3.977597.296569 5.972787.416091l-5.158935-.355207c1.977375.151828 3.959029.284813 5.944836.398808l-.785901-.043601c2.035366.12193 4.075123.223852 6.119136.305607l-5.333235-.262006c1.957596.112374 3.919228.206294 5.88478.281616l-.551545-.01961c2.038645.08154 4.081524.143019 6.128506.184276l-5.576961-.164666c1.96614.075344 3.936202.13208 5.910065.170066l-.333104-.0054c2.06696.04166 4.138104.062703 6.213293.062964l-5.880189-.057564c1.975113.038009 3.954032.057244 5.93664.057562l-.017377.000004c201.583933 0 365-196.09928 365-438 0-241.894308-163.407403-437.9896037-364.98397-437.9999996zm-147.343611 14.6457573-.047979.0214145c-175.87145 33.336064-310.05705 209.7321098-310.05705 422.3328278 0 209.961506 130.874736 384.611647 303.52673 421.025398-136.340897-70.714288-231.09412-232.538356-231.09412-420.025398 0-190.488956 97.811761-354.486563 237.672419-423.3542423zm168.053133 61.7454093c170.520415 0 306.340694 162.984334 306.340694 361.608833s-135.820279 361.608833-306.340694 361.608833c-170.520416 0-306.340694-162.984334-306.340694-361.608833s135.820278-361.608833 306.340694-361.608833zm0 60c-134.717087 0-246.340694 133.948329-246.340694 301.608833s111.623607 301.608833 246.340694 301.608833c134.717086 0 246.340694-133.948329 246.340694-301.608833s-111.623608-301.608833-246.340694-301.608833z"/></svg>
