<svg height="960" viewBox="0 0 960 960" width="960" xmlns="http://www.w3.org/2000/svg"><path d="m445.357132 13.4518242c98.805368 3.3934862 171.840236 31.1183995 232.190001 87.9252098 27.832014 26.198079 53.071085 58.610597 78.168861 99.380423 21.687232 35.229602 43.296543 76.568623 69.524895 131.895672 45.166547 95.27597 75.349644 171.41685 93.561782 234.545253 16.296698 56.488947 23.197329 102.764041 23.197329 147.48707 0 46.534075-23.942682 88.071235-63.65368 123.391295-29.101155 25.883373-66.242201 47.573182-99.63585 60.240538-1.44166.546871-2.976987 1.132565-5.144015 1.961582-.636602.243537-1.372508.5252-2.792234 1.068607-1.166692.446503-2.049908.784304-2.931203 1.120988-4.094215 1.564123-7.503671 2.85727-10.863253 4.11596l-1.438618.538018-.72049.26872c-10.956109 4.082582-21.127722 7.692822-31.555532 11.142683-34.005617 11.250173-66.937455 19.497116-100.472234 24.218782-42.235373 5.946701-83.073734 5.86491-122.323424-1.508965-9.257198-1.739158-18.389063-3.880911-27.388153-6.438003-45.510064-12.931686-92.547955-36.223671-141.270139-69.669675l-1.061175-.730982-.751908.18241c-16.266171 3.927306-28.872062 6.977576-37.517755 9.078071l-.428983.104233c-2.531048.615048-12.384125 3.141962-22.193783 5.666134l-1.200465.308939c-9.793843 2.520759-19.243637 4.96063-20.983933 5.405006-.172551.044057-.172551.044057-.35996.091892l-2.60551.663975c-37.381259 9.510317-53.089876 13.09434-63.346325 13.09434-9.609586 0-26.468396-3.590352-58.499783-11.348015-3.296124-.798287-6.686907-1.628524-10.101004-2.472175l-1.464404-.362332-1.466011-.363651c-1.710798-.424901-3.422328-.851832-5.125673-1.278475l-1.457797-.365569c-14.7963246-3.714804-28.7775371-7.357465-36.0420069-9.394553-14.7312086-4.130895-22.5348933-7.135549-31.0576485-13.890445-13.8316499-10.962577-19.1470506-25.405694-19.1470506-41.636865 0-11.582842 3.943517-21.914148 10.3261367-30.854728 4.5374632-6.35594 10.2883708-11.928458 16.9407197-16.793253 11.692198-8.550386 26.4191177-15.042902 42.1947556-18.631136 12.2776646-2.792606 45.166323-10.191278 98.721142-22.208488l1.037246-.233315-1.334776-2.189646c-57.5538-94.734669-88.938866-177.707383-93.3559551-249.80399l-.1331316-2.321926c-3.5838345-67.1206-4.5690986-132.005006-1.8575083-186.985251 1.6695502-33.851823 4.7133736-63.214341 9.3692675-87.598686 5.7846735-30.296109 13.9915515-53.43037 26.8739165-70.034856 26.130247-33.6801007 57.854707-60.5629939 102.408129-81.1876892 56.288403-26.0570599 127.664294-38.6671229 217.16719-35.5931316zm-297.861516 160.6875258-.523158 1.412331c-22.654416 62.156817-20.391745 202.665819-15.341181 297.224984 3.826184 71.635731 38.86125 158.681256 105.105198 261.136573 89.774299 86.911979 172.336657 141.069829 247.687074 162.47355 12.371302 3.51414 24.804883 6.058963 37.203614 7.780022 32.413867 4.452527 64.581325 3.281732 94.766081-.908477-39.722189 1.820442-80.03502-2.337099-121.074628-13.507289-83.741515-22.792827-174.270182-142.09599-271.483751-372.459062-63.104145-149.535347-91.114309-273.208544-76.339249-343.152632zm23.914385-10.941418c-22.386374 58.678457 3.654025 187.083361 70.851312 346.318061 104.742941 248.205121 192.206229 342.944972 258.309833 360.937099 111.170291 30.258411 201.632187 1.683293 253.053979-17.992127 2.516302-.962807 4.898189-1.874163 7.138781-2.723814 27.53455-10.441335 72.188507-29.314202 100.854581-59.795877 19.169303-20.383415 34.055653-50.939408 34.055653-78.332933 0-72.084245-18.13797-170.710843-109.715739-363.824279-48.471183-102.21298-90.265969-176.480091-146.002536-224.327035-48.093648-41.2858959-113.135115-63.0448085-195.266156-65.8646767-175.542821-6.0270467-251.520583 48.5712497-273.279708 105.6055817zm68.124931 600.965914-.000268 11.105034c0 18.807976-8.925059 39.035973-23.246852 53.668687-15.630338 15.969667-35.840313 23.574117-55.915952 18.992733-23.350872-5.328812-56.584048-13.538337-99.7264122-24.634051-1.2524136-.322106-2.3881623-.86766-3.3755554-1.583026 1.1044615 6.59153 5.9369096 9.037998 20.7349294 13.187628 17.3594734 4.867908 92.9140782 24.099149 103.3565562 24.099149 4.881858 0 22.940698-4.201176 42.839612-9.173711l1.407538-.352239c1.410299-.35343 2.828437-.710302 4.250427-1.069409l2.135375-.540186c.237474-.060174.475-.120393.712559-.180651l2.138427-.543249 2.590141-.660061c1.236243-.315542 2.470058-.631157 3.698832-.946054l1.471941-.377481c16.65079-4.273064 32.175782-8.354827 39.99994-10.256108 7.378939-1.793091 17.825631-4.322235 31.340582-7.586959-24.292924-18.486641-49.093675-39.539348-74.41182-63.150046zm-144.201747 26.448741c-12.1349093 2.760136-22.5002419 7.811394-29.3810287 13.398236l-.3250609-.08422c42.9807946 11.05416 76.0545866 19.224313 99.1944916 24.504981 12.682706 2.894272 26.075585-2.145096 37.173051-13.483484 10.794662-11.02901 17.540026-26.316887 17.540026-39.67922l-.002422-12.580341c-68.728914 15.415648-110.1286 24.723664-124.199057 27.924048z"/></svg>