<svg height="960" viewBox="0 0 960 960" width="960" xmlns="http://www.w3.org/2000/svg"><path d="m906.993961 264.201678c23.82322 3.195484 41.618757 23.51948 41.618757 47.570959v291.618279c0 24.413362-4.183703 44.4922-15.154487 61.985222-12.982447 20.700638-33.575047 34.015855-60.412862 40.207922-19.996473 4.613621-46.084814 10.273557-78.306888 16.99061l-.854347.177369-.208055.239128c-8.920107 10.083768-21.596648 16.80676-35.942077 17.944272l-.845757.060453-465.901485 29.668101c-1.186827.075575-2.375756.113392-3.564986.113392-15.490805 0-29.515097-6.278889-39.666688-16.43048l-.250952-.253866-1.170242-.034372c-51.342765-1.530535-90.20261-4.256383-117.072332-8.28731l-.932453-.141144c-26.899259-4.108381-53.8316386-11.39928-80.7682139-21.830089-24.2562978-9.394099-40.2477591-32.729978-40.2477591-58.745796v-327.733649c0-42.794123 34.6914838-77.48564 77.4856273-77.48564h682.3406107c71.676072 0 117.520946 1.367008 139.854589 4.366639zm-145.082354 70.519956-481.817473 5.213405.017242 5.038685c.00484.100556.0082.201512.01006.302848.003498.197019.001275.392809-.006515.587213l1.209687 368.783618c.014556 4.449482-2.879087 8.229764-6.892435 9.540576 2.927473 3.994992 7.655558 6.589406 12.989601 6.589406.341251 0 .682416-.010852 1.022978-.032538l465.901485-29.668101c3.434365-.218696 6.505509-1.693333 8.777402-3.959231-3.569065-1.565549-6.039327-5.153257-5.983354-9.295111zm-714.5972218 319.20605-.0012512 11.126644c0 9.496395 5.8381525 18.015843 14.6936264 21.445435 24.2691862 9.3979 48.3896656 15.927701 72.3615996 19.588986 27.244667 4.161136 69.562727 6.94855 126.95418 8.362241l-.105486-32.203212c-51.12403-1.902383-91.068491-4.516757-119.894958-7.855041-29.835711-3.455161-61.1704201-10.280636-94.0077108-20.465053zm859.7291258-30.323957-.410612.23967c-12.300158 7.145165-26.850302 12.559149-43.621908 16.286221-18.285804 4.063565-46.716386 8.614249-85.407265 13.683022l-.427505 31.557109c36.334329-7.52808 65.293171-13.781994 86.876526-18.761743 27.425358-6.327625 39.131993-21.376563 42.990764-43.004279zm-859.730428-276.170966.0004925 286.013982c.9957824.000318 2.0084176.150569 3.0084395.466085 32.7630944 10.33705 63.864678 17.203796 93.300829 20.612685 28.075723 3.251343 67.272389 5.823886 117.529439 7.705908l-1.006453-306.600514c-25.426389.418873-47.993373.632978-67.706656.641906h-2.712339c-22.001729-.011408-40.352114-.285316-55.05941-.82239-29.653326-1.082866-58.7719758-3.75519-87.354342-8.017662zm64.554932 202.210065c25.198214 0 45.625403 20.427189 45.625403 45.625403 0 25.198215-20.427189 45.625404-45.625403 45.625404-25.198215 0-45.625404-20.427189-45.625404-45.625404 0-25.198214 20.427189-45.625403 45.625404-45.625403zm755.943907-198.18664c-19.439983 1.328605-48.155136 2.711433-86.178429 4.15139l-3.758216 277.996989c36.681964-4.845715 63.649929-9.188155 80.797051-12.998677 18.00507-4.001178 32.727134-10.050981 44.217657-18.069536 1.745461-1.218054 3.744101-1.80191 5.722442-1.800238l.000787-257.162091c-9.105607 4.157063-22.560898 6.635543-40.801292 7.882163zm-755.943907 218.18664c-14.15252 0-25.625404 11.472884-25.625404 25.625403 0 14.15252 11.472884 25.625404 25.625404 25.625404 14.152519 0 25.625403-11.472884 25.625403-25.625404 0-14.152519-11.472884-25.625403-25.625403-25.625403zm766.999719-43.802641c17.000468 1.487348 26.893086 21.015494 25.030908 42.300278-1.862177 21.284785-14.995531 38.798419-31.995998 37.311071-17.000468-1.487348-26.893086-21.015494-25.030908-42.300279 1.862177-21.284784 14.995531-38.798418 31.995998-37.31107zm-6.753783 23.554758c-2.777078 3.703298-4.773211 9.268784-5.318321 15.499427-.545111 6.230643.454259 12.058202 2.546076 16.187474 1.532179 3.024539 3.149058 4.344747 4.304053 4.445796 1.154994.101049 2.976561-.918334 5.010668-3.630864 2.777079-3.703299 4.773211-9.268785 5.318321-15.499428.545111-6.230642-.454259-12.058201-2.546076-16.187473-1.532179-3.02454-3.149058-4.344747-4.304053-4.445796-1.154994-.101049-2.976561.918334-5.010668 3.630864zm-760.245936-181.117809c25.198214 0 45.625403 20.427189 45.625403 45.625404s-20.427189 45.625404-45.625403 45.625404c-25.198215 0-45.625404-20.427189-45.625404-45.625404s20.427189-45.625404 45.625404-45.625404zm766.999719-3.086622c17.000468 1.487349 26.893086 21.015494 25.030908 42.300279-1.862177 21.284784-14.995531 38.798419-31.995998 37.311071-17.000468-1.487349-26.893086-21.015494-25.030908-42.300279 1.862177-21.284784 14.995531-38.798419 31.995998-37.311071zm-766.999719 23.086622c-14.15252 0-25.625404 11.472884-25.625404 25.625404s11.472884 25.625404 25.625404 25.625404c14.152519 0 25.625403-11.472884 25.625403-25.625404s-11.472884-25.625404-25.625403-25.625404zm760.245936.468136c-2.777078 3.703299-4.773211 9.268785-5.318321 15.499428-.545111 6.230643.454259 12.058201 2.546076 16.187473 1.532179 3.02454 3.149058 4.344748 4.304053 4.445797 1.154994.101049 2.976561-.918334 5.010668-3.630864 2.777079-3.703299 4.773211-9.268785 5.318321-15.499428.545111-6.230643-.454259-12.058201-2.546076-16.187473-1.532179-3.02454-3.149058-4.344748-4.304053-4.445797-1.154994-.101049-2.976561.918334-5.010668 3.630864zm-102.88867-88.910218h-684.4265197c-17.2713433 0-31.8145482 11.680548-36.1640364 27.573061.0582094.008035.1156406.016216.1731122.024904 28.3079491 4.27927 57.1705359 6.956422 86.5894519 8.030728 14.491458.529192 32.655692.79908 54.484444.809072l2.691223-.000076c19.622776-.009954 42.127049-.224309 67.507061-.643476l-.016068-5.090148c-.014816-4.528974 2.983409-8.364624 7.1086-9.608456 1.232483-.563587 2.600814-.884101 4.043846-.899717l500.724951-5.419323c5.617791-.060196 10.183213 4.517531 10.108231 10.135139l-.145293 10.836148c37.325557-1.418837 65.517558-2.779838 84.54394-4.080176 19.129721-1.307401 31.538624-4.099305 36.401027-7.528591 1.754032-1.237058 3.768733-1.830478 5.763409-1.828771l.000058-10.372733c0-4.006096-2.965922-7.393429-6.936459-7.926009-19.712497-2.647584-63.862814-3.98471-132.450978-4.011576z"/></svg>