<svg height="960" viewBox="0 0 960 960" width="960" xmlns="http://www.w3.org/2000/svg"><path d="m551.001251 3c17.301297 0 31.036962 1.82103601 42.60061 6.07111677 14.148483 5.20010613 24.964018 14.11457283 31.890771 26.19170283 11.831566 20.6289102 8.845989 45.7178021-4.163433 62.7357594-4.352092 5.693083-7.223934 9.689199-9.054986 12.557303-.691351 1.082911-1.166178 1.898321-1.458985 2.466719-.014311.02778-.02736.053354-.039193.076751l-.048035.095648-.629771 1.791395c-23.09717 66.005162-28.475028 122.750168-17.126918 170.604065l.352615 1.462139c6.743893 27.503501 18.53239 54.257702 35.897585 82.901939 13.927287 22.973338 28.27261 42.867062 56.845399 80.083851l5.623256 7.320865 3.629669 4.72855c17.250757 22.492108 29.026997 38.320753 39.47538 53.492832l.855866 1.245665c.995222 1.451839 1.979278 2.899155 2.955826 4.347243l.835287 1.241531.832121 1.24265c.138451.207243.276792.414563.415033.621977l.828331 1.245719c.413651.623541.826594 1.248197 1.239118 1.874385l.060203.092194.605675.694759c41.842773 48.335152 65.099775 105.985052 65.577325 166.704973v1.878908c0 66.02058-26.931815 128.42316-75.25384 179.244155-2.241019 2.356913-4.748619 4.418835-7.461033 6.150769l-.227127.142436-.22311.192519c-11.396574 9.737185-25.181752 18.570952-41.075731 26.492637l-.816159.404844.009244.165817c.055749 1.112339.06956 2.265502.018411 3.566519l-.025965.566943c-.142304 2.260454-.142304 2.260454-.756164 5.951126-.499538 2.276905-.499538 2.276905-1.476804 5.337779-1.352612 3.568088-1.352612 3.568088-4.087068 8.348938-1.782543 2.63276-1.782543 2.63276-4.271505 5.517564-.441862.448696-.816776.829408-1.148306 1.162501l-.378521.378156c-1.563093 1.550925-2.207999 2.034471-5.248272 4.314045-4.349816 2.7243-4.349816 2.7243-9.498064 4.791752-4.134455 1.21761-5.107268 1.504107-7.789497 1.820309l-.056489.006551-1.189988.22537c-14.263351 2.665044-28.135629 4.37645-41.617979 5.119474l-1.683263.087833c-8.885347.437533-16.181483.316075-22.630729-.597783-5.35215-.7584-10.332279-2.045882-15.44624-4.452171-2.834334-1.333648-5.574319-2.959238-8.190733-4.970777l-.132068-.103946-1.253876.203252c-36.860059 5.91372-76.601677 9.055244-117.474037 9.160037l-2.115087.002711c-46.164832 0-90.908189-3.87422-131.694536-11.222789l-1.336464-.243211-.223096.193019c-5.535889 4.689135-12.377291 7.903514-19.939764 9.030993l-.55463.078765c-10.802179 1.45784-17.543613 2.163223-22.589442 2.163223-5.611008 0-17.734502-2.178345-30.061187-5.102907l-1.254016-.299929c-.418075-.100797-.836138-.202396-1.253942-.30474l-1.232845-.304351-.61542-.153702-1.227958-.310258c-2.655647-.676173-5.275969-1.377263-7.796589-2.088656-10.456212-2.951055-19.379224-6.099816-26.850398-9.823104-6.223234-3.101372-11.59033-6.608538-16.464578-11.482113-4.220096-4.219515-7.756148-9.190618-10.231465-15.310332-2.358305-5.830427-3.456225-12.134612-3.116986-18.514029l.032316-.553879-.087324-.061571-.464676-.331429-.10051-.042166c-4.366113-1.881154-8.399485-4.541509-11.886909-7.892651l-.399961-.38973c-52.5858927-51.960607-82.14962-117.089488-82.14962-186.263813 0-59.093236 21.580088-115.386278 60.962314-163.121582l.681686-.822058.339636-.525743c.434354-.673496.868208-1.343763 1.301967-2.011386l.867512-1.331892c.723021-1.10726 1.446531-2.208257 2.172406-3.305694l.872306-1.315389.743785-1.116171c.365057-.546606.731051-1.092824 1.098219-1.63899l.735967-1.092365c11.679777-17.297853 24.692179-34.769986 46.482617-63.140215l5.609759-7.303287c20.290758-26.42923 33.406555-44.122133 44.291994-60.383729l.914697-1.370976c4.093241-6.155526 7.884084-12.133824 11.644451-18.336625 17.365195-28.644237 29.153692-55.398438 35.897585-82.901939 11.808633-48.158938 6.558553-105.38752-16.774303-172.066204l-.630598-1.791395-.047208-.095648-.039193-.076751c-.292807-.568398-.767634-1.383808-1.458985-2.466719-1.831052-2.868104-4.702894-6.86422-9.054986-12.557303-13.009422-17.0179573-15.994999-42.1068492-4.163433-62.7357594 6.926753-12.07713 17.742288-20.9915967 31.890771-26.19170283 11.563648-4.25008076 25.299313-6.07111677 42.60061-6.07111677zm91.695715 901.864889-1.687387.604444c-11.735802 4.155919-24.275669 7.932064-37.499582 11.299143l-.734529.038609c13.143495-.647214 26.846185-2.376193 41.10807-5.186938.337345.581084-.058179-1.670669-1.186572-6.755258zm-441.031567-12.995675-.178676.588483c-.134046.447595-.261332.893607-.381856 1.338035-2.922635 10.777065 56.183609 22.204268 60.057201 22.204268 1.271799 0 3.311045-.145838 6.117739-.437515-24.618832-6.521936-46.762175-14.484634-65.614408-23.693271zm565.5188-168.183348-.953295.590489c-47.88878 29.074767-156.816715 42.70066-329.118953 42.70066-172.427616 0-281.388665-13.64573-329.223397-42.764154 6.730829 48.764176 31.150885 93.439925 68.202225 130.117375l.005246-.009198c1.513977-.107357 2.791218.203933 3.798051.987557 46.01438 35.81324 144.166252 60.547303 257.818238 60.547303 120.088418 0 222.871378-27.614911 265.127697-66.736038.578487-.535566 1.302738-.870753 2.158939-1.023185 33.764375-35.588742 55.926515-78.169797 62.185249-124.410809zm-463.810543-679.3763473-.452182.0748439c-12.176307 2.0569085-17.134805 6.175638-19.7752 10.7792952-1.086846 1.8949679-1.70261 3.8991935-1.954054 5.8898157l-.040613.3490907c-.503945 4.7954984 1.074688 9.4698471 3.238217 12.2997035 9.583682 12.5352766 14.247002 19.6983452 16.44256 25.8928892 16.879354 47.6233861 25.500041 91.6587751 25.862061 132.1061661v.02081c.203636 22.754167-2.205823 44.372944-7.228375 64.856331-16.749608 68.309631-58.07107 123.381815-99.870081 177.826094l-5.615502 7.310766c-18.713493 24.364177-37.306432 48.715664-53.615829 74.186439-.146474.228752-.29165.457031-.437797.678206-33.758849 39.883445-53.528893 87.485658-53.920918 138.639473l-.005943 1.479109.003.710449.495304.544349c29.891178 31.787062 141.242668 49.023666 330.613647 49.023666 191.283817 0 302.964034-17.586577 331.494503-49.991362.128082-.145475.259452-.28634.393901-.42258l-.000355.207567c0-53.814262-21.446489-103.755282-58.089718-144.991855-14.587246-22.346167-30.857621-43.870356-47.330062-65.347669l-3.61988-4.715792-5.615502-7.310766c-41.79901-54.444279-83.120473-109.516463-99.870081-177.826094-5.022552-20.483387-7.43201-42.102164-7.228375-64.856331v-.02081c.36202-40.447391 8.982707-84.48278 25.862061-132.1061661 2.195558-6.194544 6.858878-13.3576126 16.44256-25.8928892 2.005222-2.6227937 3.508011-6.8300294 3.315976-11.2496542l-.018704-.3472273c-.148454-2.3317587-.77508-4.7123544-2.053722-6.9417284-1.136806-1.9820767-2.703314-3.8742632-5.090566-5.5507092.061188.8373831.09213 1.6939209.09213 2.5700595 0 8.617736-5.17364 16.5602242-14.342586 24.92082-6.931541 6.3204437-16.351258 13.002765-28.370992 20.3829098-16.540469 10.1558861-31.2989 27.3048641-40.097388 47.8899361-3.410514 7.97929-7.584224 25.893954-11.051388 50.40805l-.043823.308342.406548 1.171636c18.266107 53.033528 30.664059 120.426271 36.321155 193.381535l.186072 2.433891c7.700614 102.183429 3.838181 181.829875-11.756177 239.149129-1.449855 5.329144-6.945318 8.473929-12.274461 7.024074-5.329143-1.449854-8.473928-6.945317-7.024074-12.274461 14.895564-54.750736 18.655612-132.285929 11.111264-232.395791-5.444189-72.241759-17.604277-138.858602-35.414913-190.635547l-.356414-1.027466-.11923-.196727c-.663162-1.121565-1.110962-2.376951-1.295107-3.702698l-.023663-.183575-.586903-1.630462c-.80463-2.217782-1.620087-4.406108-2.446281-6.564197l-.621657-1.612885c-22.602283-58.246085-51.777562-91.1019556-85.353268-94.568578-41.778109-4.3135038-73.648682-19.0218364-79.269933-38.045377-1.264694-4.2799982-1.208059-8.3528592.000758-12.1060483zm247.627595-1.3095187-214.004334.0000356c-2.916097.7710418-5.484635 1.6411034-7.6947 2.6013108-3.55688 1.5453582-5.708374 3.1239879-6.58261 4.3890463-.270088.3908307-.271791.4014336-.166536.7576392.921463 3.1184315 6.542071 8.01605 16.200255 12.473321 11.726402 5.411758 27.634872 9.4550149 45.943545 11.3453477 37.760307 3.8986739 68.625247 34.0223324 92.546243 85.1521664l.535826 1.155199.045863-.205337c2.183316-9.873533 4.446273-17.613405 6.630485-22.823444l.13931-.329116c10.422127-24.383763 27.945274-44.7452818 48.023085-57.0731046 11.039735-6.7784228 19.528812-12.80055 25.360177-18.1178119 2.955494-2.694933 5.12648-5.1231916 6.469793-7.1854233.564601-.8667656.94856-1.6167618 1.167274-2.2271752.13649-.3809306.18119-.6181176.18119-.7296459 0-4.8306701-2.188272-7.0172271-9.24429-8.710221-.253451-.060812-.507858-.1197722-.763668-.1769149l-.513623-.1118723c-.245617-.0521319-.492777-.1026358-.741867-.1515412-1.140408-.0215851-2.317409-.0324587-3.531418-.0324587z"/></svg>