<svg height="960" viewBox="0 0 960 960" width="960" xmlns="http://www.w3.org/2000/svg"><g fill="none" fill-rule="evenodd"><g stroke="#000" stroke-linecap="round" stroke-linejoin="round"><path d="m488.5 23c162.647859 0 294.5 131.852141 294.5 294.5 0 98.714773-48.568511 186.085762-123.112979 239.520414l-.284928-.273974c36.27701 34.52225 62.363491 68.972912 78.259444 103.351986 15.736993 34.035284 31.621199 99.580837 47.652617 196.636661l.485846 2.95073-32.265096 58.386037-.127593-.002305c-4.361585 19.250214-127.258744 24.200153-275.946082 18.993108-142.379962-4.986161-258.911148-4.81981-268.141153-30.445578l-.181224-.005316c-14.51341-28.667031-25.398467-50.167304-32.655172-64.500819-.318061-.628235-.765368-2.293686-.670821-2.910535 12.49818-81.541019 26.635572-139.372006 42.412176-173.492959 15.581409-33.698792 45.61263-72.06402 90.093666-115.095684-69.663484-53.85598-114.518701-138.245625-114.518701-233.111766 0-162.647859 131.852141-294.5 294.5-294.5z" stroke-width="40"/><path d="m176.404995 834.64984c-4.647314 30.483605 131.66875 30.483605 300.507902 36.379598s307.899505 1.241883 308.59549-18.688539" stroke-width="20"/><path d="m310.230203 545c5.536549 6.745747 63.764211 11.239027 174.682985 13.479841 110.918774 2.240813 168.815076.686082 173.688905-4.664195 36.27701 34.795402 62.363491 69.51865 78.259444 104.169745 15.895952 34.651094 31.942107 101.706628 48.138463 201.166601l-31.827484 58.066456c-1.607725 19.970433-125.582732 25.138574-275.938699 19.828641-142.114305-5.018872-258.465813-4.859018-267.99182-30.577004l-.903145-.020852c-14.51341-28.893855-25.398467-50.564246-32.655172-65.011173-.318061-.633207-.765368-2.311836-.670821-2.933565 12.49818-82.186202 26.635572-140.474769 42.412176-174.8657 15.895953-34.651094 46.831009-74.197359 92.805168-118.638795z" stroke-width="20"/><ellipse cx="563.251673" cy="287.113146" rx="147.647441" ry="155.785489" stroke-width="20" transform="matrix(.93358043 -.35836795 .35836795 .93358043 -65.481214 220.92128)"/></g><path d="m502.693794 277.587327c5.550939-39.496982 40.39688-67.250759 77.830587-61.989794 37.433708 5.260964 63.279798 41.54445 57.728859 81.041432-5.550938 39.496983-40.396879 67.250759-77.830587 61.989795-37.433707-5.260965-63.279798-41.54445-57.728859-81.041433zm24.333864 3.129912c-3.727059 26.519403 13.626745 50.881172 38.760806 54.413534s48.530621-15.102317 52.25768-41.62172c3.727059-26.519402-13.626745-50.881171-38.760806-54.413533-25.13406-3.532362-48.530621 15.102317-52.25768 41.621719z" fill="#000"/><path d="m560.107706 310.611134c12.299647 1.728602 23.749028-7.390496 25.572908-20.368076s-6.668407-24.899296-18.968054-26.627899-23.749027 7.390495-25.572907 20.368075c-1.82388 12.977581 6.668407 24.899297 18.968053 26.6279z" fill="#000"/></g></svg>