<?xml version="1.0" encoding="UTF-8"?>
<svg width="600px" height="600px" viewBox="0 0 600 600" version="1.1" xmlns="http://www.w3.org/2000/svg">
    <title>drivers/sensor_smoke/assets/icon</title>
    <g id="/drivers/sensor_smoke/assets/icon" stroke="none" stroke-width="1" fill="none" fill-rule="evenodd">
        <g id="icon" transform="translate(25, 122)" stroke="#000000">
            <path d="M275.38125,0 C425.949226,0 548.293773,55.1825614 550.725607,123.67664 L550.756088,125.4 L550.7625,125.4 L550.7625,194.5125 L550.746113,194.5125 L550.7625,195.146796 C550.7625,211.069156 541.901002,227.003709 532.694325,241.408422 L531.610108,243.095943 L530.525787,244.768789 L528.905853,247.249325 L526.249103,251.302276 L525.210489,252.893382 L524.190263,254.466466 L523.191504,256.02097 C518.092018,264.003615 513,279.584715 513,280.725 C513,322.436306 406.614462,356.25 275.38125,356.25 C144.148038,356.25 37.7625,322.436306 37.7625,280.725 C37.7625,279.40069 32.5166759,263.470538 27.3985478,255.53032 L26.3968135,253.984287 L25.3748301,252.420182 L21.1446673,245.993901 L20.0666346,244.347579 L18.9864312,242.686442 C9.443919,227.949229 0,211.541549 0,195.146796 L0.015675,194.5125 L0,194.5125 L0,125.4 C0.4224633,56.1102716 123.552901,0 275.38125,0 Z" id="Path" stroke-width="25"></path>
            <ellipse id="Oval" stroke-width="12.5" cx="287.85" cy="294.120894" rx="93.8051471" ry="13.125"></ellipse>
            <ellipse id="Oval" stroke-width="12.5" cx="280.35" cy="288.73895" rx="228.75" ry="62.1875"></ellipse>
            <path d="M550.7625,208.620894 C550.7625,158.648246 427.470115,118.13741 275.38125,118.13741 C123.292385,118.13741 0,158.648246 0,208.620894" id="Path" stroke-width="12.5"></path>
            <path d="M524.067111,226.14523 C473.958577,196.017255 381.537841,175.80616 275.8144,175.80616 C167.582714,175.80616 73.292422,196.987631 24.0671106,228.30616" id="Path" stroke-width="37.5"></path>
        </g>
    </g>
</svg>
