<svg height="960" viewBox="0 0 960 960" width="960" xmlns="http://www.w3.org/2000/svg"><path d="m299.189494 35.0223312c3.708581-.1454756 7.431107-.1708315 11.16353-.0752276l475 12.1668505c92.162505 2.3606893 165.646976 77.7515259 165.646976 169.9442589v516.595226c0 91.013332-71.680131 165.881373-162.607367 169.839186l-475 20.675444c-2.462754.107197-4.927548.160814-7.392633.160814h-1.584397c-3.16579-.036288-6.313387-.152424-9.439658-.355805l-.268945-.019698-.090928.000011c-.775278-.010255-1.554759-.065717-2.334923-.167906l-.090149-.013105-1.002179-.080961c-4.472124-.386601-8.910013-.947982-13.304488-1.682159l-1.018333-.17588.521154.06194c-19.175151-2.262458-54.299805-6.101572-105.313841-11.510137-.754427-.079986-1.503692-.202832-2.244162-.367945l-28.827675-6.428093c-77.7237622-17.331109-133.001476-86.292413-133.001476-165.925011v-527.373804c0-89.661987 69.6347414-163.910458 159.112853-169.652463 33.403936-2.1441823 54.254343-3.5060054 62.486655-4.0810606 6.334657-.4424975 19.126597-.794759 36.952363-1.0919142l3.174529-.0514243 3.187323-.0488424c7.476536-.11152 15.208881-.2059285 22.770351-.2834011l2.862926-.0278449.477844-.0239101zm15.640053 41.0711702c-76.260557-.4797106-139.077296 60.3205416-140.799633 136.8478286-.023628 1.049857-.035444 2.099946-.035444 3.150069v525.686244c0 77.319865 62.680135 140 140 140 2.033716 0 4.067191-.044314 6.098976-.132911l457.439812-19.946897c71.147161-3.102408 127.981703-58.922052 133.467037-128.77215l-.000295-515.867472-.015858-1.975145c-5.358504-67.011128-57.944142-120.8976092-124.769602-127.9213572l-1.885757-.0608722-147.860783-3.7874593-319.323461-7.186537zm-78.625372.1519709-.182199.0122969c-1.439917.066141-2.656878.1334691-3.635123.2018029-8.338417.582467-29.221022 1.9463931-62.712038 4.0961649-68.424742 4.3909646-121.674815 61.169182-121.674815 129.734382v527.374015l.0126563 1.824386c.834484 60.121884 42.8528948 111.938777 101.6943547 125.059446l27.709989 6.178413.403681.043999c18.464414 1.958457 34.829048 3.709531 49.09678 5.253567-43.895938-28.525664-72.922991-77.996167-72.922991-134.246302v-525.686244c0-1.20014.013503-2.400242.040507-3.600079 1.324001-58.82829 34.237977-109.52463 82.169198-136.2458477zm337.001361 205.3919777c110.601399 0 199.835472 98.614474 199.835472 219.791222 0 121.176749-89.234073 219.791223-199.835472 219.791223-110.6014 0-199.835473-98.614474-199.835473-219.791223 0-121.176748 89.234073-219.791222 199.835473-219.791222zm0 20c-99.085074 0-179.835473 89.238985-179.835473 199.791222 0 48.821736 15.748386 93.486844 41.869506 128.145117l130.780959-135.100378c7.864231-8.124003 21.054082.997548 16.228585 11.223014l-83.76232 177.497714c22.773135 11.577368 48.083509 18.025756 74.718743 18.025756 99.085073 0 179.835472-89.238986 179.835472-199.791223s-80.750399-199.791222-179.835472-199.791222zm-34.81361 250.132222-90.239344 93.219224c9.960759 10.70735 21.030078 20.145835 32.994926 28.083619z"/></svg>
