<?xml version="1.0" encoding="UTF-8"?>
<svg width="600px" height="600px" viewBox="0 0 600 600" version="1.1" xmlns="http://www.w3.org/2000/svg">
    <title>drivers/socket/assets/icon</title>
    <g id="/drivers/socket/assets/icon" stroke="none" stroke-width="1" fill="none" fill-rule="evenodd">
        <g id="icon" transform="translate(0, 43)">
            <g id="Group" stroke-linejoin="round" transform="translate(44.8561, 0)" stroke="#000000">
                <path d="M207.91398,12.9506803 L458.916671,26.4347877 C505.522186,28.9384804 542.028615,67.4587094 542.028615,114.131426 L542.028615,392.623678 C542.028615,438.209465 507.150471,476.216691 461.732416,480.123628 L210.729723,501.7153 C162.404836,505.872288 119.859869,470.06713 115.702882,421.742242 C115.487554,419.239055 115.37974,416.727781 115.37974,414.21535 L115.37974,100.647319 C115.37974,52.1439649 154.699478,12.8242278 203.202831,12.8242278 C204.774063,12.8242278 206.345011,12.8663938 207.91398,12.9506803 L207.91398,12.9506803 Z" id="Path" stroke-width="20" stroke-linecap="round"></path>
                <path d="M203.210474,-9.1097897e-15 C205.009875,-9.1097897e-15 206.808952,0.0482569296 208.605766,0.144718608 L459.895194,13.6351632 C486.600564,15.068838 510.412736,26.8217407 527.548566,44.9021811 C544.684396,62.9826216 555.143883,87.3905997 555.143883,114.134425 L555.143883,392.619039 C555.143883,418.74047 545.150601,442.690385 528.650957,460.669255 C512.151313,478.648126 489.145307,490.65595 463.11986,492.893199 L211.830431,514.495018 C200.505897,515.468519 189.458941,514.525449 179.008422,511.937289 L178.970757,514.645287 L44.043794,450.842968 C30.7382476,444.551232 19.8175705,434.74284 12.1791462,422.834903 C4.52755581,410.906441 0.169787869,396.871136 0.00734669005,382.153504 L0,381.338318 L0,113.072992 C0,91.9266258 7.37782743,72.2320604 19.9075142,56.7077521 C32.462679,41.1518762 50.1908283,29.7839681 70.8511342,25.3374164 L72.0125452,25.0953868 L171.051889,5.1836718 C181.146128,1.84882562 191.962387,-9.1097897e-15 203.210474,-9.1097897e-15 Z" id="Path" stroke-width="40"></path>
                <path d="M311.705185,417.72135 C390.362684,430.179474 465.519027,368.353527 479.571575,279.629233 C493.624122,190.904938 441.251461,108.880381 362.593961,96.4222572 C283.936462,83.9641331 208.780119,145.79008 194.727571,234.514375 C180.675023,323.238669 233.047685,405.263226 311.705185,417.72135 Z" id="Path" stroke-width="20" stroke-linecap="round"></path>
                <path d="M205.772289,194.574267 L205.774652,237.473569 L194.282991,237.474273 C194.422993,236.488528 194.571168,235.501866 194.727571,234.514375 C196.952981,220.46369 200.710811,207.087589 205.772289,194.574267 L205.772289,194.574267 Z" id="Path" stroke-width="20" stroke-linecap="round"></path>
                <path d="M193.226129,280.01935 L205.774652,283.53897 L205.770868,330.488549 C199.200089,314.842972 194.893222,297.823683 193.226129,280.01935 L193.226129,280.01935 Z" id="Path" stroke-width="20" stroke-linecap="round"></path>
                <path d="M272.309198,402.838001 C321.668217,398.99597 366.076753,368.296436 390.171498,322.70852 M407.775811,266.750192 C409.387712,254.08816 409.506961,241.586473 408.273297,229.451693 M392.2852,174.372816 C374.812296,139.668222 344.81193,112.751378 307.462111,101.276258" id="Shape" stroke-width="20" stroke-linecap="round"></path>
            </g>
            <path d="M385.129921,269.337037 C394.810845,270.870345 404.060856,263.260998 405.7904,252.341084 C407.519945,241.421171 401.074078,231.325841 391.393156,229.792534 C381.712232,228.259226 372.462221,235.868573 370.732677,246.788486 C369.003132,257.708399 375.448999,267.80373 385.129921,269.337037 Z" id="Path" fill="#000000" fill-rule="nonzero"></path>
            <path d="M257.277186,275.227579 C267.865696,276.904634 277.982896,268.58191 279.874585,256.638256 C281.766274,244.694601 274.716108,233.652833 264.127599,231.975778 C253.539089,230.298723 243.421889,238.621447 241.5302,250.565101 C239.638511,262.508756 246.688677,273.550524 257.277186,275.227579 Z" id="Path" fill="#000000" fill-rule="nonzero"></path>
            <path d="M432.01966,174.379001 L432.01966,228.707168 L508.197486,231.703917 C507.194992,222.055253 505.078127,212.5011 501.846892,203.041459 C498.615657,193.581819 494.703311,183.380518 490.109855,172.437557 L432.01966,174.379001 Z" id="Path" stroke="#000000" stroke-width="20" stroke-linecap="round" stroke-linejoin="round"></path>
            <path d="M432.01966,266.556767 L432.01966,323.467368 L488.665526,332.120331 C494.592103,321.934405 498.754953,312.784379 501.154077,304.670254 C503.553201,296.556128 505.514857,286.342796 507.039046,274.030255 L448.371354,266.556767 L432.01966,266.556767 Z" id="Path" stroke="#000000" stroke-width="20" stroke-linecap="round" stroke-linejoin="round"></path>
            <path d="M490.331246,172.728078 L489.790504,230.42208 M489.058544,272.08997 L488.499028,332.348149" id="Shape" stroke="#000000" stroke-width="20" stroke-linecap="round" stroke-linejoin="round"></path>
            <path d="M0.991081572,232.130177 C4.6740232,217.358704 17.5456807,207.848928 29.7407332,210.889496 C30.0206949,210.959299 30.2978662,211.035108 30.5721831,211.116792 L51.8218291,215.739477 L51.8218291,269.172287 L20.5426338,264.942065 C19.163795,264.90804 17.7794027,264.724749 16.4036218,264.381729 C4.20856922,261.34116 -2.69186005,246.901649 0.991081572,232.130177 L0.991081572,232.130177 Z" id="Path" fill="#000000" fill-rule="nonzero"></path>
        </g>
    </g>
</svg>
