<svg height="960" viewBox="0 0 960 960" width="960" xmlns="http://www.w3.org/2000/svg"><g fill="#000" fill-rule="nonzero"><path d="m478.999188 292c94.440692 0 171 76.559308 171 171 0 45.331532-17.639264 86.543194-46.428484 117.145675l-.720516.753325 1.426242.221307c76.118301 12.415569 134.414971 77.878796 135.701055 157.200727l.021703 2.678966v65c0 53.571621-43.428379 97-97 97h-326c-53.57162 0-97-43.428379-97-97v-65c0-14.88798 2.008318-29.306892 5.768818-43.000603l42.025427-.000657c-5.037982 13.373631-7.794245 27.865566-7.794245 43.00126v65c0 31.480231 25.51977 57 57 57h326c31.480231 0 57-25.519769 57-57v-65c0-67.378739-54.62126-122-122-122l-125.327007.000329c.88954-9.192775.308218-18.652642-1.937154-28.062085 9.100423 2.006383 18.559045 3.061756 28.264161 3.061756 72.349302 0 131-58.650698 131-131s-58.650698-131-131-131c-53.636983 0-99.744984 32.235409-120.00761 78.389835l-22.231057-42.338874c30.671308-45.85605 82.928788-76.050961 142.238667-76.050961zm-167.680702 137.303041 86.453551 164.643423c4.34372 8.24544 5.16063 17.042691 3.267884 25.054554l-19.040733-.001018c-29.557488 0-56.659961 10.511169-77.773372 27.999458l-54.181636.000592c24.06335-33.719055 60.728845-57.825356 103.118787-65.441205l2.246221-.385845-.981515-1.027325c-28.189445-29.96493-45.688676-70.101595-46.405576-114.317877l-.022909-2.827798c0-11.534701 1.142069-22.802657 3.319298-33.696959zm30.817385-272.449146c35.632171 35.604707 84.199897 58.147586 137.363317 58.147586 53.158092 0 101.724664-22.542343 137.364498-58.148766 7.814148-7.806822 20.477446-7.800883 28.284269.013264 7.806822 7.814148 7.800883 20.477446-.013265 28.284269-42.76031 42.720222-101.212981 69.851233-165.635502 69.851233-64.428302 0-122.8835-27.132184-165.636682-69.852413-7.813497-7.807474-7.818379-20.470773-.010904-28.284269 7.807474-7.813496 20.470772-7.818378 28.284269-.010904zm42.557778-53.077073c28.831939 20.781574 60.898449 32.224659 94.805539 32.224659 33.907091 0 65.9736-11.443085 94.805539-32.224659 8.960633-6.4586728 21.460449-4.4304336 27.919121 4.530199 6.458672 8.960632 4.430433 21.460448-4.530199 27.91912-35.332526 25.467088-75.42798 39.77534-118.194461 39.77534-42.76648 0-82.861934-14.308252-118.194461-39.77534-8.960632-6.458672-10.988871-18.958488-4.530199-27.91912 6.458673-8.9606326 18.958489-10.9888718 27.919121-4.530199z"/><path d="m397.772037 593.946464-164.656108-313.584292c-13.596184-25.816229-50.590451-25.816229-64.186635 0l-164.7351557 313.584292c-12.64761273 24.079358 4.82190236 53.053536 32.0933173 53.053536h164.7351554 164.656109c27.271415 0 44.819977-28.895229 32.093317-53.053536zm-214.614179-203.450836c0-10.184384 8.220949-18.39505 18.418087-18.39505 10.197137 0 18.418086 8.210666 18.418086 18.39505v105.712328c0 10.184384-8.220949 18.395051-18.418086 18.395051-10.197138 0-18.418087-8.210667-18.418087-18.395051zm17.864753 202.898195c-14.702849 0-26.559986-11.921256-26.559986-26.526768 0-14.684461 11.936184-26.526768 26.559986-26.526768 14.70285 0 26.559987 11.921256 26.559987 26.526768s-11.936184 26.526768-26.559987 26.526768z"/></g></svg>