<svg height="960" viewBox="0 0 960 960" width="960" xmlns="http://www.w3.org/2000/svg"><g transform="translate(4 244)"><path d="m611.706782 0c50.398413 0 91.293218 40.7077885 91.293218 90.9633736l-.000344 236.0366264h2.879732c21.374368 0 38.769599 17.125207 39.115366 38.415375l.005246.646418-.000344 65.438207h4.966756c10.930635 0 19.813225 8.768729 19.997093 19.655511l.002907.344489c0 11.045695-8.954305 20-20 20h-4.966756l.000344.5h-538l-.000344-.5h-4.445c-10.930636 0-19.813225-8.768729-19.997093-19.655511l-.002907-.344489c0-11.045695 8.954305-20 20-20h4.445l.000344-65.438207c0-21.372986 17.181488-38.711923 38.474136-39.056564l.646476-.005229h.879044l.000344-236.0366264c0-50.255016 40.89977-90.9633736 91.298762-90.9633736zm93.293218 367h-458l-.000344 64.5h458zm-126-317v18.563303c24.529412 0 44.481618 20.0061327 44.481618 44.595046v192.841651h18.518382v-192.841651c0-34.8269231-28.262868-63.158349-63-63.158349z"/><path d="m98.1355019 23.8512337c7.8141481 7.8068222 7.8200861 20.4701204.0132643 28.2842682-35.6064224 35.6398345-58.1487662 84.2064061-58.1487662 137.3644981 0 53.16342 22.5428796 101.731147 58.1475868 137.363318 7.8074742 7.813496 7.8025922 20.476795-.0109044 28.284269-7.8134965 7.807474-20.4767951 7.802592-28.2842692-.010905-42.7202293-42.753181-69.8524132-101.208379-69.8524132-165.636682 0-64.422521 27.1310112-122.8751918 69.8512337-165.6355019 7.8068222-7.8141478 20.4701203-7.8200865 28.2842682-.0132644zm48.5574771 42.9241065c8.960633 6.4586723 10.988872 18.9584884 4.530199 27.9191206-20.781574 28.8319392-32.224659 60.8984482-32.224659 94.8055392s11.443085 65.9736 32.224659 94.805539c6.458673 8.960632 4.430434 21.460448-4.530199 27.919121-8.960632 6.458672-21.460448 4.430433-27.91912-4.530199-25.4670884-35.332526-39.7753404-75.427981-39.7753404-118.194461s14.308252-82.861935 39.7753404-118.1944608c6.458672-8.9606322 18.958488-10.9888714 27.91912-4.530199zm707.171519-42.9241065c7.814148-7.8068221 20.477446-7.8008834 28.284268.0132644 42.720223 42.7603101 69.851234 101.2129809 69.851234 165.6355019 0 64.428303-27.132184 122.883501-69.852413 165.636682-7.807474 7.813497-20.470773 7.818379-28.284269.010905-7.813497-7.807474-7.818379-20.470773-.010905-28.284269 35.604707-35.632171 58.147587-84.199898 58.147587-137.363318 0-53.158092-22.542344-101.7246636-58.148766-137.3644981-7.806822-7.8141478-7.800884-20.477446.013264-28.2842682zm-48.558959 42.9241065c8.960632-6.4586724 21.460448-4.4304332 27.919121 4.530199 25.467088 35.3325258 39.77534 75.4279808 39.77534 118.1944608s-14.308252 82.861935-39.77534 118.194461c-6.458673 8.960632-18.958489 10.988871-27.919121 4.530199-8.960632-6.458673-10.988871-18.958489-4.530199-27.919121 20.781575-28.831939 32.22466-60.898448 32.22466-94.805539s-11.443085-65.9736-32.22466-94.8055392c-6.458672-8.9606322-4.430433-21.4604483 4.530199-27.9191206z"/></g></svg>