<svg viewBox="0 0 48 48" xmlns="http://www.w3.org/2000/svg"><path d="M22.936 13.14c.191-.004.398.029.58.09.872.295 1.73.623 2.601.905.71.228 1.128.759 1.468 1.352.328.576.585 1.198.858 1.808.311.697.622 1.393.97 2.073a.6.6 0 0 0 .403.262c1.671.182 3.342.078 5.005-.1.224-.025.444-.058.668-.058.543.004.983.344 1.066.804.09.51-.158.983-.676 1.174a18.58 18.58 0 0 1-1.547.49 27.223 27.223 0 0 1-4.616.841c-1.173.116-2.119-.286-2.877-1.173-.175-.204-.353-.403-.564-.643-.266.585-.515 1.128-.763 1.671-.47 1.028-.93 2.061-1.415 3.081-.12.257-.07.386.133.556a505.476 505.476 0 0 1 3.927 3.342c.477.41.867.883 1.145 1.46 1.265 2.604 2.554 5.196 3.831 7.796.423.854.03 1.932-.8 2.219-.551.19-1.17-.042-1.613-.664-.61-.854-1.186-1.73-1.775-2.596l-3.098-4.557c-.066-.096-.132-.208-.228-.266-1.235-.775-2.475-1.542-3.753-2.334-.062.12-.12.215-.165.319-.481 1.103-.97 2.198-1.44 3.3-.758 1.792-2.409 2.593-4.27 2.008-2.211-.693-4.409-1.427-6.615-2.144l-2.032-.668c-.73-.24-1.19-.97-1.099-1.733.079-.66.589-1.124 1.344-1.07.808.058 1.609.22 2.405.365.098.018.196.041.292.067l.577.167.292.065c.738.12 1.489.182 2.231.302 1.033.166 2.061.361 3.135.552.307-1.136.597-2.223.892-3.314.045-.17.083-.344.137-.51.186-.584.282-1.157.082-1.783-.203-.65-.111-1.323.112-1.978.859-2.504 1.697-5.013 2.538-7.522.038-.108.067-.22.104-.353-1.418-.14-2.778-.025-3.964.76-1.157.762-2.24 1.637-3.368 2.446-.273.195-.58.377-.895.477-.792.253-1.373-.324-1.15-1.128a1.75 1.75 0 0 1 .333-.655c1.447-1.705 3.014-3.276 4.914-4.483.929-.593 1.953-.85 3.044-.892 1.21-.045 2.425-.095 3.636-.128Zm20.813-2.845c.287 0 .544.112.772.336a11.45 11.45 0 0 1 3.118 5.4c.257 1.003.361 1.902.361 3.1-.02 2.423-.846 4.762-2.376 6.777-.303.394-.66.796-1.124 1.265-.27.273-.651.385-1.02.298a1.094 1.094 0 0 1-.788-.73c-.141-.43-.046-.804.294-1.144a9.696 9.696 0 0 0 1.597-2.065 9.277 9.277 0 0 0 1.09-3.044c.307-1.82.096-3.6-.621-5.287a9.203 9.203 0 0 0-1.83-2.766c-.032-.038-.07-.07-.103-.108-.14-.145-.274-.282-.36-.44a1.048 1.048 0 0 1-.021-.95c.14-.314.41-.538.73-.609.099-.02.19-.033.281-.033ZM3.5 10.589c.27-.273.651-.385 1.02-.298.373.091.668.36.788.73.141.43.046.804-.294 1.144a9.696 9.696 0 0 0-1.597 2.065 9.277 9.277 0 0 0-1.09 3.044 9.341 9.341 0 0 0 .621 5.287 9.203 9.203 0 0 0 1.83 2.766c.032.038.07.07.103.108.14.145.274.282.36.44.158.286.167.634.021.95-.14.315-.41.538-.73.609-.099.02-.19.033-.281.033-.287 0-.544-.112-.772-.336a11.45 11.45 0 0 1-3.118-5.399C.104 20.728 0 19.829 0 18.63c.025-2.417.846-4.76 2.376-6.776.303-.394.66-.796 1.124-1.265Zm35.684 2.6c.195 0 .377.05.551.146a6.335 6.335 0 0 1 2.833 3.151c.327.78.472 1.593.48 2.712-.103 2.256-1.248 4.072-3.321 5.258a1.075 1.075 0 0 1-.979.054 1.132 1.132 0 0 1-.638-.796c-.1-.468.132-.933.584-1.19a4.33 4.33 0 0 0 1.51-1.414c.974-1.489.833-3.541-.332-4.885a4.497 4.497 0 0 0-1.194-.97 1.125 1.125 0 0 1-.552-.685 1.044 1.044 0 0 1 .125-.858 1.057 1.057 0 0 1 .933-.523Zm-30.911.12a1.08 1.08 0 0 1 .979-.053c.327.145.56.435.638.796.1.469-.132.933-.584 1.19a4.33 4.33 0 0 0-1.51 1.414c-.974 1.489-.833 3.542.332 4.885.34.39.742.718 1.194.97.278.154.456.378.552.685.087.278.041.589-.125.858a1.057 1.057 0 0 1-.933.523 1.13 1.13 0 0 1-.551-.145 6.335 6.335 0 0 1-2.833-3.152c-.327-.78-.472-1.592-.48-2.712.103-2.256 1.248-4.072 3.321-5.258ZM26.908 6l.204.003c2.16.087 3.853 1.924 3.77 4.093-.087 2.131-1.92 3.856-4.019 3.774-2.222-.088-3.927-1.891-3.84-4.06.092-2.202 1.904-3.89 4.09-3.807Z" fill="#313132" fill-rule="evenodd"/></svg>