<svg height="960" viewBox="0 0 960 960" width="960" xmlns="http://www.w3.org/2000/svg"><path d="m479.49833 28.543532c11.045437.0759994 19.93831 9.0913177 19.862788 20.1367545l-1.108423 162.1327745 93.551714-92.747085c7.844134-7.776692 20.507315-7.72202 28.284008.122114 7.776692 7.844133 7.72202 20.507315-.122113 28.284007l-122.101609 121.051964-1.177 172.15 6.181 3.512 183.462-104.256 36.821334-160.494515c2.469933-10.766003 13.199778-17.491296 23.965781-15.021364 10.766002 2.469933 17.491296 13.199778 15.021363 23.965781l-28.616478 124.733098 141.582752-80.45683c9.60339-5.457315 21.812503-2.096257 27.269818 7.507133 5.457314 9.60339 2.096256 21.812503-7.507134 27.269818l-142.917436 81.214879 130.248706 35.504213c10.65688 2.904873 16.941124 13.898846 14.036251 24.555726s-13.898846 16.941123-24.555726 14.03625l-169.036231-46.076189-159.295 90.522 159.295 90.523 169.036231-46.076c10.65688-2.904873 21.650853 3.37937 24.555726 14.03625s-3.379371 21.650853-14.036251 24.555726l-130.249706 35.503024 142.918436 81.216068c9.60339 5.457315 12.964448 17.666428 7.507134 27.269818-5.457315 9.60339-17.666428 12.964448-27.269818 7.507133l-141.582752-80.457019 28.616478 124.733287c2.443934 10.652677-4.114794 21.269953-14.682733 23.885047l-.33863.080734c-10.766003 2.469932-21.495848-4.255361-23.965781-15.021364l-36.821334-160.495704-183.462-104.256-4.00474 2.276765c-.424389 1.405462-1.011153 2.785795-1.767139 4.116125-.181111.318706-.369658.630537-.565299.935398l1.333178 195.039712 122.101609 121.052926c7.844133 7.776692 7.898805 20.439874.122113 28.284008-7.776693 7.844133-20.439874 7.898805-28.284008.122113l-93.552714-92.748047 1.109423 162.133737c.075522 11.045436-8.817351 20.060755-19.862788 20.136754-11.045437.075044-20.060755-8.817829-20.136277-19.863265l-1.114358-162.926226-91.90177 85.464634c-8.088665 7.522025-20.743631 7.062673-28.265656-1.025992-7.522026-8.088666-7.062673-20.743631 1.025992-28.265657l118.770434-110.451985-1.200792-175.657582c-.332309-1.46859-.502892-2.998086-.492153-4.568627l.110945-16.278791-181.128 102.929-36.944142 161.039071c-2.469933 10.766003-13.199778 17.491297-23.965781 15.021364-10.766002-2.469932-17.491296-13.199778-15.021363-23.96578l28.740286-125.277655-142.5401917 81.002607c-9.6033899 5.457315-21.812503 2.096257-27.2698176-7.507133-5.4573145-9.60339-2.0962564-21.812503 7.5071334-27.269818l141.4988759-80.409656-127.8052148-34.837076c-10.65688-2.904873-16.9411235-13.898845-14.0362507-24.555725 2.9048729-10.65688 13.8988458-16.941124 24.5557258-14.036251l166.5917397 45.409052 160.715-91.329-160.715-91.329-166.5917397 45.410196c-10.65688 2.904873-21.6508529-3.37937-24.5557258-14.036251-2.9048728-10.65688 3.3793707-21.650852 14.0362507-24.555725l127.8042148-34.83822-141.4978759-80.408512c-9.6033898-5.457315-12.9644479-17.666428-7.5071334-27.269818 5.4573146-9.603389 17.6664277-12.964448 27.2698176-7.507133l142.5391917 81.000463-28.739286-125.27551c-2.443933-10.652677 4.114795-21.269953 14.682734-23.885047l.338629-.080734c10.766003-2.469933 21.495848 4.255361 23.965781 15.021364l36.944142 161.037927 181.041 102.88-.023945-3.508829c-.010734-1.569828.159689-3.09865.491701-4.566628l1.200244-175.662543-118.769434-110.449023c-8.088665-7.522026-8.548018-20.176991-1.025992-28.265657 7.522025-8.088665 20.176991-8.548017 28.265656-1.025992l91.90177 85.463672 1.114358-162.9252634c.075522-11.0454368 9.09084-19.93831 20.136277-19.8632656z"/></svg>