<svg height="960" viewBox="0 0 960 960" width="960" xmlns="http://www.w3.org/2000/svg"><path d="m883.804164 538.671436c21.440138 5.324473 34.504465 27.021477 29.179991 48.461615-38.826122 156.341735-159.029819 281.108529-317.507735 323.572559-201.279071 53.932564-407.305835-38.843383-504.5462456-212.778928l-8.1035777 31.625592c-5.4896663 21.398436-27.2867801 34.295042-48.6852164 28.805376s-34.29504258-27.28678-28.80537633-48.685217l34.86170593-135.894646c.2877693-1.193987.6328531-2.383596 1.0366222-3.56541 1.4608369-4.306012 3.6014728-8.219627 6.268755-11.650165l.0955721-.122096c.0701734-.089866.1414308-.179977.2130526-.269747.0593982-.074937.1188512-.149081.1785434-.222978l.1340143-.163798c3.666489-4.49099 8.2204724-8.059108 13.2844218-10.553667 5.0736288-2.505089 10.6910112-3.947042 16.5000625-4.117529l.1703022-.004084c.1326328-.003872.265637-.006537.3987354-.008534.0737004-.001098.1470752-.00208.2204685-.002859.0996071-.000777.1995713-.001345.2995854-.001534 4.3317012-.013812 8.723464.680437 13.012355 2.147755 8.0319737.813802 15.5772517 4.046336 21.6703937 9.138704l113.950755 48.6996c20.314065 8.681489 29.744131 32.187031 21.062641 52.501096-8.681489 20.314066-32.187031 29.744131-52.501096 21.062642l-33.449563-14.292156c80.59182 140.454303 248.225576 214.969127 412.027565 171.078516 130.078752-34.854496 228.69247-137.211726 260.571653-265.580116 5.324474-21.440138 27.021478-34.504465 48.461615-29.179991zm-376.165562-238.869506 129.586503 346.19807h-75.849715l-24.015113-71.33202h-125.068809l-23.77734 71.33202h-75.849714l128.873183-346.19807zm-33.050503 87.500611-43.036985 129.586503h86.549517zm393.883294-124.100987 8.104698-31.623589c5.489666-21.398436 27.28678-34.295043 48.685216-28.805377 7.46675 1.915559 13.89833 5.816688 18.874788 10.993605 10.36544 9.666627 15.257608 24.553636 11.47796 39.246995l-33.886564 131.736699c-.444369 3.702901-1.41819 7.405385-2.96169 11.006885-6.541451 15.263386-21.452964 24.368209-37.079347 24.252393-3.302537.00147-6.65882-.409539-10.005061-1.27031-3.160122-.812894-6.134533-1.981443-8.891415-3.45179l-.71415-.305864c-4.409362-1.061126-8.593624-2.863203-12.374435-5.303257l-116.458165-49.912143c-6.09577-2.612473-11.209261-6.559954-15.145422-11.354815-10.356046-11.226039-13.779861-27.909387-7.389109-42.863289 8.681489-20.314065 32.187031-29.744131 52.501096-21.062642l33.448987 14.291152c-80.592043-140.453654-248.22539-214.9680182-412.026989-171.077512-130.078752 34.854496-228.69247 137.211726-260.571653 265.580116-5.324474 21.440138-27.0214776 34.504465-48.4616151 29.179992-21.4401375-5.324474-34.5044645-27.021478-29.1799911-48.461615 38.8261228-156.341735 159.0298202-281.1085296 317.5077362-323.5725592 201.278297-53.93235733 407.304253 38.8426703 504.545125 212.7769252z"/></svg>