<?xml version="1.0" encoding="UTF-8"?>
<svg width="960" height="960" version="1.1" viewBox="0 0 960 960" xmlns="http://www.w3.org/2000/svg">
 <path d="m480 100.53c-192.47 0-351.33 143.46-375.75 329.27-0.0225 0.16843-0.0422 0.33736-0.0645 0.50585-0.98073 7.5399-1.7445 15.144-2.2754 22.816-0.0697 0.97535-0.16042 1.9449-0.22265 2.9219-0.4805 7.8142-0.80469 15.67-0.80469 23.605 0 0.11792 0.0116 0.23367 0.0117 0.35157-1.1e-4 0.1192-0.0117 0.23624-0.0117 0.35547 0 7.9822 0.33024 15.882 0.81641 23.742 0.0631 0.98474 0.15201 1.9622 0.22265 2.9453 0.53942 7.7473 1.3145 15.427 2.3125 23.039 0.0177 0.13269 0.0329 0.26578 0.0508 0.39844 24.543 185.67 183.34 328.99 375.72 328.99 192.47 0 351.33-143.46 375.75-329.27 0.0225-0.16843 0.0421-0.33736 0.0645-0.50585 0.98052-7.5382 1.7445-15.142 2.2754-22.812 0.0698-0.9773 0.1603-1.9488 0.22265-2.9277 0.48048-7.8141 0.80469-15.668 0.80469-23.604 0-0.11792-0.0116-0.23367-0.0117-0.35157 1.1e-4 -0.1192 0.0117-0.23624 0.0117-0.35547 0-7.9823-0.33023-15.884-0.81641-23.744-0.063-0.98278-0.15216-1.9583-0.22265-2.9394-0.53943-7.749-1.3143-15.429-2.3125-23.043-0.0177-0.13269-0.0329-0.26578-0.0508-0.39844-24.543-185.67-183.34-328.99-375.72-328.99zm0 80c52.757 0 102.29 13.711 145.32 37.684 1.3369 1.017 2.611 2.0944 4.1035 2.957 85.873 49.63 141.92 138.43 148.92 238.03 0.0357 0.52865 0.0881 1.0526 0.1211 1.582 0.41334 6.3655 0.6331 12.774 0.64062 19.219-8e-3 6.4023-0.22283 12.768-0.63086 19.092-0.0329 0.53205-0.0854 1.0586-0.12109 1.5898-6.9127 98.962-62.24 187.29-147.21 237.15-1.4244 0.83586-2.6314 1.8824-3.9121 2.8594-43.476 24.64-93.687 38.777-147.23 38.777-52.757 0-102.29-13.711-145.32-37.684-1.3369-1.017-2.611-2.0944-4.1035-2.957-85.873-49.63-141.92-138.43-148.92-238.03-0.0357-0.52865-0.0881-1.0526-0.1211-1.582-0.41334-6.3655-0.6331-12.774-0.64062-19.219 8e-3 -6.4023 0.22283-12.768 0.63086-19.092 0.0329-0.53205 0.0854-1.0586 0.12109-1.5898 6.9127-98.962 62.24-187.29 147.21-237.15 1.4244-0.83586 2.6314-1.8824 3.9121-2.8594 43.476-24.64 93.687-38.777 147.23-38.777z"/>
</svg>
