<svg height="960" viewBox="0 0 960 960" width="960" xmlns="http://www.w3.org/2000/svg"><path d="m509.534952 0c108.763523 0 196.93378 88.2169849 196.93378 197.038151l-.000732 226.579849 63.971033.000368c54.986004 0 99.560967 44.598587 99.560967 99.613732v337.154168c0 55.015145-44.574963 99.613732-99.560967 99.613732h-581.878066c-54.986004 0-99.560967-44.598587-99.560967-99.613732v-337.154168c0-55.015145 44.574963-99.613732 99.560967-99.613732l52.367033-.000368.000424-226.579849c0-108.8211661 88.170257-197.038151 196.933781-197.038151zm-29.487914 573.586294c-41.390563 0-74.944244 33.571463-74.944244 74.983963 0 29.716199 17.4352 56.25554 44.01398 68.320409l.342795.155605-.022771.375934-7.316333 120.790497c-.016695.275606-.025048.551655-.025048.827767 0 7.557025 6.122935 13.683205 13.675957 13.683205h47.457252c.275965 0 .551867-.008358.827327-.025061 7.53919-.457163 13.280503-6.942726 12.823582-14.485918l-7.286418-120.317365-.023147-.382207.350926-.152773c7.828153-3.407934 14.88986-8.06569 20.976069-13.691758.072006-.066407.143941-.133368.215745-.200467l-.215745.200467c.175315-.162061.349821-.324925.523512-.488586l-.307767.288119c4.634653-4.331021 8.723654-9.238834 12.152634-14.609051.056529-.087967.112566-.176372.168421-.264896l-.168421.264896c.134458-.210578.2679-.421866.400321-.633859l-.2319.368963c7.378069-11.693583 11.557518-25.475153 11.557518-40.023921 0-41.4125-33.553681-74.983963-74.944245-74.983963zm-39.033142 264.84499-.047713.812922c-.015863.261794-.0238.524008-.0238.786282 0 4.983391 2.804028 9.311867 6.920398 11.493739-4.124323-2.621685-6.86144-7.232908-6.86144-12.483758 0-.203137.004186-.406242.012555-.609185zm6.071902-258.439646-.159585.075457c-25.39283 12.176961-42.927316 38.128172-42.927316 68.175588 0 .877082.01494 1.750674.04458 2.620535-.014379-.461934-.024016-.925294-.029461-1.38945l-.005299-.903511c0-30.201547 17.589011-56.292783 43.077081-68.578619zm62.449154-492.4191267h-71.672747c-60.42418 0-109.407656 49.0094357-109.407656 109.4656397l-.000549 226.579849h290.488l.000608-226.579849c0-59.851642-48.008705-108.4843063-107.598401-109.4509744z"/></svg>