<?xml version="1.0" encoding="UTF-8"?>
<svg id="layer" width="500" height="500" version="1.1" viewBox="0 0 500 500" xml:space="preserve"
     xmlns="http://www.w3.org/2000/svg">
<g transform="matrix(4.8381 0 0 4.8381 94.109 101.19)">
  <g transform="translate(0 8.9637)">
    <path d="m57.176 16.248h-5.5455v-11.091c0-10.814-8.5956-19.409-19.409-19.409-10.814 0-19.409 8.5956-19.409 19.409v11.091h-5.5455v-11.091c0-13.864 11.091-24.955 24.955-24.955 13.864 0 24.955 11.091 24.955 24.955z"/>
    <path d="m54.403 63.385h-44.364c-4.7137 0-8.3183-3.6046-8.3183-8.3183v-33.273c0-4.7137 3.6046-8.3183 8.3183-8.3183h44.364c4.7137 0 8.3183 3.6046 8.3183 8.3183v33.273c0 4.7137-3.6046 8.3183-8.3183 8.3183zm-44.364-44.364c-1.6637 0-2.7728 1.1091-2.7728 2.7728v33.273c0 1.6637 1.1091 2.7728 2.7728 2.7728h44.364c1.6637 0 2.7728-1.1091 2.7728-2.7728v-33.273c0-1.6637-1.1092-2.7728-2.7728-2.7728z"/>
    <circle cx="32.221" cy="30.112" r="5.5455"/>
    <path d="m33.608 30.112h-2.7728l-2.7728 16.637h8.3183z"/>
  </g>
</g>
</svg>
