<svg height="960" viewBox="0 0 960 960" width="960" xmlns="http://www.w3.org/2000/svg"><g fill="#000" fill-rule="evenodd"><path d="m98.1355019 5.85123376c7.8141481 7.80682214 7.8200861 20.47012034.0132643 28.28426814-35.6064224 35.6398346-58.1487662 84.2064061-58.1487662 137.3644981 0 53.16342 22.5428796 101.731147 58.1475868 137.363318 7.8074742 7.813496 7.8025922 20.476795-.0109044 28.284269-7.8134965 7.807474-20.4767951 7.802592-28.2842692-.010905-42.7202293-42.753181-69.8524132-101.208379-69.8524132-165.636682 0-64.422521 27.1310112-122.8751918 69.8512337-165.63550187 7.8068222-7.81414783 20.4701203-7.82008649 28.2842682-.01326437zm48.5574771 42.92410644c8.960633 6.4586723 10.988872 18.9584884 4.530199 27.9191206-20.781574 28.8319392-32.224659 60.8984482-32.224659 94.8055392s11.443085 65.9736 32.224659 94.805539c6.458673 8.960632 4.430434 21.460448-4.530199 27.919121-8.960632 6.458672-21.460448 4.430433-27.91912-4.530199-25.4670884-35.332526-39.7753404-75.427981-39.7753404-118.194461s14.308252-82.8619345 39.7753404-118.1944608c6.458672-8.9606322 18.958488-10.9888714 27.91912-4.530199zm707.171519-42.92410644c7.814148-7.80682212 20.477446-7.80088346 28.284268.01326437 42.720223 42.76031007 69.851234 101.21298087 69.851234 165.63550187 0 64.428303-27.132184 122.883501-69.852413 165.636682-7.807474 7.813497-20.470773 7.818379-28.284269.010905-7.813497-7.807474-7.818379-20.470773-.010905-28.284269 35.604707-35.632171 58.147587-84.199898 58.147587-137.363318 0-53.158092-22.542344-101.7246635-58.148766-137.3644981-7.806822-7.8141478-7.800884-20.477446.013264-28.28426814zm-48.558959 42.92410644c8.960632-6.4586724 21.460448-4.4304332 27.919121 4.530199 25.467088 35.3325263 39.77534 75.4279808 39.77534 118.1944608s-14.308252 82.861935-39.77534 118.194461c-6.458673 8.960632-18.958489 10.988871-27.919121 4.530199-8.960632-6.458673-10.988871-18.958489-4.530199-27.919121 20.781575-28.831939 32.22466-60.898448 32.22466-94.805539s-11.443085-65.9736-32.22466-94.8055392c-6.458672-8.9606322-4.430433-21.4604483 4.530199-27.9191206z" fill-rule="nonzero" transform="translate(4 262)"/><path d="m480 227c90.533839 0 167.431008 58.368696 195.092538 139.517385 3.452882-1.936135 7.140029-2.982501 10.966868-2.982501 19.849442 0 35.940594 28.151398 35.940594 62.877907s-16.091152 62.877907-35.940594 62.877907c-2.542636 0-5.023603-.461926-7.41698-1.340425-24.047842 87.093189-103.874055 151.049727-198.642426 151.049727s-174.594584-63.956538-198.647187-151.049933c-2.388616.878705-4.869583 1.340631-7.412219 1.340631-19.849442 0-35.940594-28.151398-35.940594-62.877907s16.091152-62.877907 35.940594-62.877907c3.826839 0 7.513986 1.046366 10.973063 2.984484 27.655335-81.150672 104.552504-139.519368 195.086343-139.519368zm-206.727721 328.592498c13.331247 26.133017 18.894619 45.450705 16.690116 57.953064-2.28495 12.958598-15.821475 21.403376-30.234674 18.86194s-24.245087-15.106695-21.960137-28.065293c1.595088-9.046191 13.429986-25.296095 35.504695-48.749711zm413.247093 0c22.074709 23.453616 33.909607 39.70352 35.504694 48.749711 2.284951 12.958598-7.546937 25.523857-21.960136 28.065293s-27.949724-5.903342-30.234675-18.86194c-2.204503-12.502359 3.358869-31.820047 16.690117-57.953064zm-419.589847-47.678983c-10.976754 27.206022-21.906098 44.078296-32.788032 50.616822-11.27904 6.777131-26.533154 2.101259-34.071018-10.443852-7.537863-12.545111-4.50504-28.208884 6.774-34.986015 7.873719-4.731007 27.902069-6.459992 60.08505-5.186955zm425.932601 0c32.182981-1.273037 52.211331.455948 60.085049 5.186955 11.279041 6.777131 14.311864 22.440904 6.774 34.986015-7.537863 12.545111-22.791977 17.220983-34.071017 10.443852-10.881935-6.538526-21.811279-23.4108-32.788032-50.616822zm-211.25306-260.913515c-48.385151 0-87.609066 39.175084-87.609066 87.5s39.223915 87.5 87.609066 87.5c35.009846 0 63.390934-28.345756 63.390934-63.312018 0-34.966263-28.381088-63.312019-63.390934-63.312019-25.114296 0-45.473456 20.333814-45.473456 45.416845s20.35916 45.416845 45.473456 45.416845c6.628102 0 12.001241-5.36645 12.001241-11.986301 0-6.619852-5.373139-11.986301-12.001241-11.986301-11.858091 0-21.470972-9.600915-21.470972-21.444243s9.612881-21.444242 21.470972-21.444242c21.75364 0 39.38845 17.612856 39.38845 39.339416 0 21.726559-17.63481 39.339415-39.38845 39.339415-35.128946 0-63.606582-28.442184-63.606582-63.527397s28.477636-63.527397 63.606582-63.527397c6.628102 0 12.001241-5.36645 12.001241-11.986302 0-6.619851-5.373139-11.986301-12.001241-11.986301z"/></g></svg>