<svg height="960" viewBox="0 0 960 960" width="960" xmlns="http://www.w3.org/2000/svg"><g fill="#000" fill-rule="evenodd"><path d="m98.1355019 5.85123376c7.8141481 7.80682214 7.8200861 20.47012034.0132643 28.28426814-35.6064224 35.6398346-58.1487662 84.2064061-58.1487662 137.3644981 0 53.16342 22.5428796 101.731147 58.1475868 137.363318 7.8074742 7.813496 7.8025922 20.476795-.0109044 28.284269-7.8134965 7.807474-20.4767951 7.802592-28.2842692-.010905-42.7202293-42.753181-69.8524132-101.208379-69.8524132-165.636682 0-64.422521 27.1310112-122.8751918 69.8512337-165.63550187 7.8068222-7.81414783 20.4701203-7.82008649 28.2842682-.01326437zm48.5574771 42.92410644c8.960633 6.4586723 10.988872 18.9584884 4.530199 27.9191206-20.781574 28.8319392-32.224659 60.8984482-32.224659 94.8055392s11.443085 65.9736 32.224659 94.805539c6.458673 8.960632 4.430434 21.460448-4.530199 27.919121-8.960632 6.458672-21.460448 4.430433-27.91912-4.530199-25.4670884-35.332526-39.7753404-75.427981-39.7753404-118.194461s14.308252-82.8619345 39.7753404-118.1944608c6.458672-8.9606322 18.958488-10.9888714 27.91912-4.530199zm707.171519-42.92410644c7.814148-7.80682212 20.477446-7.80088346 28.284268.01326437 42.720223 42.76031007 69.851234 101.21298087 69.851234 165.63550187 0 64.428303-27.132184 122.883501-69.852413 165.636682-7.807474 7.813497-20.470773 7.818379-28.284269.010905-7.813497-7.807474-7.818379-20.470773-.010905-28.284269 35.604707-35.632171 58.147587-84.199898 58.147587-137.363318 0-53.158092-22.542344-101.7246635-58.148766-137.3644981-7.806822-7.8141478-7.800884-20.477446.013264-28.28426814zm-48.558959 42.92410644c8.960632-6.4586724 21.460448-4.4304332 27.919121 4.530199 25.467088 35.3325263 39.77534 75.4279808 39.77534 118.1944608s-14.308252 82.861935-39.77534 118.194461c-6.458673 8.960632-18.958489 10.988871-27.919121 4.530199-8.960632-6.458673-10.988871-18.958489-4.530199-27.919121 20.781575-28.831939 32.22466-60.898448 32.22466-94.805539s-11.443085-65.9736-32.22466-94.8055392c-6.458672-8.9606322-4.430433-21.4604483 4.530199-27.9191206z" fill-rule="nonzero" transform="translate(4 262)"/><path d="m479.619544 425.353599c83.771548 0 151.681805 79.117122 151.681805 176.713039 0 74.346501-74.960838 74.346501-151.308205 74.346501-80.094065 0-152.055406 0-152.055406-74.346501 0-97.595917 67.910258-176.713039 151.681806-176.713039z"/><path d="m543.675666 413.502206c37.591849 6.628457 75.182224-28.355861 83.960451-78.139662s-14.579829-95.514972-52.171678-102.143429c-37.59185-6.628457-75.182224 28.355861-83.960452 78.139662-8.778227 49.7838 14.579829 95.514971 52.171679 102.143429z"/><path d="m414.06902 413.502206c37.59185-6.628458 60.949906-52.359629 52.171678-102.143429-8.778227-49.783801-46.368601-84.768119-83.960451-78.139662s-60.949906 52.359628-52.171678 102.143429c8.778227 49.783801 46.368602 84.768119 83.960451 78.139662z"/><path d="m314.865793 514.099647c27.817499-12.971513 36.44212-53.351229 19.26363-90.190621-17.17849-36.839391-53.654947-56.188129-81.472446-43.216616-27.8175 12.971513-36.442121 53.351229-19.263631 90.19062 17.178491 36.839392 53.654947 56.18813 81.472447 43.216617z"/><path d="m644.190307 514.099647c27.8175 12.971513 64.293956-6.377225 81.472447-43.216617 17.17849-36.839391 8.553869-77.219107-19.263631-90.19062-27.817499-12.971513-64.293956 6.377225-81.472446 43.216616-17.178491 36.839392-8.553869 77.219108 19.26363 90.190621z"/></g></svg>