<svg height="960" viewBox="0 0 960 960" width="960" xmlns="http://www.w3.org/2000/svg"><path d="m941.066467 76.4790867c-1.410538 12.312992-2.81589 24.8459673-4.56851 40.6789663-.244869 2.212121-1.169934 10.595157-2.12836 19.275785l-.179938 1.629671c-.020002.181143-.04.362256-.05999.543286l-.119783 1.084756c-.777286 7.038895-1.52322 13.789584-1.890853 17.10175-3.953948 35.622758-6.93204 61.193278-10.051347 85.568317l-.23423 1.826025c-.117265.91203-.234768 1.82269-.352568 2.732447l-.354348 2.727032-.595497 4.540627c-16.205452 122.898077-40.805493 231.880465-77.244226 333.806232-57.142526 159.811261-170.977764 259.132369-336.692368 293.465445-112.355763 23.292161-215.301439-1.479113-306.519761-74.338183-2.188939-1.748377-6.329041-5.974627-11.440011-11.560852-27.693139 36.684172-56.281907 81.063566-85.65625 133.102211-10.8593552 19.238085-35.2581512 26.030388-54.4962364 15.171033s-26.0303881-35.258151-15.1710331-54.496237c35.2412748-62.432312 69.8317305-115.1069 103.9276145-158.072458-6.558879-9.66532-11.814509-18.180196-14.111041-22.805235-52.5198615-105.771001-47.3355448-236.685905 9.215261-350.514829 57.778921-116.300951 161.705169-200.443478 286.789865-223.532443 57.771498-10.656278 115.020536-18.722979 199.670416-28.903848 78.391978-9.427891 142.825944-24.5787586 201.581484-49.1124819 10.120695-4.228906 20.274769-7.7249492 34.281951-12.0219853 2.482576-.761589 5.026414-1.5314341 8.453815-2.561105l-.025725.0077314.023815-.0071126c.385885-.1156685 4.142285-1.2428832 6.678028-2.0049212l.719511-.2162793c.44914-.1350471.831089-.2499802 1.109118-.3337856 6.903301-2.0808432 12.148832-3.7015889 17.433296-5.4043698 27.675586-8.9177372 55.317212 13.7368801 52.007901 42.624811zm-86.339256 52.3134993-.49468.196259c-1.022436.405171-2.024303.812943-3.013456 1.226258-66.333411 27.697909-137.699737 44.478837-222.863186 54.721107-83.122606 9.997183-138.950641 17.863657-194.706404 28.148121-99.250137 18.32025-182.663353 85.854669-229.660996 180.454403-45.211527 91.00453-49.905396 194.025737-10.986398 275.686378 49.18918-47.59858 116.633055-97.270987 202.468848-149.379009 18.884086-11.463893 43.485983-5.448638 54.949875 13.435447 11.463893 18.884086 5.448638 43.485983-13.435447 54.949875-84.513923 51.305559-149.1503 99.372188-193.757209 143.791187-.719369.716338-1.439455 1.438389-2.160257 2.166151l-.191649-.21729c2.498691 2.852333 4.880318 5.525523 6.948636 7.806058l.810153.890767c.396256.434406.778933.851968 1.146462 1.250976.714581.775788 1.339882 1.446424 1.844427 1.979738l.557292.443158c71.313526 56.099388 148.481603 74.674481 235.509434 57.324188l2.667201-.542352c138.358902-28.665468 229.830661-108.474468 277.596911-242.062974 34.376383-96.156999 57.751492-199.71273 73.261035-317.3332l.233419-1.773719.232401-1.774157c.154617-1.183098.308624-2.367033.462157-3.552894l.229962-1.780371c3.176703-24.652217 6.179069-50.368042 10.231579-86.878791.115859-1.04382.269642-2.432347.450358-4.065777l.092552-.836662c.33143-2.996512.739732-6.692098 1.165999-10.551874l.118823-1.075958.119466-1.081856z"/></svg>