<svg height="960" viewBox="0 0 960 960" width="960" xmlns="http://www.w3.org/2000/svg"><path d="m395.246154 0c142.35036 0 272.102083 73.8774344 346.555624 190.365607l7.700268-77.963286c1.08577-10.992201 10.876901-19.0229495 21.869101-17.937179 10.992201 1.0857704 19.02295 10.876901 17.937179 21.869102l-14.346923 145.246416c-1.297616 13.136894-14.741774 21.435365-27.066754 16.707085l-131.581755-50.479225c-10.312839-3.956354-15.465787-15.523821-11.509432-25.836659 3.956354-10.312839 15.523821-15.465787 25.836659-11.509432l84.118364 32.268984c-65.965577-111.415475-186.707365-182.731413-319.512331-182.731413-135.299127 0-256.687278 70.996516-321.6239146 183.122419l85.1442926-32.65999c10.312838-3.956355 21.880305 1.196593 25.836659 11.509432 3.956355 10.312838-1.196593 21.880305-11.509432 25.836659l-131.5817548 50.479225c-12.3249803 4.72828-25.7691386-3.570191-27.0667541-16.707085l-14.34692365-145.246416c-1.08577045-10.992201 6.94497816-20.7833316 17.93717905-21.869102 10.9922009-1.0857705 20.7833312 6.944978 21.8691017 17.937179l7.5730017 76.709235c73.7974841-116.2801652 203.7764001-189.111556 347.7685451-189.111556z" transform="matrix(0 1 -1 0 642.8291 85.6687)"/></svg>