<svg height="960" viewBox="0 0 960 960" width="960" xmlns="http://www.w3.org/2000/svg"><g fill="#000" fill-rule="nonzero"><path d="m676.772037 593.946464-164.656108-313.584292c-13.596184-25.816229-50.590451-25.816229-64.186635 0l-164.735156 313.584292c-12.647612 24.079358 4.821903 53.053536 32.093318 53.053536h164.735155 164.656109c27.271415 0 44.819977-28.895229 32.093317-53.053536zm-214.614179-203.450836c0-10.184384 8.220949-18.39505 18.418087-18.39505 10.197137 0 18.418086 8.210666 18.418086 18.39505v105.712328c0 10.184384-8.220949 18.395051-18.418086 18.395051-10.197138 0-18.418087-8.210667-18.418087-18.395051zm17.864753 202.898195c-14.702849 0-26.559986-11.921256-26.559986-26.526768 0-14.684461 11.936184-26.526768 26.559986-26.526768 14.70285 0 26.559987 11.921256 26.559987 26.526768s-11.936184 26.526768-26.559987 26.526768z"/><path d="m98.1355019 5.85123376c7.8141481 7.80682214 7.8200861 20.47012034.0132643 28.28426814-35.6064224 35.6398346-58.1487662 84.2064061-58.1487662 137.3644981 0 53.16342 22.5428796 101.731147 58.1475868 137.363318 7.8074742 7.813496 7.8025922 20.476795-.0109044 28.284269-7.8134965 7.807474-20.4767951 7.802592-28.2842692-.010905-42.7202293-42.753181-69.8524132-101.208379-69.8524132-165.636682 0-64.422521 27.1310112-122.8751918 69.8512337-165.63550187 7.8068222-7.81414783 20.4701203-7.82008649 28.2842682-.01326437zm48.5574771 42.92410644c8.960633 6.4586723 10.988872 18.9584884 4.530199 27.9191206-20.781574 28.8319392-32.224659 60.8984482-32.224659 94.8055392s11.443085 65.9736 32.224659 94.805539c6.458673 8.960632 4.430434 21.460448-4.530199 27.919121-8.960632 6.458672-21.460448 4.430433-27.91912-4.530199-25.4670884-35.332526-39.7753404-75.427981-39.7753404-118.194461s14.308252-82.8619345 39.7753404-118.1944608c6.458672-8.9606322 18.958488-10.9888714 27.91912-4.530199zm707.171519-42.92410644c7.814148-7.80682212 20.477446-7.80088346 28.284268.01326437 42.720223 42.76031007 69.851234 101.21298087 69.851234 165.63550187 0 64.428303-27.132184 122.883501-69.852413 165.636682-7.807474 7.813497-20.470773 7.818379-28.284269.010905-7.813497-7.807474-7.818379-20.470773-.010905-28.284269 35.604707-35.632171 58.147587-84.199898 58.147587-137.363318 0-53.158092-22.542344-101.7246635-58.148766-137.3644981-7.806822-7.8141478-7.800884-20.477446.013264-28.28426814zm-48.558959 42.92410644c8.960632-6.4586724 21.460448-4.4304332 27.919121 4.530199 25.467088 35.3325263 39.77534 75.4279808 39.77534 118.1944608s-14.308252 82.861935-39.77534 118.194461c-6.458673 8.960632-18.958489 10.988871-27.919121 4.530199-8.960632-6.458673-10.988871-18.958489-4.530199-27.919121 20.781575-28.831939 32.22466-60.898448 32.22466-94.805539s-11.443085-65.9736-32.22466-94.8055392c-6.458672-8.9606322-4.430433-21.4604483 4.530199-27.9191206z" transform="translate(3.9992 309)"/></g></svg>