<?xml version="1.0" encoding="UTF-8"?>
<svg width="957" height="1001.4" version="1.1" viewBox="0 0 957 1001.4" xmlns="http://www.w3.org/2000/svg">
 <g transform="translate(-2 28.089)">
  <path d="m479 106-4.7911 0.0336c-153.09 2.1487-284.27 107.11-321.65 252.95l-0.80245 3.2218-1.0955 0.46123c-89.126 38.109-148.66 126.1-148.66 225.33 0 135.31 109.69 245 245 245h467.16l3.883-0.0328c133.61-2.1662 240.95-111.17 240.95-244.97l-0.0199-3.138c-1.2566-99.247-62.042-186.7-151.96-223.59l-1.1161-0.44908-0.76689-3.0355c-38.2-146.77-171.45-251.79-326.13-251.79zm0 40 4.2099 0.0294 4.1974 0.0881c135.51 3.7934 250.82 99.001 280.99 229.8l0.90599 4.0566c1.4391 6.6621 6.169 12.124 12.536 14.507l0.36211 0.13162c81.305 28.671 136.8 105.76 136.8 193.39l-0.0269 3.3523c-1.7539 109.3-89.124 198.02-198.23 201.54l-3.3043 0.07963-3.602 0.029h-466.84c-113.22 0-205-91.782-205-205 0-85.626 52.983-161.26 131.45-191.42l2.3857-0.89995c6.3132-2.3369 11.019-7.689 12.538-14.229l0.0841-0.37864c28.86-136.12 149.59-235.07 290.54-235.07z"/>
  <g stroke-width="1.274">
   <path d="m279.45-28.089c9.5001 0 17.199 7.7058 17.199 17.204 0 9.4977-7.699 17.195-17.199 17.195s-17.199-7.697-17.199-17.195c0-9.4977 7.699-17.204 17.199-17.204z"/>
   <path d="m666.75-28.089c9.5001 0 17.199 7.7058 17.199 17.204 0 9.4977-7.699 17.195-17.199 17.195-9.5001 0-17.199-7.697-17.199-17.195 0-9.4977 7.699-17.204 17.199-17.204z"/>
   <path d="m479.47-28.089c9.5001 0 17.199 7.7058 17.199 17.204 0 9.4977-7.699 17.195-17.199 17.195-9.5001 0-17.199-7.697-17.199-17.195 0-9.4977 7.699-17.204 17.199-17.204z"/>
   <path d="m186.45 31.789c9.5001 0 17.199 7.7058 17.199 17.204 0 9.4977-7.699 17.195-17.199 17.195-9.5001 0-17.199-7.697-17.199-17.195 0-9.4977 7.699-17.204 17.199-17.204z"/>
   <path d="m761.03 31.789c9.5001 0 17.199 7.7058 17.199 17.204 0 9.4977-7.699 17.195-17.199 17.195-9.5001 0-17.199-7.697-17.199-17.195 0-9.4977 7.699-17.204 17.199-17.204z"/>
   <path d="m573.75 31.789c9.5001 0 17.199 7.7058 17.199 17.204 0 9.4977-7.699 17.195-17.199 17.195-9.5001 0-17.199-7.697-17.199-17.195 0-9.4977 7.699-17.204 17.199-17.204z"/>
   <path d="m386.47 31.789c9.5001 0 17.199 7.7058 17.199 17.204 0 9.4977-7.699 17.195-17.199 17.195-9.5001 0-17.199-7.697-17.199-17.195 0-9.4977 7.699-17.204 17.199-17.204z"/>
   <path d="m480.75 285.32c9.5001 0 17.199 7.699 17.199 17.199s-7.699 17.199-17.199 17.199c-9.5001 0-17.199-7.699-17.199-17.199s7.699-17.199 17.199-17.199z"/>
   <path d="m386.47 345.19c9.4977 0 17.195 7.7058 17.195 17.204 0 9.4977-7.697 17.195-17.195 17.195-9.4977 0-17.204-7.697-17.204-17.195 0-9.4977 7.7058-17.204 17.204-17.204z"/>
   <path d="m573.75 345.19c9.5001 0 17.199 7.7058 17.199 17.204 0 9.4977-7.699 17.195-17.199 17.195-9.5001 0-17.199-7.697-17.199-17.195 0-9.4977 7.699-17.204 17.199-17.204z"/>
   <path d="m666.75 405.07c9.5001 0 17.199 7.7058 17.199 17.204 0 9.4977-7.699 17.195-17.199 17.195-9.5001 0-17.199-7.697-17.199-17.195 0-9.4977 7.699-17.204 17.199-17.204z"/>
   <path d="m480.75 405.07c9.5001 0 17.199 7.7058 17.199 17.204 0 9.4977-7.699 17.195-17.199 17.195-9.5001 0-17.199-7.697-17.199-17.195 0-9.4977 7.699-17.204 17.199-17.204z"/>
   <path d="m293.47 405.07c9.4977 0 17.195 7.7058 17.195 17.204 0 9.4977-7.697 17.195-17.195 17.195-9.4977 0-17.204-7.697-17.204-17.195 0-9.4977 7.7058-17.204 17.204-17.204z"/>
   <path d="m573.75 464.95c9.5001 0 17.199 7.697 17.199 17.204 0 9.4977-7.699 17.195-17.199 17.195-9.5001 0-17.199-7.697-17.199-17.195 0-9.5065 7.699-17.204 17.199-17.204z"/>
   <path d="m386.47 464.95c9.4977 0 17.195 7.697 17.195 17.204 0 9.4977-7.697 17.195-17.195 17.195-9.4977 0-17.204-7.697-17.204-17.195 0-9.5065 7.7058-17.204 17.204-17.204z"/>
   <path d="m480.75 524.83c9.5001 0 17.199 7.697 17.199 17.195 0 9.4977-7.699 17.204-17.199 17.204-9.5001 0-17.199-7.7058-17.199-17.204 0-9.4977 7.699-17.195 17.199-17.195z"/>
   <path d="m279.45 879c9.5001 0 17.199 7.7058 17.199 17.204s-7.699 17.195-17.199 17.195-17.199-7.697-17.199-17.195 7.699-17.204 17.199-17.204z"/>
   <path d="m92.174 879c9.5001 0 17.199 7.7058 17.199 17.204s-7.699 17.195-17.199 17.195c-9.5001 0-17.199-7.697-17.199-17.195s7.699-17.204 17.199-17.204z"/>
   <path d="m854.03 879c9.5001 0 17.199 7.7058 17.199 17.204s-7.699 17.195-17.199 17.195c-9.5001 0-17.199-7.697-17.199-17.195s7.699-17.204 17.199-17.204z"/>
   <path d="m666.75 879c9.5001 0 17.199 7.7058 17.199 17.204s-7.699 17.195-17.199 17.195c-9.5001 0-17.199-7.697-17.199-17.195s7.699-17.204 17.199-17.204z"/>
   <path d="m479.47 879c9.5001 0 17.199 7.7058 17.199 17.204s-7.699 17.195-17.199 17.195c-9.5001 0-17.199-7.697-17.199-17.195s7.699-17.204 17.199-17.204z"/>
   <path d="m186.45 938.88c9.5001 0 17.199 7.7058 17.199 17.204s-7.699 17.195-17.199 17.195c-9.5001 0-17.199-7.697-17.199-17.195s7.699-17.204 17.199-17.204z"/>
   <path d="m761.03 938.88c9.5001 0 17.199 7.7058 17.199 17.204s-7.699 17.195-17.199 17.195c-9.5001 0-17.199-7.697-17.199-17.195s7.699-17.204 17.199-17.204z"/>
   <path d="m573.75 938.88c9.5001 0 17.199 7.7058 17.199 17.204s-7.699 17.195-17.199 17.195c-9.5001 0-17.199-7.697-17.199-17.195s7.699-17.204 17.199-17.204z"/>
   <path d="m386.47 938.88c9.5001 0 17.199 7.7058 17.199 17.204s-7.699 17.195-17.199 17.195c-9.5001 0-17.199-7.697-17.199-17.195s7.699-17.204 17.199-17.204z"/>
  </g>
 </g>
</svg>
