<svg viewBox="0 0 48 48" xmlns="http://www.w3.org/2000/svg"><path d="M39.837 24.47c.6 0 1.084.484 1.084 1.083 0 1.999 1.696 4.034 2.82 5.382.326.386.604.721.824 1.026.24.332.748 1.138.81 1.23.602.954.907 2.11.907 3.433 0 3.553-2.89 6.445-6.442 6.445a6.453 6.453 0 0 1-6.444-6.445c0-1.293.29-2.462.843-3.376.149-.25.684-1.036.921-1.358.213-.288.47-.6.772-.959 1.125-1.344 2.821-3.383 2.821-5.378 0-.599.484-1.083 1.084-1.083Zm-15.213-.004c.6 0 1.084.485 1.084 1.084 0 1.998 1.697 4.034 2.821 5.381.325.387.603.722.823 1.027.25.348.786 1.195.806 1.226.603.955.908 2.11.908 3.434 0 3.552-2.89 6.444-6.442 6.444a6.453 6.453 0 0 1-6.445-6.444c0-1.294.292-2.463.844-3.377.152-.25.687-1.036.924-1.358.214-.284.471-.596.772-.955l.305-.366c1.102-1.333 2.516-3.19 2.516-5.012 0-.6.485-1.084 1.084-1.084ZM24.038 5c7.725 0 14.522 5.337 16.392 12.771 3.755 1.443 6.617 4.694 7.542 8.626a1.085 1.085 0 0 1-2.114.498 10.13 10.13 0 0 0-6.688-7.268 1.081 1.081 0 0 1-.725-.806c-1.433-6.753-7.491-11.654-14.407-11.654-6.952 0-13.018 4.935-14.423 11.728a1.086 1.086 0 0 1-.705.803 10.091 10.091 0 0 0-6.743 9.513c0 5.473 4.281 9.896 9.75 10.075.028.004.058.004.085.007h1.758a1.083 1.083 0 1 1 0 2.167h-1.876c-.058 0-.109-.006-.163-.013A12.191 12.191 0 0 1 0 29.21c0-4.988 3.038-9.472 7.623-11.342C9.46 10.378 16.266 5 24.038 5Z" fill="#000000" fill-rule="evenodd"/></svg>
