<svg height="960" viewBox="0 0 960 960" width="960" xmlns="http://www.w3.org/2000/svg"><path d="m273.401922 74.8101841c65.850519 248.3033259 293.674846 423.9673929 551.828847 424.0533179 23.6584 0 47.293733-1.468857 70.73175-4.39811 27.641641-3.454618 50.261906 21.69726 43.905189 48.818964-49.67318 211.936624-237.169489 360.631519-456.544631 360.631519-258.73626 0-469.1384616-210.397639-469.1384616-469.065441 0-153.385485 72.867614-294.20448 197.4350366-382.4289398 22.766589-16.12436 54.630815-4.5773857 61.78227 22.3886899zm-38.66346 10.253624c-113.63077 80.4786119-180.5538466 208.9490559-180.5538466 349.7866259 0 236.544359 192.4615386 429.065441 429.1384616 429.065441 201.692308 0 372.369231-136.776722 417.6-329.759264-25.107692 3.137927-50.4 4.706891-75.692308 4.706891-277.292307-.092292-520.246154-188.921695-590.492307-453.7996939zm535.428805 187.1450309 7.015798 21.504845c1.619031 4.855933 6.167735 8.1703 11.333213 8.1703h22.589328c11.487405 0 16.2674 14.721955 7.015798 21.504845l-18.271914 13.257468c-4.163221 3.006054-5.936445 8.401534-4.317414 13.257467l7.015798 21.504846c3.546447 10.945118-8.943215 20.040358-18.271914 13.257467l-18.271914-13.257467c-4.163221-3.006054-9.791279-3.006054-13.954499 0l-18.271914 13.257467c-9.328699 6.782891-21.818362-2.312349-18.271914-13.257467l7.015798-21.504846c1.61903-4.855933-.154193-10.251413-4.317414-13.257467l-18.271914-13.257468c-9.328699-6.78289-4.548704-21.504845 7.015798-21.504845h22.589328c5.165478 0 9.714182-3.314367 11.333213-8.1703l7.015798-21.504845c3.23806-10.945119 18.734494-10.945119 22.280941 0zm-172.12537-193.4683252 10.848278 33.3597772c2.46202 7.609718 9.540329 12.75973 17.541896 12.75973h35.083793c17.84965 0 25.312649 22.829156 10.848279 33.359777l-28.390175 20.600046c-6.462804 4.688817-9.155639 12.990328-6.693619 20.600047l10.848279 33.359777c5.539546 16.987351-13.925804 31.130667-28.390175 20.600046l-28.390175-20.600046c-6.462804-4.688817-15.233752-4.688817-21.696556 0l-28.390175 20.600046c-14.464371 10.530621-33.929721-3.612695-28.390175-20.600046l10.848279-33.359777c2.46202-7.609719-.230815-15.91123-6.693619-20.600047l-28.390175-20.600046c-14.46437-10.530621-7.001371-33.359777 10.848279-33.359777h35.083793c8.001567 0 15.079876-5.150012 17.541896-12.75973l10.848278-33.3597772c5.539547-16.9873517 29.544247-16.9873517 35.083794 0z"/></svg>