<svg viewBox="0 0 960 960" xmlns="http://www.w3.org/2000/svg"><g fill="none" fill-rule="evenodd" stroke="#000"><path d="M521 895c0 15.599-3.667 25.599-11 30m67-38c0 14.559-3.667 23.892-11 28m-63-19c0 18.37-1 28.37-3 30m40-32c0 14.559-3.667 23.892-11 28m29-30c0 14.039-3.667 23.039-11 27m48-35c0 14.559-3.667 23.892-11 28m30-32c0 15.599-3.667 25.599-11 30m28-34c0 15.599-3.667 25.599-11 30m29-36c0 15.599-3.667 25.599-11 30m31-37c0 15.599-3.667 25.599-11 30m29-38c0 15.599-3.667 25.599-11 30m29-37c0 15.599-3.667 25.599-11 30m29-41c0 15.599-3.667 25.599-11 30" stroke-width="10"/><g fill="#000"><circle cx="491" cy="552" r="10.5"/><circle cx="491" cy="700" r="10.5"/><circle cx="490" cy="737" r="10.5"/><circle cx="490" cy="774" r="10.5"/><circle cx="491" cy="811" r="10.5"/><circle cx="491" cy="848" r="10.5"/><circle cx="491" cy="663" r="10.5"/><circle cx="491" cy="626" r="10.5"/><circle cx="490" cy="589" r="10.5"/><circle cx="525" cy="571" r="10.5"/><circle cx="525" cy="719" r="10.5"/><circle cx="524" cy="756" r="10.5"/><circle cx="524" cy="793" r="10.5"/><circle cx="525" cy="830" r="10.5"/><circle cx="525" cy="682" r="10.5"/><circle cx="525" cy="645" r="10.5"/><circle cx="524" cy="608" r="10.5"/><circle cx="595" cy="560" r="10.5"/><circle cx="595" cy="708" r="10.5"/><circle cx="594" cy="745" r="10.5"/><circle cx="594" cy="782" r="10.5"/><circle cx="595" cy="819" r="10.5"/><circle cx="595" cy="671" r="10.5"/><circle cx="595" cy="634" r="10.5"/><circle cx="594" cy="597" r="10.5"/><circle cx="456" cy="570" r="10.5"/><circle cx="456" cy="718" r="10.5"/><circle cx="455" cy="755" r="10.5"/><circle cx="455" cy="792" r="10.5"/><circle cx="456" cy="829" r="10.5"/><circle cx="456" cy="681" r="10.5"/><circle cx="456" cy="644" r="10.5"/><circle cx="455" cy="607" r="10.5"/><circle cx="559" cy="547" r="10.5"/><circle cx="559" cy="695" r="10.5"/><circle cx="558" cy="732" r="10.5"/><circle cx="558" cy="769" r="10.5"/><circle cx="559" cy="806" r="10.5"/><circle cx="559" cy="843" r="10.5"/><circle cx="559" cy="658" r="10.5"/><circle cx="559" cy="621" r="10.5"/><circle cx="558" cy="584" r="10.5"/><circle cx="420" cy="547" r="10.5"/><circle cx="420" cy="695" r="10.5"/><circle cx="419" cy="732" r="10.5"/><circle cx="419" cy="769" r="10.5"/><circle cx="420" cy="806" r="10.5"/><circle cx="420" cy="843" r="10.5"/><circle cx="420" cy="658" r="10.5"/><circle cx="420" cy="621" r="10.5"/><circle cx="419" cy="584" r="10.5"/><circle cx="383" cy="560" r="10.5"/><circle cx="383" cy="708" r="10.5"/><circle cx="382" cy="745" r="10.5"/><circle cx="382" cy="782" r="10.5"/><circle cx="383" cy="819" r="10.5"/><circle cx="383" cy="671" r="10.5"/><circle cx="383" cy="634" r="10.5"/><circle cx="382" cy="597" r="10.5"/><circle cx="345" cy="682" r="10.5"/><circle cx="344" cy="719" r="10.5"/><circle cx="344" cy="756" r="10.5"/><circle cx="345" cy="793" r="10.5"/><circle cx="345" cy="830" r="10.5"/><circle cx="345" cy="645" r="10.5"/><circle cx="345" cy="608" r="10.5"/><circle cx="344" cy="571" r="10.5"/><circle cx="308" cy="547" r="10.5"/><circle cx="308" cy="695" r="10.5"/><circle cx="307" cy="732" r="10.5"/><circle cx="307" cy="769" r="10.5"/><circle cx="308" cy="806" r="10.5"/><circle cx="308" cy="658" r="10.5"/><circle cx="308" cy="621" r="10.5"/><circle cx="307" cy="584" r="10.5"/><circle cx="272" cy="650" r="10.5"/><circle cx="271" cy="687" r="10.5"/><circle cx="271" cy="724" r="10.5"/><circle cx="272" cy="761" r="10.5"/><circle cx="272" cy="798" r="10.5"/><circle cx="272" cy="613" r="10.5"/><circle cx="272" cy="576" r="10.5"/><circle cx="271" cy="539" r="10.5"/><circle cx="235" cy="515" r="10.5"/><circle cx="235" cy="663" r="10.5"/><circle cx="234" cy="700" r="10.5"/><circle cx="234" cy="737" r="10.5"/><circle cx="235" cy="774" r="10.5"/><circle cx="235" cy="626" r="10.5"/><circle cx="235" cy="589" r="10.5"/><circle cx="234" cy="552" r="10.5"/><circle cx="344" cy="539" r="10.5"/><circle cx="664" cy="552" r="10.5"/><circle cx="664" cy="700" r="10.5"/><circle cx="663" cy="737" r="10.5"/><circle cx="663" cy="774" r="10.5"/><circle cx="664" cy="811" r="10.5"/><circle cx="664" cy="663" r="10.5"/><circle cx="664" cy="626" r="10.5"/><circle cx="663" cy="589" r="10.5"/><circle cx="628" cy="539" r="10.5"/><circle cx="628" cy="687" r="10.5"/><circle cx="627" cy="724" r="10.5"/><circle cx="627" cy="761" r="10.5"/><circle cx="628" cy="798" r="10.5"/><circle cx="628" cy="835" r="10.5"/><circle cx="628" cy="650" r="10.5"/><circle cx="628" cy="613" r="10.5"/><circle cx="627" cy="576" r="10.5"/><circle cx="732" cy="504" r="10.5"/><circle cx="732" cy="652" r="10.5"/><circle cx="731" cy="689" r="10.5"/><circle cx="731" cy="726" r="10.5"/><circle cx="732" cy="763" r="10.5"/><circle cx="732" cy="615" r="10.5"/><circle cx="732" cy="578" r="10.5"/><circle cx="731" cy="541" r="10.5"/><circle cx="696" cy="639" r="10.5"/><circle cx="695" cy="676" r="10.5"/><circle cx="695" cy="713" r="10.5"/><circle cx="696" cy="750" r="10.5"/><circle cx="696" cy="787" r="10.5"/><circle cx="696" cy="602" r="10.5"/><circle cx="696" cy="565" r="10.5"/><circle cx="695" cy="528" r="10.5"/></g><path d="M187.924 787.243c12.05 96.63 109.38 143.582 291.988 140.852S759.85 879.425 771.9 790.278l-18.88-664.306C742.95 59.992 651.61 27.001 479 27.001s-263.224 32.99-271.84 98.971z" stroke-width="40"/><path d="M450.226 896.617c0 18.144.944 28.022 2.832 29.632" stroke-width="10"/><path d="M198.179 768.787c34.626 71.852 130.25 107.778 286.872 107.778s252.247-44.9 286.873-134.7" stroke-width="20"/><ellipse cx="479.131" cy="84.971" rx="235.952" ry="47.97" stroke-width="20"/><path d="m661.912 38 .054 46.324L662 114M479.912 27l.054 64.55.034 41.354M505.912 27l.054 64.55.034 41.354M531.912 27l.054 64.55.034 41.354M557.912 27l.054 64.55.034 41.354M583.912 27l.054 64.55.034 41.354M609.912 27l.054 59.733.034 38.268M635.912 27l.054 59.733.034 38.268m51.912-79.097.054 37.18.034 23.82M453.912 27l.054 64.55.034 41.354M427.912 27l.054 64.55.034 41.354M401.912 27l.054 64.55.034 41.354M375.912 27l.054 64.55.034 41.354M349.912 27l.054 64.55.034 41.354M323.912 27l.054 57.295.034 36.706m-26.088-79.097.054 43.275.034 27.725M271.912 42l.054 40.229L272 108m-66.658 332.859c35.686 53.743 126.966 80.615 273.839 80.615s238.152-26.872 273.838-80.615" stroke-width="20"/><path d="m470 897-.348 30.923m16.848-30.751-.348 30.923m-54.926-32.478c0 18.144.944 28.022 2.832 29.632M394 893c0 16.119 3.667 26.452 11 31m-65-41c0 15.079 3.667 24.746 11 29m61-18c0 18.982 1 29.316 3 31m-39-34c0 15.079 3.667 24.746 11 29m-29-32c0 14.559 3.667 23.892 11 28m-47-38c0 15.079 3.667 24.746 11 29m-29-35c0 16.119 3.667 26.452 11 31m-29-38c0 16.119 3.667 26.452 11 31m-28-40c0 16.119 3.667 26.452 11 31m-31-44c0 16.119 3.667 26.452 11 31m-28-44c0 16.119 3.667 26.452 11 31" stroke-width="10"/><path d="M546 444.892v35.76c-28.632 1.88-50.465 2.826-65.5 2.826s-36.868-.946-65.5-2.826v-35.76c21.833 1.724 43.667 2.586 65.5 2.586s43.667-.862 65.5-2.586z" stroke-width="20"/></g></svg>