<svg viewBox="0 0 960 960" xmlns="http://www.w3.org/2000/svg"><g fill="none" fill-rule="evenodd"><path d="m358.134 719.189-.43-.364c-18.297-13.823-19.553-37.981-19.553-42.421v-41.599c0-47.49-42.845-161.611-71.458-203.377-28.614-41.766-45.372-92.332-45.372-146.831 0-143.414 115.957-259.675 259-259.675 143.041 0 259 116.26 259 259.675 0 55.497-17.377 106.916-46.955 149.116-29.578 42.2-69.876 153.601-69.876 201.092v41.599c0 4.44-1.165 28.421-19.462 42.244l-.521.54s-14.882 20.606-19.157 30.401c-4.276 9.796-5.182 17.399-6.436 24.065-1.253 7.617-2.172 16.1-3.092 25.277-.39 6.752-.891 17.082-1.504 30.99-.223 15.177-.223 26.228 0 33.153l-36.015 41.725-23.482 21.208-.585.346c-4.262 3.808-8.523 7.618-30.835 8.569h-.335c-21.977-.951-26.238-4.761-30.5-8.57l-.586-.345-23.481-21.208-36.016-41.725c.334-10.388.334-21.467 0-33.153-.251-10.13-.92-20.862-1.504-30.99-.92-9.177-1.838-17.66-3.092-25.277-.692-3.94-.205-6.046-5.202-20.645s-22.55-33.82-22.55-33.82z" stroke="#000" stroke-linejoin="round" stroke-width="40"/><path d="M619.32 704.922a50.422 50.422 0 0 1-3.833 2.227c-21.142 11.081-130.512 11.773-130.512 11.773h-7.309s-109.37-.692-130.512-11.773a50.422 50.422 0 0 1-3.833-2.227" stroke="#000" stroke-linecap="round" stroke-linejoin="round" stroke-width="20"/><path d="M387.372 839.922c-7.393 36 24.186 54 94.737 54s100.618-18 90.201-54c-28.501 5.729-58.525 8.593-90.072 8.593s-63.168-2.864-94.866-8.593z" fill="#000"/><g stroke="#000" stroke-linejoin="round"><path d="M386.32 751.922c28.159 5.333 68.825 8 122 8m-122 23c28.159 5.333 68.825 8 122 8m-122 24c28.159 5.333 68.825 8 122 8m69.107-438.792c-.434-16.415-.917-27.723-1.45-33.926-2.158-25.154-9.005-48.695-24.364-48.695-12.389 0-45.572 54.266-52.622 82.991-11.255 45.857 2.82 84.5 14.024 84.5 20.458 0 37.043-37.832 37.043-84.5S533.473 300 513.015 300m64.5 84.5c0 64.101-41.515 142.486-41.515 209.157 0 30.32-.692 58.268-2.077 83.843" stroke-linecap="round" stroke-width="20"/><path d="M513.015 300c-18.933 0-50.714 46.625-60.01 84.5-11.254 45.857 2.82 84.5 14.024 84.5 20.459 0 37.044-37.832 37.044-84.5S487.488 300 467.029 300" stroke-linecap="round" stroke-width="20"/><path d="M467.03 300c-18.933 0-50.714 46.625-60.01 84.5-11.255 45.857 2.82 84.5 14.024 84.5 20.459 0 37.044-37.832 37.044-84.5S441.503 300 421.044 300C400.585 300 384 337.832 384 384.5m0 0c0 56.098 31.795 123.135 39.735 183.687 1.132 8.639 1.78 17.145 1.78 25.47V677.5" stroke-linecap="round" stroke-width="20"/><path d="M349 635.579c38.662 5.368 74.607 8.278 107.836 8.73 34.727.472 3.953.38 38.687.094 36.233-.299 75.059-3.24 116.477-8.824l-1.99 51.998-27.534 31.002H370.72z" fill="#000" stroke-linecap="square" stroke-width="15"/></g></g></svg>