<?xml version="1.0" encoding="UTF-8"?>
<svg width="600px" height="600px" viewBox="0 0 600 600" version="1.1" xmlns="http://www.w3.org/2000/svg">
    <title>drivers/light/assets/icon</title>
    <g id="/drivers/light/assets/icon" stroke="none" stroke-width="1" fill="none" fill-rule="evenodd">
        <g id="icon" transform="translate(141, 24)" stroke="#000000">
            <g id="Group" transform="translate(103.6206, 436.457)">
                <g id="Path" stroke-linecap="round">
                    <path d="M4.22871434,15.0984683 C21.6603069,18.1663623 73.5698177,22.9496718 104.509654,22.9496718" stroke-width="13.8"></path>
                    <path d="M7.24922458,39.2560175 C26.9838413,42.5183693 75.177799,47.107221 104.509654,47.107221" stroke-width="13.8"></path>
                    <path d="M0,0 C3.47731733,9.63474649 5.21597599,21.2862447 5.21597599,34.9544945 L5.21597599,66.1408695 C23.2201765,91.9743898 38.7923417,106.04962 51.9324716,108.366561 C52.5115208,108.468662 54.6754641,108.708972 56.4835415,108.708972 C58.7178896,108.708972 60.6644756,108.442659 61.4617616,108.287269 C74.5118242,105.743823 89.941606,91.6950229 107.751107,66.1408695 C107.751107,59.0182026 107.751107,48.6227443 107.751107,34.9544945 C107.751107,21.2862447 109.489766,9.63474649 112.967083,0" stroke-width="18.4" stroke-linejoin="round"></path>
                </g>
                <path d="M109.342471,64.0175055 L103.712258,71.5352708 C96.7789937,86.2653069 90.3972584,93.7099726 84.5670539,93.8692669 C76.1447555,94.0993839 67.2709205,94.2144421 57.9455491,94.2144421 C57.5476483,94.2144421 57.1609232,94.1917521 56.7853738,94.147647 C56.4106735,94.1917279 56.0237485,94.2144421 55.625636,94.2144421 C46.3002645,94.2144421 37.4264297,94.0993839 29.0041314,93.8692669 C23.1739264,93.7099726 16.7921915,86.2653069 9.85892664,71.5352708 L4.22871434,64.0175055 C19.4849423,64.9736118 36.6172496,65.4516649 55.625636,65.4516649 C56.0237485,65.4516649 56.4106735,65.4743791 56.7864109,65.5185306 C57.1609232,65.4743549 57.5476483,65.4516649 57.9455491,65.4516649 C76.9539357,65.4516649 94.0862426,64.9736118 109.342471,64.0175055 L109.342471,64.0175055 Z" id="Path" stroke-width="1.84" fill="#000000" fill-rule="nonzero"></path>
            </g>
            <g id="Group" stroke-linecap="round" stroke-linejoin="round">
                <path d="M159.5,0 C71.4105824,0 0,71.3629553 0,159.393622 C0,196.334823 12.5752492,230.340876 33.6811968,257.369927 L34.026214,257.943674 C73.4774045,309.029481 94.5542761,349.741137 96.9872627,378.505644 L96.9872627,426.790566 L222.003795,426.790566 L222.003795,378.505243 C224.342185,349.857825 244.607671,310.099101 284.039143,259.022798 L285.949419,256.556966 C306.674998,229.660461 319,195.965411 319,159.393622 C319,71.3629553 247.589418,0 159.5,0 Z" id="Path" stroke-width="36.8"></path>
                <path d="M96.8807547,428.834139 C100.610771,443.166369 102.475778,457.671047 102.475778,472.348172 C102.475778,487.025298 102.662279,497.668309 103.03528,504.277205 L133.6265,540.107231 C142.011235,548.035744 150.305214,552 158.508436,552" id="Path" stroke-width="36.8"></path>
                <path d="M159.750812,428.834139 C163.480827,443.166369 165.345836,457.671047 165.345836,472.348172 C165.345836,487.025298 165.532336,497.668309 165.905337,504.277205 L196.496557,540.107231 C204.881292,548.035744 213.175271,552 221.378493,552" id="Path" stroke-width="36.8" transform="translate(190.5647, 490.4171) scale(-1, 1) translate(-190.5647, -490.4171)"></path>
                <path d="M150.154056,167.100311 C138.71703,167.100311 119.518089,195.259008 113.902454,218.133134 C107.103308,245.828046 115.605499,269.165957 122.374181,269.165957 C134.733338,269.165957 144.752414,246.317783 144.752414,218.133134 C144.752414,189.948484 134.733338,167.100311 122.374181,167.100311 C110.015024,167.100311 99.9959482,189.948484 99.9959482,218.133134" id="Path" stroke-width="18.4"></path>
                <path d="M177.933932,167.100311 C166.496905,167.100311 147.297964,195.259008 141.68233,218.133134 C134.883183,245.828046 143.385374,269.165957 150.154056,269.165957 C162.513213,269.165957 172.532289,246.317783 172.532289,218.133134 C172.532289,189.948484 162.513213,167.100311 150.154056,167.100311" id="Path" stroke-width="18.4"></path>
                <path d="M216.845434,217.90948 C216.583444,207.99631 216.291643,201.166575 215.97003,197.420274 C214.665864,182.228739 210.52992,168.011573 201.251307,168.011573 C193.767159,168.011573 173.721175,200.785101 169.462205,218.133134 C162.663058,245.828046 171.165249,269.165957 177.933932,269.165957 C190.293088,269.165957 200.312164,246.317783 200.312164,218.133134 C200.312164,189.948484 190.293088,167.100311 177.933932,167.100311" id="Path" stroke-width="18.4"></path>
                <path d="M99.9959482,218.133134 C99.9959482,252.012714 119.203328,292.499191 123.999721,329.06854 C124.684031,334.285956 125.075003,339.423637 125.075003,344.451022 L125.075003,395.087182" id="Path" stroke-width="18.4"></path>
                <path d="M190.564652,218.133134 C190.564652,256.846376 215.643706,304.186235 215.643706,344.451022 C215.643706,362.762507 216.061975,379.641227 216.898514,395.087182" id="Path" stroke-width="18.4" transform="translate(203.7316, 306.6102) scale(-1, 1) translate(-203.7316, -306.6102)"></path>
            </g>
        </g>
    </g>
</svg>
