<?xml version="1.0" encoding="UTF-8"?>
<!-- Created with Inkscape (http://www.inkscape.org/) -->
<svg width="30.711mm" height="8.0047mm" version="1.1" viewBox="0 0 30.711 8.0047" xmlns="http://www.w3.org/2000/svg">
 <g transform="translate(-95.146 -99.214)">
  <g stroke-width=".26458" aria-label="TODO">
   <path d="m95.146 99.354h6.5267v0.8785h-2.7388v6.8368h-1.049v-6.8368h-2.7388z"/>
   <path d="m105.81 100.06q-1.1369 0-1.8087 0.84749-0.66662 0.84749-0.66662 2.3099 0 1.4573 0.66662 2.3048 0.6718 0.84749 1.8087 0.84749 1.1369 0 1.7983-0.84749 0.66662-0.84749 0.66662-2.3048 0-1.4624-0.66662-2.3099-0.66146-0.84749-1.7983-0.84749zm0-0.8475q1.6226 0 2.5942 1.0904 0.97152 1.0852 0.97152 2.9146 0 1.8242-0.97152 2.9145-0.97151 1.0852-2.5942 1.0852-1.6278 0-2.6045-1.0852-0.97151-1.0852-0.97151-2.9145 0-1.8293 0.97151-2.9146 0.97668-1.0904 2.6045-1.0904z"/>
   <path d="m112.05 100.21v5.9996h1.2609q1.5968 0 2.3358-0.72347 0.74413-0.72346 0.74413-2.2841 0-1.5503-0.74413-2.2686-0.73898-0.72346-2.3358-0.72346zm-1.0439-0.85783h2.1446q2.2428 0 3.2918 0.93534 1.049 0.93017 1.049 2.9145 0 1.9947-1.0542 2.93-1.0542 0.93534-3.2866 0.93534h-2.1446z"/>
   <path d="m122.29 100.06q-1.1369 0-1.8087 0.84749-0.66663 0.84749-0.66663 2.3099 0 1.4573 0.66663 2.3048 0.67179 0.84749 1.8087 0.84749 1.1369 0 1.7983-0.84749 0.66662-0.84749 0.66662-2.3048 0-1.4624-0.66662-2.3099-0.66146-0.84749-1.7983-0.84749zm0-0.8475q1.6226 0 2.5941 1.0904 0.97152 1.0852 0.97152 2.9146 0 1.8242-0.97152 2.9145-0.97151 1.0852-2.5941 1.0852-1.6278 0-2.6045-1.0852-0.97151-1.0852-0.97151-2.9145 0-1.8293 0.97151-2.9146 0.97668-1.0904 2.6045-1.0904z"/>
  </g>
 </g>
</svg>
