<svg height="960" viewBox="0 0 960 960" width="960" xmlns="http://www.w3.org/2000/svg"><path d="m127.208027 3.00469785 698.675125 29.29047795c29.989239 1.2572355 53.654378 25.9352731 53.654378 55.950854v775.0187392c0 29.695349-23.179474 54.227547-52.827121 55.910043l-675.210742 38.318011c-3.336.189317-6.682577-.040111-9.961529-.682922l-27.448994-5.381145c-26.2742244-5.150842-45.2267385-28.179598-45.2267385-54.953952v-837.5192522c0-.7821312.0163857-1.5641765.0491461-2.3456213 1.2954508-30.9008034 27.3956719-54.90068353 58.2964754-53.60523265zm-18.33158 55.28067645c-.014041.2232699-.014041.4467115-.014041.6701775v837.5192522c0 7.649815 5.415004 14.22946 12.921925 15.701129l18.309269 3.589788c-.478705-1.972673-.73241-4.033309-.73241-6.153201v-860.5878159c0-.242371 0-.4847302.010166-.7270064.045254-1.6178064.23736-3.1969533.563192-4.7250288l-14.401965-.6030754c-8.828801-.3701288-16.286007 6.4869798-16.656136 15.3157808zm50.484743-9.4284409v860.7555866c0 3.313708 2.686291 6 6 6 .116287 0 .23255 0 .348641-.010138l666.333586-38.783333c4.516189-2.838987 7.494113-7.864972 7.494113-13.55428v-775.0187392c0-8.5758803-6.761468-15.6267481-15.329822-15.9859583l-662.758239-27.7855428c-1.236393 1.0636748-2.037849 2.6240969-2.088279 4.3824047zm407.750564 211.9016086 2.785445-.051716c2.112131-.01837 4.232155.003933 6.359514.067544 105.369375 3.150652 190.168108 102.245398 190.168108 220.88701 0 118.641611-84.798733 217.736357-190.168108 220.887009-5.257703.157211-10.470602.06211-15.63028-.275717l.000136.348837h-49.859133c-108.072075 0-189.763305-96.16253-189.763305-220.960129 0-125.272018 82.668074-220.58662 193.965232-220.58662l-.151232.001392.849448-.019438c14.557843-.3224 26.543376-.488394 36.013869-.494461l1.170716.000075c5.700883.004473 10.449627.069604 14.25959.196214zm4.914198 19.944163-.027261.336728c-1.304479-.109941-2.946289-.20105-4.922748-.273163-90.509655 2.710147-165.217127 91.001005-165.217127 200.89511 0 113.349731 79.479704 203.716223 173.800144 200.895944 93.968951-2.809768 170.765861-92.553683 170.765861-200.895944 0-108.342262-76.79691-198.086177-170.765861-200.895945-1.213505-.036285-2.424554-.057145-3.633008-.06273zm-83.91368 2.514065-2.209118.374576c-84.637794 14.929273-144.899023 94.74204-144.899023 198.070034 0 106.09777 63.231003 188.23767 149.168111 199.612268-63.877043-35.501491-108.313426-111.526764-108.313426-199.612268 0-87.134946 43.482503-162.468547 106.253456-198.44461z"/></svg>