<svg height="960" viewBox="0 0 960 960" width="960" xmlns="http://www.w3.org/2000/svg"><path d="m120.057185-2.0079926 714.966059 35.522882c29.981034 1.5577544 54.470407 25.5496875 54.470407 56.1558074v757.3924032c0 29.857604-23.366959 53.575725-52.579813 56.04029l-.126195.010446-690.781318 56.076554c-3.730117.302805-7.484272.080641-11.152641-.659991l-29.596086-5.975362c-26.308741-5.303264-46.4357875-27.71795-46.4357875-55.181374v-843.0848507c0-1.5297642.0646419-3.0585444.193583-4.5823623 2.6425406-31.2305014 30.4633833-53.16425269 61.0417915-51.7144426zm-21.184218 55.086955c-.0340921.4028983-.0511565.8064696-.0511565 1.2098499v843.0848507c0 7.610397 5.9965865 14.288259 14.3399195 15.970091l20.571255 4.153202c-.629882-2.147039-.976648-4.408536-.997977-6.750543l-7.894923-866.4685571v-.0911075c0-.7546333.026089-1.4725845.087866-2.1987757.106852-1.2561017.305872-2.4829985.590119-3.6757922l-7.445819-.369453c-9.856641-.4672984-18.4524533 6.3099193-19.199284 15.1362349zm45.983008-9.3957495c-.01589.1166665-.01589.2808374-.01589.5035355l7.894094 866.3774906c.028863 3.169351 3.505911 6.306019 8.18043 6.369783h.05107c.299871 0 .537399-.010545.720238-.021595l.103201-.007111 678.330533-55.442769c5.621489-2.721308 9.374-8.15851 9.374-14.399447v-757.3924032c0-8.6587553-7.212334-15.7247363-16.545927-16.209691l-685.411202-34.0548076c-1.544326 1.1243107-2.543855 2.6701355-2.680547 4.2770147zm137.736996 109.9010901.255776.006751 539.256103 19.824563c5.376252.197646 9.63262 4.613365 9.63262 9.99325v583.06582c0 5.294492-4.126744 9.671427-9.412077 9.982703l-531.500465 31.302263c-.244731.017297-.489909.017297-.735037.017297l-26.388887-.389343c-5.414925-.07967-9.782465-4.455345-9.85206-9.870408l-8.141547-633.418146c-.070052-5.516247 4.339643-10.047893 9.855772-10.127469l26.773953-.387281zm-10.25616 20.146861-6.502397.094139 7.887 613.707 6.050397.088861zm20.005991.240956 7.425 613.193 506.376-30.185v-563.864zm311.966974 547.57003c-.320444 14.572741-9.54966 27.420638-22.518709 27.663057-13.367455.249867-22.402048-12.787317-22.076279-27.60224.320443-14.572742 9.54966-27.420639 22.518709-27.663058 13.367455-.249867 22.402047 12.787318 22.076279 27.602241zm-21.764908-8.583807-.027829.010568c-.038572.019584-.094701.050361-.172985.098107-.410572.250406-.897747.716012-1.384996 1.394306-1.312572 1.827218-2.182854 4.557491-2.248862 7.559337-.064531 2.934653.650802 5.506821 1.777646 7.132891.373505.538979.725803.876703.991854 1.033221l.027829-.010568c.025714-.013056.059232-.031087.101915-.055803l.07107-.042304c.410572-.250406.897746-.716011 1.384996-1.394306 1.312572-1.827218 2.182853-4.557491 2.248861-7.559337.064531-2.934653-.650801-5.506821-1.777646-7.132891-.373505-.538979-.725802-.876703-.991853-1.033221z"/></svg>