<svg height="960" viewBox="0 0 960 960" width="960" xmlns="http://www.w3.org/2000/svg"><path d="m413.586541 1.26336164 306.971708 12.28028676c34.323533 1.3730998 61.441751 29.5978628 61.441751 63.9488495v747.6266411c-.024401 10.378723-.724326 17.641536-4.030697 26.809094-6.644401 18.422896-22.092803 32.169433-43.537899 34.447311-1.481013.157312-6.154695.715759-14.922367 1.783962l-.438037.052964-.077643.213367c-2.314877 6.243115-5.604125 12.087955-9.792565 17.276845l-.436491.534431c-10.171543 12.308538-24.904585 20.09707-41.290289 20.625478l-.271661.123902c-6.838316 3.151616-14.377013 4.927688-22.311952 5.010476l-.581308.003031c-17.097809 0-32.534203-7.900767-43.073392-20.654191-2.0519-2.482995-3.894842-5.120933-5.520367-7.884824l-.058332-.100515-1.460089.179759c-41.236714 5.042646-71.853485 8.739233-93.083366 11.220229l-.958545.112012-.101291.299192c-2.053343 5.912186-4.892585 11.498247-8.481492 16.559599l-.41743.581662c-10.411103 14.334482-26.435969 23.666669-44.941672 23.666669-3.965373 0-7.806522-.42346-11.496512-1.227224l-.363603-.081898-.340981.105943c-4.580862 1.384444-9.453671 2.157519-14.572467 2.223587h-.66906c-18.845791 0-34.770242-9.835752-44.861826-24.5724-3.573745-5.218708-6.364997-10.983427-8.34404-17.077924l-.194626-.609206-.668195-.182282c-8.516865-2.348261-17.354334-5.297525-26.781588-8.910354l-1.233008-.475007c-1.074494-.416085-2.157612-.835091-3.24935-1.257016l-1.421859-.549341-.100602.065415c-9.134136 5.836558-19.838282 8.98491-31.17615 8.525151l-.642437-.029883c-3.892494-.204276-7.6747-.826314-11.310577-1.826338l-.397234-.112345-.364594.025167c-1.708429.102522-3.434424.12073-5.174168.051232l-.65304-.03018c-18.725612-.982708-34.047885-11.567546-43.319704-26.713384-3.284336-5.365077-5.761755-11.230707-7.414032-17.380711l-.177462-.673124-1.562301-.581923-2.30481-.858163c-23.096456-8.596799-38.418889-30.643572-38.418889-55.292038v-737.4148276c0-30.3318373 23.37067-55.5412448 53.615726-57.8340569l154.791913-11.73443915c5.382892-.40055231 10.78488-.50444653 16.178902-.28866071zm20.274618 901.32041136-.013557.002296c-7.06312.813718-12.728431 1.220577-16.995934 1.220577-4.240208 0-8.657288-.401671-13.251794-1.205773 2.65556 8.281785 8.430919 14.021349 15.127904 14.021349 6.701593 0 12.480291-5.747465 15.133381-14.038449zm29.273781-3.528093-.012937.000871c-4.055158.449241-7.017711.771377-9.392459 1.018855.348977 2.764608.11595 5.679317-.819886 8.60383-.742011 2.318807-1.641275 4.552189-2.68665 6.676235 6.099889-1.93579 11.000651-8.19043 12.911932-16.299791zm198.070782-22.588315-31.799518 3.593954c2.848549 6.698951 8.632783 11.283125 15.304907 11.283125 7.808283 0 14.400542-6.278328 16.494611-14.877079zm-253.069141-835.3145969-1.283721.0068593c-.949481.011227-1.898786.0358689-2.847627.0736796-.336472.013374-.672705.0284181-1.008866.0451055l-.578735.0304327c-.660262.0365061-1.320221.0793306-1.979778.1283903l-10.227854.7749821-4.725.358-139.845637 10.6018004c-9.386396.7115624-16.639363 8.5351716-16.639363 17.9485004v737.4148276c0 7.936364 4.934343 15.036172 12.372185 17.804633 10.039251 3.73703 19.721574 7.353366 29.045415 10.848481l-.035778.1234c17.76559 6.657092 34.23629 12.87633 49.412107 18.657699l.032709-.11775c11.132053 4.242485 21.567022 8.249184 31.304919 12.020069 20.623849 7.98634 36.799504 11.966694 52.721705 13.436496l-.038621.115184.137021.01263c17.48187 1.603569 34.668775.188218 57.108042-2.267779l.502376-.055452c-.016457-.038548-.032988-.077028-.049594-.11544 5.708036-.626666 11.756402-1.319359 18.235581-2.045799 21.704563-2.433496 62.904354-7.410404 105.746695-12.645501l2.70785-.33096c1.35485-.16563 2.710963-.331469 4.067777-.497447l3.480197-.425839c1.740515-.213025 3.481393-.426175 5.221448-.639299l3.478663-.426166c1.158955-.142014 2.317194-.283971 3.474365-.425826l3.467959-.425215c6.350766-.778838 12.658621-1.553238 18.865162-2.315727l-.080308.140144.88517-.108699c16.761763-2.058418 32.767913-4.027836 46.865355-5.760703l1.325889-.163406c-.026743-.040788-.053608-.081454-.080595-.121994 25.539309-3.1403 44.567902-5.472876 50.032353-6.094802l.333656-.037742c.262246-.029459.484847-.053917.666706-.073234 11.321847-1.202596 11.774721-13.585314 11.793591-21.570901l.00109-516.328562c-1.197136 2.919761-2.933122 5.630891-5.156652 7.971057l.026124 2.07344c.235818 19.236282-15.383505 34.778025-34.597992 34.987787l-235.894048 2.579076c-19.31309.204581-35.155587-15.272113-35.400572-34.58502l-.449199-35.27668c-.019051-.424792-.024309-.847788-.01614-1.268497l-.518811-40.779126c-.016894-.397785-.021697-.79397-.014711-1.188151l-.519561-40.845458c-.015172-.371811-.019782-.742205-.014078-1.110854l-.521025-40.945699c-.012681-.33391-.016847-.666656-.012678-.998001l-.171615-13.593689c-.234157-19.118765 14.892488-34.658314 33.85921-35.079703l.581802-.008165h.584127l235.96346 2.580163c19.024158.207627 34.725618 15.448006 34.967113 34.485877l.109605 8.65996 4.285407 7.674164c1.466844 2.624654 2.425722 5.38841 2.910194 8.180802l-.00105-94.7206241c0-12.88162-10.169332-23.4659061-23.040656-23.9808186l-306.971709-12.2802867c-1.283292-.0513376-2.567214-.0773432-3.851054-.0786245zm273.934653 831.5794249-.161078.019499c-.330245.040594-.667187.082012-1.010233.124181.143707.791494.240512 1.597497.286844 2.414753.339142-.823651.63537-1.677812.884467-2.558433zm-397.777747-2.642536c2.599083.136399 5.103634-.609709 7.372137-2.054069l-19.538545-7.143538c2.753999 5.379198 7.10763 8.932126 12.166408 9.197607zm432.131399-585.958667-265.903587 1.46901 1.501126 5.137475c2.77392 9.489557 11.520379 15.996708 21.392464 15.919951l244.582189-1.901666c.982979-.007643 1.947925-.249835 2.809972-.70521 2.905754-1.534331 3.970182-5.070582 2.377443-7.900185zm19.900808-8.249014.036755 2.90018 4.250693 7.557898c.5271.936428.989157 1.8906 1.38775 2.857513l.000333-22.654678c-1.188165 3.44167-3.106049 6.638176-5.675531 9.339087zm-20.418564-32.567386-265.918602.28541 1.501208 5.143866c2.77407 9.501368 11.521018 16.047082 21.393661 16.014392l244.595998-.813066c.983036-.003267 1.948036-.24115 2.810131-.692663 2.90592-1.521311 3.97041-5.052625 2.377584-7.889157zm19.901026-8.222735.035293 2.882301 4.262319 7.59671c.768572 1.368684 1.398464 2.775247 1.894555 4.204055l.000543-25.698339c-1.103778 4.079108-3.208282 7.88166-6.19271 11.015273zm-286.352398-33.491855 1.501289 5.150257c2.774219 9.513179 11.521656 16.097455 21.394857 16.108587l244.609809.275808c.983091.001081 1.948145-.232493 2.81029-.680143 2.906085-1.508292 3.970638-5.034668 2.377723-7.87813l-6.760352-12.07819zm285.83284-7.296075.035851 2.862231 4.27389 7.635465c1.06206 1.895849 1.858565 3.864324 2.402319 5.863837l.000124-29.7119c-.857336 4.957022-3.161611 9.627288-6.712184 13.350367zm-286.36561-34.703925 1.501369 5.156649c2.77437 9.524989 11.522296 16.147828 21.396054 16.202903l244.623621 1.364601c.983145.005388 1.948254-.223878 2.810448-.667665 2.90625-1.495272 3.970865-5.016711 2.377863-7.867102l-6.760726-12.107598zm14.632568-28.968433-.444556.002651.444556-.001808 235.954911 2.578718z"/></svg>
