<svg height="960" viewBox="0 0 960 960" width="960" xmlns="http://www.w3.org/2000/svg"><path d="m340.998735 10.8500389c4.233662 0 8.466565.1134424 12.69415.340205l356 19.095417c125.778006 6.7465828 224.30585 110.7009791 224.30585 236.6597951v408.831996c0 123.029999-94.140021 225.60232-216.718713 236.130619l-356 30.576884c-51.007457 4.381037-101.047801-7.702083-143.795301-33.844931l-.484721-.298985-76.728615-36.405954c-69.087999-32.780006-113.3743147-102.045383-114.2538138-178.375784l-.0175712-2.315175v-464.580954c0-99.726853 73.4662201-184.2154115 172.22684-198.0640607l94.217263-13.2115596c1.232271-.1727945 2.457391-.2878296 3.672881-.3473403l.407016-.0151725.45397-.0871283c13.906266-2.6149118 28.090692-3.9878744 42.4272-4.0878717zm-9.202068 49.4654229c-97.754401 0-177 79.2455992-177 177.0000002v479.907886c0 5.063592.217288 10.124852.651264 15.169813 8.378057 97.394718 94.123832 169.556979 191.51855 161.178923l374.853041-32.245486c91.536244-7.874101 161.830187-84.474444 161.830187-176.348736v-427.524933c0-94.064906-73.575614-171.6991636-167.50508-176.7451453l-374.853042-20.1374675c-3.162124-.1698723-6.328237-.2548544-9.49492-.2548544zm-92.213968 2.8705253-35.801227 5.0255726c-79.008496 11.0789193-137.781472 78.6697663-137.781472 158.4512483v464.580954c0 61.794043 35.589267 118.063874 91.417953 144.552767l28.001469 13.286646c-27.756987-30.766468-46.072718-70.508239-49.897902-114.975911-.483013-5.615013-.724853-11.248167-.724853-16.883916v-479.907886c0-75.483393 42.453392-141.0512659 104.786032-174.1294749zm339.417301 61.8140129c7.731986 0 14 8.058875 14 18s-6.268014 18-14 18-14-8.058875-14-18 6.268014-18 14-18zm-58-1c7.731986 0 14 8.058875 14 18s-6.268014 18-14 18-14-8.058875-14-18 6.268014-18 14-18z"/></svg>