<?xml version="1.0" encoding="utf-8"?>
<!-- Generator: Adobe Illustrator 28.2.0, SVG Export Plug-In . SVG Version: 6.00 Build 0)  -->
<svg version="1.1" id="Lager_12" xmlns="http://www.w3.org/2000/svg" xmlns:xlink="http://www.w3.org/1999/xlink" x="0px" y="0px"
	 width="512px" height="512px" viewBox="0 0 512 512" enable-background="new 0 0 512 512" xml:space="preserve">
<g>
	<g>
		<path d="M452.58,337.5l-116.35-56.83c-1.53,3.62-3.51,7.13-5.93,10.46l117.01,57.16c9.79,4.78,15.64,11.69,16.06,18.94
			c0.38,6.62-3.78,13.06-11.71,18.12c-18.99,12.14-51.04,10.85-67.25-2.71l-82.7-69.18c-4.12,1.86-8.47,3.46-12.99,4.78l87.99,73.61
			c10.88,9.11,27.04,13.77,43.26,13.77c13.72,0,27.49-3.34,38.15-10.16c11.58-7.4,17.85-17.94,17.22-28.92
			C474.68,354.82,466.38,344.24,452.58,337.5z"/>
		<path d="M240.13,203.68v-65.85h32.74v65.85l12-10.04v-61.82c0-3.31-2.69-6-6-6h-44.74c-3.31,0-6,2.69-6,6v61.82L240.13,203.68z"/>
		<path d="M211.3,313.46l-82.7,69.18c-16.21,13.55-48.26,14.85-67.25,2.71c-7.93-5.07-12.08-11.5-11.71-18.12
			c0.42-7.26,6.27-14.16,16.06-18.94l117.01-57.16c-2.41-3.33-4.39-6.84-5.93-10.46L60.43,337.5c-13.8,6.74-22.1,17.33-22.77,29.04
			c-0.63,10.98,5.65,21.52,17.22,28.92c10.67,6.82,24.43,10.16,38.15,10.16c16.22,0,32.38-4.67,43.26-13.77l87.99-73.61
			C219.77,316.92,215.42,315.32,211.3,313.46z"/>
	</g>
	<path d="M256.51,310.63c-17.96,0-35.92-4.37-49.59-13.11c-18.23-11.65-25.72-28.93-20.23-45.32L39.95,180.52
		c-15.05-7.35-24.09-18.86-24.82-31.58c-0.68-11.91,6.15-23.36,18.75-31.41c25.54-16.32,67.26-14.48,89.28,3.95l113.88,95.26
		c12.66-2.35,26.27-2.35,38.93,0l113.88-95.26c22.03-18.43,63.75-20.27,89.28-3.95l-3.23,5.06l3.23-5.06
		c12.6,8.05,19.44,19.5,18.75,31.41c-0.73,12.72-9.78,24.23-24.82,31.58L326.32,252.2c5.49,16.4-2,33.67-20.23,45.32
		C292.42,306.26,274.46,310.63,256.51,310.63z M75.81,118.33c-12.82,0-25.69,3.06-35.46,9.31c-8.97,5.73-13.67,13.05-13.24,20.61
		c0.47,8.26,7.07,16.09,18.11,21.48l157.44,76.91l-2.92,5.48c-6.5,12.23-1.28,25.75,13.63,35.28c23.78,15.2,62.47,15.2,86.25,0
		c14.91-9.53,20.14-23.05,13.63-35.28l-2.92-5.48l157.44-76.91c11.04-5.39,17.64-13.22,18.11-21.48
		c0.43-7.56-4.27-14.88-13.24-20.61l0,0c-21.21-13.56-57.01-12.1-75.12,3.04l-118.34,98.99l-2.87-0.62
		c-12.79-2.77-26.88-2.77-39.67,0l-2.87,0.62l-118.34-98.99C105.7,122.52,90.8,118.33,75.81,118.33z"/>
	<path d="M285.69,270.01c-1.11,0-2.22-0.31-3.23-0.95c-14.07-9-37.85-9-51.92,0c-2.8,1.78-6.5,0.97-8.29-1.82
		c-1.78-2.79-0.97-6.5,1.82-8.29c18.18-11.62,46.67-11.62,64.85,0c2.79,1.79,3.61,5.5,1.82,8.29
		C289.61,269.03,287.67,270.01,285.69,270.01z"/>
</g>
</svg>
