<?xml version="1.0" encoding="UTF-8"?>
<svg width="600px" height="600px" viewBox="0 0 600 600" version="1.1" xmlns="http://www.w3.org/2000/svg">
    <title>drivers/fan/assets/icon</title>
    <g id="/drivers/fan/assets/icon" stroke="none" stroke-width="1" fill="none" fill-rule="evenodd" stroke-linecap="round" stroke-linejoin="round">
        <g id="fan" transform="translate(131, 27)" stroke="#000000">
            <path d="M322.552882,484.41984 C321.920042,483.976953 321.223502,483.534067 320.400751,483.153685 C319.324388,482.584005 318.058114,482.014325 316.728734,481.44524 C297.419687,473.659015 249.812058,468.151512 191.695601,467.012151 L191.695601,336.385734 C274.185607,325.307627 338,254.473223 338,168.952143 C338,75.7722273 262.157489,0 168.96815,0 C75.779406,0 0,75.7722273 0,168.952738 C0,254.410124 63.813798,325.308222 146.303803,336.385734 L146.303803,467.012151 C88.1873469,468.151512 40.5803128,473.65842 21.271266,481.444645 C20.0047261,481.966125 18.7587603,482.536228 17.5361436,483.153685 C16.7764981,483.597167 16.0168525,483.976953 15.3834177,484.41984 C11.9019074,486.762255 10.0658988,489.547557 10.0658988,492.71205 C10.0658988,493.345425 10.1290042,494.041899 10.3189156,494.674678 C10.4457216,495.054465 10.5719323,495.371153 10.635633,495.624145 L16.4597806,518.666131 C16.522886,518.91972 16.5865867,519.172712 16.7127974,519.425705 L16.9033041,519.869186 L17.2825315,520.691859 L17.4730383,520.944852 C17.6623543,521.26154 17.7891604,521.515128 18.0427724,521.831815 L18.2326838,522.084808 C18.4225952,522.337801 18.6756119,522.654488 18.929224,522.907481 L19.0554347,523.034275 C19.2453461,523.287268 19.4983628,523.477161 19.7519749,523.730749 L19.9418863,523.920047 C20.1317977,524.110536 20.3217091,524.236735 20.5116205,524.426628 L20.7646372,524.617117 C21.0176539,524.870109 21.3343714,525.060003 21.6510888,525.312996 L21.8410002,525.43979 C22.0940169,525.629683 22.3470336,525.819576 22.6006457,525.945775 L22.7274517,526.00947 C23.0435738,526.199363 23.4239919,526.452356 23.8032194,526.705944 C24.1199368,526.895242 24.4366542,527.085136 24.816477,527.275029 L25.1331944,527.465518 C25.4493165,527.655411 25.7660339,527.78161 26.0827514,527.971503 C26.3988734,528.098297 26.6524855,528.288191 26.9686076,528.414985 L27.3490257,528.604878 C35.0722872,532.149753 47.164106,535.251147 63.2440638,537.91025 L63.3708699,537.91025 C64.1305154,538.036448 64.890161,538.163242 65.7760172,538.290036 L65.9034186,538.290036 C66.5999588,538.416235 67.359009,538.47993 68.0555492,538.606129 L81.2868363,540.378864 L102.24198,542.468286 L128.894466,544.113632 L165.296133,545 L176.628306,545 L203.914226,544.366625 L204.104138,544.366625 L228.034163,543.101066 L252.977446,540.885445 L267.601813,539.04961 C268.298354,538.922816 268.994894,538.859121 269.627733,538.732923 L270.070662,538.669823 C270.767202,538.543029 271.526847,538.479335 272.223387,538.353136 L274.819042,537.91025 C290.9627,535.314842 303.053923,532.149753 310.77778,528.604878 L310.904586,528.541183 L312.044055,527.971503 C312.360177,527.78161 312.740595,527.655411 313.056717,527.465518 L313.50024,527.21193 C313.816363,527.022036 314.13308,526.895242 314.322991,526.705944 L314.512903,526.57915 L315.46246,526.00947 L315.589266,525.945775 C315.842282,525.819576 316.032194,525.629683 316.285806,525.43979 L316.538823,525.249301 C316.85554,524.996308 317.171662,524.806415 317.425274,524.552827 L317.615186,524.426628 C317.805097,524.300429 317.995008,524.109941 318.18492,523.920642 L318.374831,523.730154 L319.071371,523.03368 L319.324388,522.717587 C319.512022,522.522542 319.681407,522.310731 319.830422,522.084808 L320.147139,521.641326 L320.147139,521.578227 C320.273945,521.387738 320.400751,521.135341 320.526962,520.944852 L321.033591,519.869186 C321.033591,519.869186 321.033591,519.805492 321.096696,519.805492 L321.476519,518.91972 L327.364367,495.561046 C327.491173,495.308053 327.617384,494.991366 327.681084,494.611579 C327.870996,493.978799 327.934101,493.282325 327.934101,492.64895 C327.807295,489.610656 326.034987,486.76166 322.552882,484.41984 L322.552882,484.41984 Z" id="Path" stroke-width="36.3367601"></path>
            <g id="Group" transform="translate(5.2907, 5.2277)" stroke-width="18.16838">
                <path d="M0,163.72561 C0,73.4679096 73.4748701,0 163.740526,0 C254.006778,0 327.482243,73.4679096 327.482243,163.725015 C327.482243,248.060898 263.378518,317.689866 181.31239,326.474966 C180.010991,326.605331 178.644105,326.735102 177.342706,326.865467 L177.017059,326.865467 C168.180711,327.58127 159.300937,327.58127 150.464589,326.865467 L150.138942,326.865467 C148.837543,326.735102 147.470657,326.605331 146.169258,326.474966 C64.1037254,317.689866 0,248.060303 0,163.72561 Z M14.8404735,482.878667 C15.0309802,482.751873 15.2208916,482.56198 15.6007144,482.308987 C16.0276301,482.028428 16.4716172,481.774745 16.9300941,481.549413 C17.6897397,481.105932 18.6392966,480.726145 19.7156596,480.283259 C37.6947313,473.00302 90.6675062,467.686005 146.758638,466.546645 L146.758638,477.025307 C146.758638,482.08933 152.139858,482.469117 156.507819,482.722109 C159.989925,482.975697 158.865935,483.101896 163.741122,483.101896 C170.767843,483.101896 170.251689,482.975697 173.733199,482.532216 C175.442997,482.342323 177.089094,482.02623 178.354773,481.329756 C180.127676,480.443389 180.824216,479.051035 180.824216,477.025307 L180.824216,466.546645 C236.914753,467.686005 289.850022,473.003615 307.765988,480.283259 C308.709676,480.671574 309.639004,481.093902 310.552149,481.549413 C311.058182,481.802406 311.501111,482.055399 311.880933,482.308987 C312.197651,482.49888 312.450667,482.688774 312.640579,482.878667 L311.944039,485.537175 C307.449271,488.005789 296.940444,491.677458 272.313878,495.03244 C243.318755,499.020796 204.764362,501.172723 163.741122,501.172723 C122.717285,501.172723 84.1628924,499.020201 55.1677696,495.03244 C30.4780986,491.677458 20.032377,488.005789 15.5370137,485.537175 L14.8404735,482.878667 L14.8404735,482.878667 Z" id="Shape"></path>
                <path d="M128.972454,131.562193 C114.936872,125.74455 100.65244,123.577741 85.5006068,125.833246 C50.9480457,130.973464 28.234882,161.369503 33.3714194,195.7664 C37.1577405,221.126395 49.9669361,241.443203 68.2395072,258.724097 C71.2405834,261.562974 74.9054565,263.901222 78.6227188,265.748367 C87.386028,270.101033 93.8102718,267.959822 98.6169945,259.533674 C99.7677741,257.515685 100.71495,255.37864 101.712729,253.274931 C109.359788,237.159589 118.932155,222.32945 131.190667,209.285143 C132.287867,208.1184 133.271358,206.844507 134.290569,205.640261 C134.086964,205.437867 133.909555,205.223568 133.708928,205.018197 C122.385089,195.800331 115.14762,181.78215 115.14762,166.070407 C115.14762,152.69453 120.424656,140.569331 128.972454,131.562193 L128.972454,131.562193 Z M293.115426,205.019983 C294.069746,201.035793 294.267396,196.727773 294.01438,192.61917 C293.422023,182.936988 288.409315,178.488482 278.799441,178.552772 C276.496691,178.567059 274.194537,178.815885 271.895359,179.005183 C254.27944,180.451706 236.814141,179.608198 219.556019,175.570434 C218.011128,175.209101 216.432899,174.997777 214.895153,174.722164 C214.820736,174.998968 214.724292,175.256128 214.647494,175.53055 C212.329265,189.829106 203.871362,203.003779 190.378724,210.812624 C178.894145,217.461274 165.876583,218.957801 153.918119,216.099875 C155.858906,231.035378 161.057358,244.368395 170.481487,256.250126 C191.971836,283.345949 229.29627,287.730165 256.291072,266.22816 C276.194262,250.375931 287.310924,229.28943 293.115426,205.019983 L293.115426,205.019983 Z M145.322694,115.430779 C145.785268,116.95826 146.393103,118.4405 146.925927,119.919168 C147.202757,119.844163 147.473634,119.798922 147.749868,119.728084 C161.299659,114.572389 176.958121,115.331367 190.488265,123.168786 C202.006182,129.842437 209.831246,140.437179 213.350262,152.292718 C225.318252,143.104616 234.261947,131.881857 239.830696,117.705332 C252.52916,85.3752376 237.613674,50.646176 205.44721,37.9126035 C181.7321,28.5232977 157.889589,29.4203803 133.951824,36.5404898 C130.020837,37.7102093 126.190461,39.6996254 122.757768,41.9819178 C114.66659,47.3578653 113.325304,53.9588931 118.199299,62.3034876 C119.366748,64.3018328 120.737206,66.1835037 122.054084,68.0931527 C132.14201,82.7191111 140.167701,98.3629934 145.322694,115.430779 L145.322694,115.430779 Z" id="Shape"></path>
                <path d="M165.134202,118.648847 C151.292698,118.648847 138.844274,124.492087 130.026195,133.809364 C121.828452,142.476599 116.766332,154.141053 116.766332,167.010349 C116.766332,182.127411 123.70792,195.615795 134.570375,204.483043 C142.901472,211.28587 153.537701,215.375423 165.134202,215.375423 C191.848007,215.375423 213.502072,193.722219 213.502072,167.010349 C213.502072,140.300265 191.848007,118.648847 165.134202,118.648847 L165.134202,118.648847 Z" id="Path"></path>
            </g>
        </g>
    </g>
</svg>
