<?xml version="1.0" encoding="UTF-8" standalone="no"?>
<!DOCTYPE svg PUBLIC "-//W3C//DTD SVG 1.1//EN" "http://www.w3.org/Graphics/SVG/1.1/DTD/svg11.dtd">
<svg width="100%" height="100%" viewBox="0 0 512 512" version="1.1" xmlns="http://www.w3.org/2000/svg" xmlns:xlink="http://www.w3.org/1999/xlink" xml:space="preserve" xmlns:serif="http://www.serif.com/" style="fill-rule:evenodd;clip-rule:evenodd;stroke-linecap:round;stroke-linejoin:round;stroke-miterlimit:1.5;">
    <g>
        <g>
            <g transform="matrix(-1.20845,1.47993e-16,-1.3935e-16,-1.13788,587.407,573.11)">
                <path d="M454.019,345.502L316.621,277.812C315.091,281.432 321.152,283.949 318.732,287.279L445.631,352.103C455.421,356.883 463.731,366.051 464.151,373.301C464.531,379.921 464.103,384.112 453.352,392.28C435.325,405.977 404.26,400.706 388.05,387.146L292.626,302.217C288.506,304.077 294.2,311.485 289.68,312.805L376.71,391.85C387.59,400.96 399.683,407.692 415.711,409.351C429.366,410.765 440.391,410.889 451.051,404.069C462.631,396.669 474.805,385.239 474.175,374.259C473.515,362.539 467.819,352.242 454.019,345.502Z" style="fill-rule:nonzero;"/>
            </g>
            <g transform="matrix(1.20845,1.47993e-16,1.3935e-16,-1.13788,-75.1576,573.11)">
                <path d="M454.019,345.502L316.621,277.812C315.091,281.432 321.152,283.949 318.732,287.279L445.631,352.103C455.421,356.883 463.731,366.051 464.151,373.301C464.531,379.921 464.103,384.112 453.352,392.28C435.325,405.977 404.26,400.706 388.05,387.146L292.626,302.217C288.506,304.077 294.2,311.485 289.68,312.805L376.71,391.85C387.59,400.96 399.683,407.692 415.711,409.351C429.366,410.765 440.391,410.889 451.051,404.069C462.631,396.669 474.805,385.239 474.175,374.259C473.515,362.539 467.819,352.242 454.019,345.502Z" style="fill-rule:nonzero;"/>
            </g>
            <path d="M452.58,337.5L336.23,280.67C334.7,284.29 332.72,287.8 330.3,291.13L447.31,348.29C457.1,353.07 462.95,359.98 463.37,367.23C463.75,373.85 459.59,380.29 451.66,385.35C432.67,397.49 400.62,396.2 384.41,382.64L301.71,313.46C297.59,315.32 293.24,316.92 288.72,318.24L376.71,391.85C387.59,400.96 403.75,405.62 419.97,405.62C433.69,405.62 447.46,402.28 458.12,395.46C469.7,388.06 475.97,377.52 475.34,366.54C474.68,354.82 466.38,344.24 452.58,337.5Z" style="fill-rule:nonzero;"/>
            <path d="M240.13,203.68L240.13,137.83L272.87,137.83L272.87,203.68L284.87,193.64L284.87,131.82C284.87,128.51 282.18,125.82 278.87,125.82L234.13,125.82C230.82,125.82 228.13,128.51 228.13,131.82L228.13,193.64L240.13,203.68Z" style="fill-rule:nonzero;"/>
            <g transform="matrix(-1.58554,-0.0194183,0.0111418,-0.909752,661.429,462.931)">
                <path d="M238.042,204.37L237.823,133.839L256.583,129.706L274.809,136.017L275.446,203.625L284.955,205.713L284.87,131.82C284.87,128.51 262.577,117.632 259.267,117.632L249.342,118.441C246.032,118.441 228.13,128.51 228.13,131.82L228.228,207.611L238.042,204.37Z" style="fill-rule:nonzero;"/>
            </g>
            <path d="M211.3,313.46L128.6,382.64C112.39,396.19 80.34,397.49 61.35,385.35C53.42,380.28 49.27,373.85 49.64,367.23C50.06,359.97 55.91,353.07 65.7,348.29L182.71,291.13C180.3,287.8 178.32,284.29 176.78,280.67L60.43,337.5C46.63,344.24 38.33,354.83 37.66,366.54C37.03,377.52 43.31,388.06 54.88,395.46C65.55,402.28 79.31,405.62 93.03,405.62C109.25,405.62 125.41,400.95 136.29,391.85L224.28,318.24C219.77,316.92 215.42,315.32 211.3,313.46Z" style="fill-rule:nonzero;"/>
        </g>
        <g transform="matrix(1.14157,-0.00401163,0.00351411,0.999994,-37.5924,-14.7541)">
            <path d="M285.69,270.01C284.58,270.01 283.47,269.7 282.46,269.06C268.39,260.06 244.61,260.06 230.54,269.06C227.74,270.84 224.04,270.03 222.25,267.24C220.47,264.45 221.28,260.74 224.07,258.95C242.25,247.33 270.74,247.33 288.92,258.95C291.71,260.74 292.53,264.45 290.74,267.24C289.61,269.03 287.67,270.01 285.69,270.01Z" style="fill-rule:nonzero;"/>
        </g>
        <g transform="matrix(0.840992,-0.541047,0.430098,0.668534,-92.1511,261.532)">
            <path d="M262.93,366.027L262.93,413.24" style="fill:none;stroke:black;stroke-width:9.96px;"/>
        </g>
        <g transform="matrix(0.645522,-0.763741,0.607125,0.513148,-88.4698,368.748)">
            <path d="M262.93,366.027L262.93,413.24" style="fill:none;stroke:black;stroke-width:9.96px;"/>
        </g>
        <g transform="matrix(0.978038,-0.208425,0.165685,0.777477,-49.0853,139.686)">
            <path d="M262.93,366.027L262.93,413.24" style="fill:none;stroke:black;stroke-width:9.96px;"/>
        </g>
        <g transform="matrix(-0.840992,-0.541047,-0.430098,0.668534,609.467,261.532)">
            <path d="M262.93,366.027L262.93,413.24" style="fill:none;stroke:black;stroke-width:9.96px;"/>
        </g>
        <g transform="matrix(-0.645522,-0.763741,-0.607125,0.513148,605.786,368.748)">
            <path d="M262.93,366.027L262.93,413.24" style="fill:none;stroke:black;stroke-width:9.96px;"/>
        </g>
        <g transform="matrix(-0.978038,-0.208425,-0.165685,0.777477,566.401,139.686)">
            <path d="M262.93,366.027L262.93,413.24" style="fill:none;stroke:black;stroke-width:9.96px;"/>
        </g>
        <g transform="matrix(-1.28834,1.57776e-16,-1.71949e-16,-1.40407,587.002,707.649)">
            <path d="M285.69,270.01C284.58,270.01 283.47,269.7 282.46,269.06C268.39,260.06 244.61,260.06 230.54,269.06C227.74,270.84 224.04,270.03 222.25,267.24C220.47,264.45 221.28,260.74 224.07,258.95C242.25,247.33 270.74,247.33 288.92,258.95C291.71,260.74 292.53,264.45 290.74,267.24C289.61,269.03 287.67,270.01 285.69,270.01Z" style="fill-rule:nonzero;"/>
        </g>
    </g>
</svg>
