<?xml version="1.0" encoding="UTF-8"?>
<svg width="600px" height="600px" viewBox="0 0 600 600" version="1.1" xmlns="http://www.w3.org/2000/svg" xmlns:xlink="http://www.w3.org/1999/xlink">
    <title>assets/icon</title>
    <g id="/assets/icon" stroke="none" stroke-width="1" fill="none" fill-rule="evenodd">
        <g id="tuya" transform="translate(35, 0)" fill="#000000" fill-rule="nonzero">
            <path d="M180.75881,147.426936 C185.159414,147.426936 188.427683,147.426645 191.695872,147.426936 C228.367752,147.430692 265.040241,147.310705 301.7113,147.483331 C324.493379,147.404767 345.002015,161.255689 353.406538,182.396758 C361.808284,203.923389 356.078594,230.990124 339.923058,246.143967 C331.004902,254.50925 320.225324,257.365695 308.254196,257.334111 C269.461061,257.231821 230.667529,257.302369 191.874103,257.306152 C188.590282,257.306495 185.306434,257.306152 181.339258,257.306152 C181.129949,260.972107 180.821761,263.878704 180.819244,266.78554 C180.786894,304.003068 180.715279,341.220887 180.816886,378.438177 C180.992759,442.869434 228.205975,490.058437 292.734192,490.377712 C310.009001,490.463205 327.287069,490.219 344.559069,490.458946 C374.671002,490.689319 398.968702,515.108973 399,545.173094 C399.031238,575.237215 374.784385,599.707194 344.672997,600 C312.930717,599.627688 280.790591,600.572633 249.553488,595.988635 C163.657727,583.383653 88.6842446,507.693476 74.8184977,422.250107 C72.4577193,407.02974 71.2084982,391.658145 71.0807143,376.256893 C70.5487513,340.257453 70.9104056,304.244892 70.9103526,268.237543 L70.9103526,257.04515 C47.5305273,259.052248 26.6017909,255.526515 11.651664,236.142787 C3.63863593,226.118287 -0.482568428,213.54387 0.0450510357,200.729258 C0.694677563,182.948679 8.6667044,169.05448 22.6061864,158.178585 C36.7072603,147.176567 53.3736952,147.102502 70.9196523,147.229101 C70.9196523,123.854614 70.7712813,101.243532 70.9588116,78.6352001 C71.0409809,48.7472007 95.1018146,24.4403361 125.035158,24.005903 C154.968502,23.5714699 179.726854,47.1698046 180.679166,77.0427903 C181.099162,100.009388 180.75881,122.98966 180.75881,147.426936 Z" id="Path"></path>
            <path d="M530,155.087339 C530,158.787616 530,159.9946 530,161.201583 C529.982166,173.391122 522.861262,181.662462 512.10271,181.990044 C501.301889,182.318948 493.45672,174.472193 493.035714,162.348029 C492.088848,135.082307 484.42528,110.1192 467.857187,88.2397843 C443.618842,56.2314783 411.165971,39.5746446 371.253828,37.1092556 C369.447408,36.9976921 367.628333,37.0552972 365.827276,36.8963549 C355.667128,36.5183246 347.712448,28.0165018 348.007975,17.8513969 C348.110222,12.9515202 350.18044,8.29915105 353.751705,4.94359904 C357.32297,1.58804704 362.094511,-0.188083712 366.99014,0.0158007708 C403.214349,-0.23547372 438.431869,11.9305502 466.779971,34.4885709 C506.529324,65.7864592 526.941023,107.277819 530,155.087339 Z" id="Path"></path>
            <path d="M456.994915,160.848478 C457.212647,173.917404 450.423944,182.438274 439.366921,182.974066 C428.255677,183.512485 420.659507,175.631469 419.802306,162.67603 C417.850019,133.165954 396.731221,112.155061 367.045751,110.188749 C354.557564,109.361581 346.846712,102.087634 347.002311,91.2810151 C347.162955,80.126104 355.679124,72.8841722 368.499113,73.0014023 C415.134739,73.4273702 456.217664,114.209109 456.994915,160.848478 Z" id="Path"></path>
        </g>
    </g>
</svg>