<?xml version="1.0" encoding="UTF-8"?>
<svg width="600px" height="600px" viewBox="0 0 600 600" version="1.1" xmlns="http://www.w3.org/2000/svg" xmlns:xlink="http://www.w3.org/1999/xlink">
    <title>assets/icon</title>
    <g id="/assets/icon" stroke="none" stroke-width="1" fill="none" fill-rule="evenodd">
        <g id="icon" transform="translate(12, 0)" fill="#000000" fill-rule="nonzero">
            <path d="M311.294998,83.8374405 L510.146349,220.632111 C537.336067,239.336578 540,260.203431 540,288.092264 L540,297.213795 L540,526.861477 C540,566.850835 507.979043,599.344331 468.233769,599.990201 L467.027027,600 L72.9729729,600 C32.6711131,600 0,567.254768 0,526.861477 L0,280.933194 C0,256.940406 11.7410023,234.473405 31.4192136,220.810942 L228.446241,84.0162719 C253.348393,66.7268584 286.318775,66.6556907 311.294998,83.8374405 Z M269.432633,144.295181 L72.5158786,280.977864 L72.5158786,526.704819 L466.349387,526.704819 L466.349387,280.977864 L269.432633,144.295181 Z" id="Shape"></path>
            <path d="M424.510994,71.9406482 C465.637297,65.4171836 504.257205,93.517963 510.770971,134.705496 C512.359302,144.748753 505.517334,154.179935 495.489007,155.77063 C485.46068,157.361326 476.043518,150.509171 474.455187,140.465914 C471.118083,119.364896 451.332498,104.968425 430.262849,108.310499 C420.234521,109.901194 410.81736,103.049039 409.229029,93.0057827 C407.640698,82.9625259 414.482666,73.531344 424.510994,71.9406482 Z" id="Path"></path>
            <path d="M427.311953,1.59832257 C498.094392,-9.48616253 564.563073,38.2618834 575.77391,108.246568 C577.341859,118.034636 570.587689,127.226181 560.688047,128.776458 C550.788405,130.326736 541.492086,123.648688 539.924137,113.86062 C531.849198,63.4520709 483.973154,29.0601217 432.99,37.0440515 C423.090358,38.5943292 413.794039,31.9162808 412.22609,22.1282131 C410.65814,12.3401453 417.412312,3.14860024 427.311953,1.59832257 Z" id="Path"></path>
        </g>
    </g>
</svg>