<svg height="960" viewBox="0 0 960 960" width="960" xmlns="http://www.w3.org/2000/svg"><g fill="#000" fill-rule="nonzero"><path d="m541.377367 150.14192 312.608142 214.63058c42.744125 29.347272 56.275064 75.997003 47.454125 117.821048l-.522112 2.335469v360.316779c0 62.743227-50.33917 113.72546-112.821502 114.73883l-1.897082.015374h-619.480354c-63.357324 0-114.718584-51.377207-114.718584-114.754204v-385.861012c0-37.644639 18.4576715-72.89532 49.393187-94.331699l309.740177-214.630579c39.147914-27.127057 90.979645-27.238719 130.244003-.280586zm-65.810547 94.85808-309.56682 214.454872v385.545128h619.133641v-385.545128h2.866359z"/><path d="m722.945665 129.872415c64.175252-10.164362 124.439416 33.620116 134.603777 97.795369 2.4785 15.648632-8.198001 30.343576-23.846634 32.822076-15.648632 2.4785-30.343576-8.198002-32.822076-23.846634-5.207362-32.877988-36.081638-55.309463-68.959625-50.102101-15.648633 2.4785-30.343577-8.198002-32.822077-23.846634-2.478499-15.648632 8.198002-30.343576 23.846635-32.822076z"/><path d="m724.78422 18.1854296c111.887721-17.721274 216.95657 58.6157138 234.677844 170.5034344 2.4785 15.648632-8.198001 30.343576-23.846634 32.822076-15.648632 2.4785-30.343576-8.198002-32.822076-23.846634-12.764274-80.590456-88.443236-135.5744404-169.033692-122.8101661-15.648632 2.4784999-30.343576-8.1980019-32.822076-23.8466341-2.4785-15.6486323 8.198002-30.3435763 23.846634-32.8220762z"/></g></svg>