<svg height="960" viewBox="0 0 960 960" width="960" xmlns="http://www.w3.org/2000/svg"><path d="m493.026893 14.0012599c25.823721.0200546 43.528577.2630658 53.377523.7428569 14.781441.7200773 42.285718 3.4573371 82.925676 8.2303095 40.294836 4.7314821 70.669908 38.877894 70.669908 79.4500357v753.3473c0 38.289417-27.131224 71.210108-64.715097 78.525699l-1.401678.272271c-34.917299 6.765427-63.755353 11.198177-86.627404 13.293475-18.493446 1.694175-43.988807 2.857641-76.608376 3.510385-.717373.021451-1.434121.021451-2.150886.021451h-1.268543c-2.53516-.036929-5.058547-.154747-7.56615-.360371l-.876866-.077672-.039697.001424c-11.818874.245843-35.561425-4.634188-77.028047-15.067513l-.950256-.239911-52.909304-11.02982c-38.947607-8.119099-66.857696-42.447371-66.857696-82.232241v-733.045644c0-41.1376177 30.59886-75.8378141 71.367763-81.0120108l.149232-.0183701.934108-.1114235.149232-.0172327c9.569242-1.0686162 25.233101-2.9070089 46.961641-5.4981903.610787-.072843.610787-.072843 1.221506-.145698 5.96908-.7121234 12.147189-1.4512094 19.715762-2.3581027 2.237118-.2680594 14.316447-1.7161418 17.36282-2.0810051 12.630117-1.512706 17.826054-2.1283542 19.114005-2.2564217l.821719-.0817164.536569-.0533688c2.176591-.2165056 4.126926-.4106907 5.863241-.5837402l.850378-.084769c4.163284-.415093 7.001676-.6993226 8.706329-.8712023l.056695-.0050434.062977-.0071779.78535-.0725991c1.817064-.1401124 3.526038-.0845663 5.123894.1637681l.282779.0470089 1.094452-.0699652c1.975369-.115287 3.958405-.1767671 5.947489-.1840215l1.176882-.0042074c6.258297-.0218804 12.171117-.0371492 17.738668-.0371492zm-.905431 39.9993941h-5.087926c-5.515935 0-11.389184.015162-17.607289.0369019l-1.173865.0041966c-3.519607.0128364-6.998686.2934813-10.418144.8350189l-.346103.0517672c-2.190637.3084112-4.35448.2481123-6.425827-.135761l.396723.0666814c-26.843535 2.3248894-46.674896 23.8370009-47.908141 50.95102-.033755.742153-.05064 1.484981-.05064 2.227906v753.501443c-.000894 21.021672 13.231075 38.961569 31.820796 45.861379 1.404382.291622 2.754379.567217 4.051577.825829 5.004426.997696 9.165765 1.73069 12.437144 2.197897 14.542441.137721 23.200377.213454 25.930853.226286 1.058901.004977 2.078587.174358 3.034988.483844 26.525784-.66022 47.497151-1.700323 62.831113-3.105059 21.368386-1.957548 48.95588-6.198073 82.658513-12.728149l1.384813-.268996c18.784341-3.656318 32.349953-20.116664 32.349953-39.261281v-753.346107c0-20.2850623-15.187536-37.3582682-35.335187-39.7240366-39.753028-4.6688067-66.623548-7.3429941-80.206687-8.0046963-9.126479-.444596-26.659039-.6813398-52.336664-.6960841zm-91.655178 6.5868779-.371835.0453808c-6.827964.8170446-12.130633 1.4522543-13.473419 1.6134994l-.12403.0145879-.086797.011038-.027203.002962-.057959.0070116-.010041.0009884-.12363.0151504c-.311295.0371348-.417034.0497453-.892856.1064924l-.945194.1126978c-21.337289 2.5436731-36.752707 4.3521183-46.313701 5.4198134l-.646619.0765027.010976-.000682-.018976.001682-.022.003-.581211.0789896c-20.273326 2.8801492-35.472138 20.1165957-35.777116 40.6180457l-.004673.628603v733.045644c0 20.839694 14.61957 38.821169 35.020698 43.074031l53.295074 11.110002c.270918.056476.540634.118569.808975.186239 1.204532.303758 2.394351.602737 3.569442.896936-6.466607-10.505279-10.194502-22.878736-10.193939-36.116744v-753.501018c0-1.045953.023772-2.091771.071296-3.136639.76812-16.887833 6.919686-32.2745198 16.894738-44.3142141zm147.113483 745.4124681c3.113854 0 5.638132 3.134007 5.638132 7s-2.524278 7-5.638132 7c-3.113855 0-5.638133-3.134007-5.638133-7s2.524278-7 5.638133-7zm12.250095-388.837144c10.101397-.029776 18.493893 7.934173 18.493893 18.032171v96.686205c0 9.871772-8.047473 17.966375-17.925534 18.499378l-32.522932 1.754882c-10.33316.557559-19.003133-7.412055-19.003133-17.76606v-98.847682c0-10.122134 8.308416-18.232336 18.434688-18.262355zm-1.506706 20.00404-29.451.088v94.797l29.451-1.589zm-97.761139 31.890773c5.522848 0 10 4.477152 10 10v33.17726c0 5.522848-4.477152 10-10 10-5.522847 0-10-4.477152-10-10v-33.17726c0-5.522848 4.477153-10 10-10zm27.362842-18.004303c5.52284-.00907 10.00735 4.460713 10.016434 9.983553l.082347 50.057898c.00907 5.52284-4.460713 10.007351-9.983553 10.016448-5.52284.00907-10.00735-4.460713-10.016434-9.983553l-.082347-50.057898c-.00907-5.52284 4.460713-10.00735 9.983553-10.016448zm111.96403-1.858603c5.522839-.009534 10.007727 4.459869 10.017277 9.982709l.082348 47.61285c.009535 5.522839-4.459869 10.007727-9.982708 10.017292-5.52284.009535-10.007727-4.459869-10.017277-9.982708l-.082349-47.61285c-.009535-5.522839 4.459869-10.007727 9.982709-10.017293zm27.673034-.467749c5.522848 0 10 4.477152 10 10v30.788874c0 5.522847-4.477152 10-10 10-5.522847 0-10-4.477153-10-10v-30.788874c0-5.522848 4.477153-10 10-10zm-309.890697 15.394713 50.903139.37855c5.522694.04107 9.966429 4.551393 9.925641 10.074088-.041353 5.522694-4.551676 9.966429-10.074371 9.925358l-50.903138-.378549c-5.522695-.04107-9.966429-4.551393-9.925642-10.074088.041353-5.522694 4.551676-9.966429 10.074371-9.925359zm137.263774-449.801727.009855.1021204c.446846.0928941.872873.1815496 1.279443.266512l.150702.0313676 1.060119-.1141813.147881-.0138187-.091886-.0110185c-.812868-.0954036-1.35007-.1577402-1.729822-.1975661l-.209903-.0212787c-.257201-.024995-.428766-.0369345-.575224-.0412231z"/></svg>
