<svg height="960" viewBox="0 0 960 960" width="960" xmlns="http://www.w3.org/2000/svg"><path d="m413.586541 1.26336164 306.971708 12.28028676c34.323533 1.3730998 61.441751 29.5978628 61.441751 63.9488495v747.6266411c-.024401 10.378723-.724326 17.641536-4.030697 26.809094-6.577957 18.238667-21.784715 31.894035-42.896348 34.375541l-.329955.036696c-.01938.002987-.034699.004993-.051954.007265l-.05746.007604c-.256745.034128-.630268.085683-1.082737.149647l-.377637.05361c-5.314104.757425-18.547988 2.760946-39.475346 5.977719-4.380558.673341-8.786031.607083-13.049452-.147867-1.197937 1.754379-2.475458 3.360884-3.850756 4.825631l-.414989.434609c-7.858817 8.092582-18.891814 11.240884-29.729249 6.921041-9.025117-3.597447-15.704622-11.148859-21.820106-23.164797-48.144657 5.879077-84.090309 10.228995-107.865472 13.052989l-.026842.002549-.036424.06183-.370886.595051c-1.721649 2.735235-3.473939 5.173285-5.747449 7.695355-2.097221 2.326506-4.439907 4.495494-7.356569 6.552987-4.211727 2.971067-9.009309 5.306623-14.656545 6.574077l-.569127.1227-.27097.317565c-.623403.721744-1.264076 1.429242-1.921865 2.12175l-.496549.516558c-10.251102 10.537685-24.057235 16.961249-39.301501 16.961249-3.965373 0-7.806522-.42346-11.496512-1.227224l-.363603-.081898-.340981.105943c-4.580862 1.384444-9.453671 2.157519-14.572467 2.223587h-.66906c-14.885505 0-28.270935-6.27322-38.237464-16.48013-.851133-.871662-1.67389-1.768291-2.468081-2.688315l-.028947-.033085-.835903-.175671c-12.377776-2.645174-25.175502-6.56882-39.299032-11.982305l-1.213856-.467667c-10.345889-4.006322-21.4908-8.283244-33.433097-12.830084l-.907112-.345273-.742071-.012651c-.251089-.006027-.50232-.013841-.753678-.02345l-.75444-.034216c-3.892494-.204276-7.6747-.826314-11.310577-1.826338l-.397234-.112345-.364594.025167c-1.708429.102522-3.434424.12073-5.174168.051232l-.65304-.03018c-12.99331-.68188-24.714332-6.148276-33.775463-14.82046-1.63495-1.564771-3.168621-3.218652-4.600371-4.951376l-.374364-.458383-1.215287-.454007c-4.048726-1.512171-8.152677-3.042794-12.311181-4.591609l-2.501643-.93147c-23.096456-8.596799-38.418889-30.643572-38.418889-55.292038v-737.4148276c0-30.3318373 23.37067-55.5412448 53.615726-57.8340569l154.791913-11.73443915c5.382892-.40055231 10.78488-.50444653 16.178902-.28866071zm-184.58342 448.82494136-.003121 358.447043c0 7.936364 4.934343 15.036172 12.372185 17.804633 10.10681 3.762178 19.851871 7.402032 29.234319 10.918787l.054565.157736 1.026069.384569c12.52239 4.694014 24.396802 9.168919 35.623238 13.424712l.179059-.064049c15.839065 6.006961 30.386429 11.577035 43.642122 16.710144 20.297131 7.859822 36.285885 11.839577 51.96451 13.365167l.032268.121405.823327.077738c4.808698.44109 9.595078.653762 14.474592.679188l-.000024-330.665707c0-23.654788 18.314112-43.271381 41.913183-44.894004l225.110411-15.478116c24.794273-1.704802 46.276018 17.012913 47.98082 41.807186.070644 1.027423.105997 2.056968.105997 3.086817l.000817 309.855156c8.084449-3.079547 8.445731-13.683939 8.462542-20.798307l-.004191-364.059003c-146.091888 9.08407-247.045111 14.746696-303.637672 17.0084.034231.239024.052028.480882.06114.725113.205905 5.519008-4.101215 10.159967-9.620223 10.365872-20.552645.766785-36.209909.637599-47.118839-.417225-10.864193-1.050498-22.123159-3.000017-33.777748-5.843482-4.894322-1.194107-8.060313-5.801208-7.584984-10.673619-27.339513-4.82312-64.400485-12.16696-111.314362-22.046154zm457.818621 60.942136-225.110411 15.478117c-13.110594.901457-23.285101 11.799564-23.285101 24.941113l-.00065 329.88797c7.449934-.553966 15.379522-1.368517 24.105058-2.330858l.630388-.069897c.009573-.041371.019069-.082791.028486-.124258 5.212875-.576981 10.710212-1.205197 16.558555-1.860908 1.450947-.162679 3.736849-4.352843 6.161865-8.861542l.331481-.616449.166264-.309052.435351-.807267.436415-.804003c2.401611-4.404518 4.81193-8.449929 6.577705-8.654296 26.275748-3.041098 84.610534-10.100957 175.004359-21.179579l17.704996 16.309459c10.550627-1.296037 19.735644-2.422209 26.971922-3.303899l-.001784-312.753538c0-.572138-.019641-1.144108-.058887-1.714898-.947113-13.774597-12.881415-24.173327-26.656012-23.226215zm-93.982271 83.407303v172.944217c0 6.604723-5.11279 12.530634-11.419735 13.235893-6.306946.705259-11.419736-4.077201-11.419736-10.681924v-172.944217c0-6.604723 5.11279-12.530634 11.419736-13.235893 6.306945-.705259 11.419735 4.077201 11.419735 10.681924zm-184.70289-553.2849739-1.283721.0068593c-.949481.011227-1.898786.0358689-2.847627.0736796-.336472.013374-.672705.0284181-1.008866.0451055l-.578735.0304327c-.660262.0365061-1.320221.0793306-1.979778.1283903l-10.227854.7749821-4.725.358-139.845637 10.6018004c-9.386396.7115624-16.639363 8.5351716-16.639363 17.9485004l.000922 358.5273966c86.321587 18.22482 139.951566 28.02354 160.048979 29.301337 20.61678 1.310818 139.096554-4.717254 352.943659-18.018384l.00644-363.4383701c0-12.88162-10.169332-23.4659061-23.040656-23.9808186l-306.971709-12.2802867c-1.283292-.0513376-2.567214-.0773432-3.851054-.0786245zm125.65918 76.9490209.332324.001508 115.2 1.475661c9.890541.126693 17.871915 8.210305 17.871915 18.101656v32c0 9.991401-8.137515 18.024678-18.128085 17.896703l-115.2-1.475661c-9.890541-.126693-17.871915-8.210306-17.871915-18.101656v-32c0-9.76937 7.779866-17.666676 17.464861-17.893212zm103.793239 21.327429v27.999l9.61.123588v-27.999zm-101.502205-.041283v24.622l81.503 1.772v-24.623z"/></svg>