<svg height="960" viewBox="0 0 960 960" width="960" xmlns="http://www.w3.org/2000/svg"><path d="m213.552544 25.0484621 522.092592 14.347821c69.520614 1.9105218 127.354864 54.639182 127.354864 120.6286149v27.022102l.059308.10653c7.615521 13.864926 11.802092 29.315132 11.940692 45.319051v443.562482c0 16.273828-4.182467 32.181444-11.839033 46.690462l-.159967.299475-.001 11.207972c0 63.643433-54.232282 119.497337-121.113492 129.419997l-2.030533.286588-522.092592 69.922373c-72.963787 9.771832-133.763383-44.148642-133.763383-118.091705v-662.875655c0-72.2031364 57.997886-129.8125281 129.552544-127.8461079zm-89.552544 127.8461079v662.875655c0 49.866913 39.602072 84.98824 88.453704 78.44568l522.092592-69.922373c46.054838-6.167993 83.888888-42.357888 88.069994-82.675527-14.583023 12.385497-33.019623 20.997935-53.036908 23.683716l-401.839506 53.916046c-4.568141.612922-9.1158.865352-13.612906.758346l-.121502.002014c-5.625675.144916-14.931813-.494158-27.507767-1.712928l-.72916-.070955-1.564513-.154324c-.707895-.070471-1.422648-.142539-2.141892-.215918l-1.081936-.111013-1.069884-.110989c-1.071721-.111767-2.148108-.225769-3.221536-.341079l-1.072158-.115712c-9.635465-1.044722-18.825333-2.170492-22.010896-2.702938-37.956596-6.344199-64.605726-38.881545-64.605726-79.250294v-504.908501c0-43.344482 30.590925-79.656057 72.139401-85.986898 2.537692-.386674 11.814945-1.406404 21.69911-2.384121l.990212-.097607c.330594-.032472.661635-.064872.992896-.097176l.994216-.096596c.497211-.048129.994407-.095983 1.490819-.143479l.991555-.09449.988106-.093384c1.971854-.185564 3.914834-.363597 5.77988-.528698l1.615528-.141654c13.360321-1.160103 23.271092-1.755493 29.148427-1.592377 2.494023.069217 4.966365.311454 7.410218.72441l393.752958 10.849301c21.204879.584197 40.775126 7.987942 56.008728 19.933294l-.002054-10.507777c0-43.196514-39.602072-79.302527-88.453704-80.6450369l-522.092592-14.347821c-48.851632-1.3425098-88.453704 37.9942909-88.453704 87.8612039zm172.50423 74.423438v511.492529c0 38.478639 30.481768 65.579192 68.082935 60.530778l401.855368-53.953967c37.601166-5.048413 68.082934-36.161547 68.082934-69.49313v-443.073236c0-15.451938-6.550798-29.728064-17.32485-40.700999-12.450689-12.415473-30.367331-20.482619-50.280864-21.030875l-393.675803-10.876391c-.701012-.193474-1.406791-.364086-2.117337-.511539l-6.539448-.179218c-37.601167-1.035916-68.082935 29.317408-68.082935 67.796048zm5.898029-62.957055-.121093.021054c-30.406627 5.56431-53.281166 32.661641-53.281166 65.901469v504.908501c0 31.249286 20.21692 54.896418 47.902858 59.523943.180542.030177.396463.064213.645676.101818-13.110452-14.313483-21.044304-33.809055-21.044304-56.007201v-511.492529c0-24.788601 9.893697-47.04958 25.898029-62.957055zm455.474317 140.415065v313.7062c0 5.228078-4.027115 9.573789-9.240076 9.971084l-362.952449 27.661616c-5.805462.44245-10.759924-4.148786-10.759924-9.971084v-335.505827c0-5.459885 4.37934-9.910526 9.838513-9.998696l362.952449-5.863322c5.585292-.088875 10.161487 4.414008 10.161487 10.000029zm-20.000449 10.162-342.952 5.539v314.875l342.952-26.137z"/></svg>