<?xml version="1.0" encoding="UTF-8"?>
<svg width="600px" height="600px" viewBox="0 0 600 600" version="1.1" xmlns="http://www.w3.org/2000/svg">
    <title>drivers/doorbell/assets/icon</title>
    <g id="/drivers/doorbell/assets/icon" stroke="none" stroke-width="1" fill="none" fill-rule="evenodd">
        <g id="doorbell2" transform="translate(189, 19)">
            <g id="Group" stroke-linejoin="round" stroke="#000000">
                <path d="M128.511392,12.540553 C171.23332,14.672559 206.074879,51.5964402 206.332526,95.012118 L208.524806,463.693673 C208.777986,507.109351 172.956995,548.009908 128.511392,555.047145 C84.0657895,562.084382 48.2447986,530.371726 48.4979779,484.214542 L50.6902581,92.2556855 C50.9479047,46.0985017 85.7894642,10.408547 128.511392,12.540553 L128.511392,12.540553 Z" id="Path" stroke-width="18.7333333" stroke-linecap="round"></path>
                <path d="M88.257382,47.1222129 C98.6780339,36.5753757 113.01454,30.3951704 128.834542,31.1750816 C145.300844,31.9867117 160.199432,39.5009756 171.039305,50.8513576 C181.917233,62.2409218 188.765767,77.5505659 188.865582,94.1358063 L191.056296,458.401596 C191.155705,475.348183 183.902297,491.684648 172.503462,504.543854 C160.856337,517.68231 144.759973,527.317385 126.857588,530.117975 C110.687611,532.6474 95.9374972,528.517104 85.3340597,519.242132 C74.5940008,509.848369 68.3693083,495.465414 68.4612342,478.671202 L70.6531928,91.4048733 C70.7523836,73.8214212 77.3688488,58.1423455 88.257382,47.1222129 Z" id="Path" stroke-width="18.7333333" stroke-linecap="round"></path>
                <path d="M122.194995,0.0115970189 C124.588052,-0.0170121633 126.847606,1.32574217e-14 129.127748,0.116082728 C153.751404,1.33010715 176.13734,12.3993729 192.382178,29.4081536 C208.602062,46.3914349 218.660886,69.2595005 218.80936,93.9492247 L221,458.216881 C221.1444,482.665914 211.161061,506.485546 194.628632,525.136245 C178.261521,543.600363 155.548068,556.911718 130.445301,560.838639 C126.577937,561.446897 122.675563,561.808357 118.761994,561.920812 C117.820664,562.013642 116.873031,562.024879 115.929752,561.954397 C105.265802,561.909617 95.2182077,559.933096 86.0726883,556.334559 C63.7622372,550.549284 53.4757113,543.211651 39.2739548,532.885602 L38.8310272,532.563438 C11.0700711,512.380904 0,491.965143 0,415.021369 L0,125.813634 C0,103.471107 6.8697449,57.64977 26.7546994,38.7422103 C45.5036381,20.9155801 72.4392516,9.30336184 76.9752046,7.74291753 C92.7883443,2.30219741 110.120538,0.0209261 122.194995,0.0109750801 L122.194995,0.0115970189 Z" id="Path" stroke-width="37.4666667"></path>
            </g>
            <path d="M81.4799656,92.9702931 C84.5055979,64.2752834 108.014449,43.2201692 133.988722,45.9417732 C159.96362,48.6633771 178.567827,74.1317686 175.542819,102.826778 C172.517186,131.521788 149.008335,152.576902 123.034062,149.855298 C97.0591646,147.133694 78.4549572,121.665303 81.4799656,92.9702931 L81.4799656,92.9702931 Z M117.313433,96.7249373 C116.59352,103.557556 121.022796,109.620837 127.207563,110.268897 C133.391706,110.916958 138.988814,105.904131 139.709351,99.0721341 C140.429264,92.2395151 135.999988,86.1762343 129.815221,85.5281741 C123.631078,84.880114 118.033971,89.8929402 117.313433,96.7249373 Z" id="Shape" fill="#000000" fill-rule="nonzero"></path>
            <ellipse id="Oval" stroke="#000000" stroke-width="18.7333333" stroke-linecap="round" stroke-linejoin="round" transform="translate(128.5002, 450.9209) rotate(6) translate(-128.5002, -450.9209)" cx="128.500163" cy="450.920917" rx="45.2270198" ry="54.1104815"></ellipse>
        </g>
    </g>
</svg>
