<?xml version="1.0" encoding="UTF-8"?>
<svg width="600px" height="600px" version="1.1" viewBox="0 0 600 600" xmlns="http://www.w3.org/2000/svg">
 <title>drivers/sensor_contact/assets/icon</title>
 <g id="/drivers/sensor_contact/assets/icon" fill="none" fill-rule="evenodd">
  <g id="icon" transform="translate(141 13)" stroke="#000">
   <path id="Rectangle" d="m145.06 1.5565c7.7853-0.73877 13.651-1.176 17.598-1.3117 4.5326-0.15581 11.385-0.15581 20.558 0 31.609-1.0866 57.234 23.758 57.234 55.492v464.09c0 31.734-25.624 55.882-57.234 53.937l-38.156-2.3483c-37.283-2.2946-67.507-33.679-67.507-70.098v-431.5c0-36.42 30.224-66.983 67.507-68.264z" stroke-width="25"/>
   <path d="m168.89 5.1155c6.2546-0.72967 10.967-1.1615 14.138-1.2955 3.6414-0.15389 9.1469-0.15389 16.516 0 25.395-1.0732 45.981 23.465 45.981 54.808v458.38c0 31.343-20.587 55.194-45.981 53.272l-30.654-2.3194c-29.953-2.2663-54.234-33.264-54.234-69.235v-426.18c0-35.971 24.282-66.157 54.234-67.423z" stroke-width="12.5"/>
  </g>
 </g>
</svg>
