<svg height="960" viewBox="0 0 960 960" width="960" xmlns="http://www.w3.org/2000/svg"><path d="m493.026893 14.0012599c25.823721.0200546 43.528577.2630658 53.377523.7428569 14.781441.7200773 42.285718 3.4573371 82.925676 8.2303095 40.294836 4.7314821 70.669908 38.877894 70.669908 79.4500357v753.3473c0 38.289417-27.131224 71.210108-64.715097 78.525699l-1.401678.272271c-34.917299 6.765427-63.755353 11.198177-86.627404 13.293475-18.493446 1.694175-43.988807 2.857641-76.608376 3.510385-.717373.021451-1.434121.021451-2.150886.021451h-1.268543c-2.53516-.036929-5.058547-.154747-7.56615-.360371l-.876866-.077672-.039697.001424c-11.818874.245843-35.561425-4.634188-77.028047-15.067513l-.950256-.239911-52.909304-11.02982c-38.947607-8.119099-66.857696-42.447371-66.857696-82.232241v-733.045644c0-41.1376177 30.59886-75.8378141 71.367763-81.0120108l.149232-.0183701.934108-.1114235.149232-.0172327c9.569242-1.0686162 25.233101-2.9070089 46.961641-5.4981903.610787-.072843.610787-.072843 1.221506-.145698 5.96908-.7121234 12.147189-1.4512094 19.715762-2.3581027 2.237118-.2680594 14.316447-1.7161418 17.36282-2.0810051 12.630117-1.512706 17.826054-2.1283542 19.114005-2.2564217l.821719-.0817164.536569-.0533688c2.176591-.2165056 4.126926-.4106907 5.863241-.5837402l.850378-.084769c4.163284-.415093 7.001676-.6993226 8.706329-.8712023l.056695-.0050434.062977-.0071779.78535-.0725991c1.817064-.1401124 3.526038-.0845663 5.123894.1637681l.282779.0470089 1.094452-.0699652c1.975369-.115287 3.958405-.1767671 5.947489-.1840215l1.176882-.0042074c6.258297-.0218804 12.171117-.0371492 17.738668-.0371492zm-.905431 39.9993941h-5.087926c-5.515935 0-11.389184.015162-17.607289.0369019l-1.173865.0041966c-3.519607.0128364-6.998686.2934813-10.418144.8350189l-.346103.0517672c-2.190637.3084112-4.35448.2481123-6.425827-.135761l.396723.0666814c-26.843535 2.3248894-46.674896 23.8370009-47.908141 50.95102-.033755.742153-.05064 1.484981-.05064 2.227906v753.501443c-.000894 21.021672 13.231075 38.961569 31.820796 45.861379 1.404382.291622 2.754379.567217 4.051577.825829 5.004426.997696 9.165765 1.73069 12.437144 2.197897 14.542441.137721 23.200377.213454 25.930853.226286 1.058901.004977 2.078587.174358 3.034988.483844 26.525784-.66022 47.497151-1.700323 62.831113-3.105059 21.368386-1.957548 48.95588-6.198073 82.658513-12.728149l1.384813-.268996c18.784341-3.656318 32.349953-20.116664 32.349953-39.261281v-753.346107c0-20.2850623-15.187536-37.3582682-35.335187-39.7240366-39.753028-4.6688067-66.623548-7.3429941-80.206687-8.0046963-9.126479-.444596-26.659039-.6813398-52.336664-.6960841zm-91.655178 6.5868779-.371835.0453808c-6.827964.8170446-12.130633 1.4522543-13.473419 1.6134994l-.12403.0145879-.086797.011038-.027203.002962-.057959.0070116-.010041.0009884-.12363.0151504c-.311295.0371348-.417034.0497453-.892856.1064924l-.945194.1126978c-21.337289 2.5436731-36.752707 4.3521183-46.313701 5.4198134l-.646619.0765027.010976-.000682-.018976.001682-.022.003-.581211.0789896c-20.273326 2.8801492-35.472138 20.1165957-35.777116 40.6180457l-.004673.628603v733.045644c0 20.839694 14.61957 38.821169 35.020698 43.074031l53.295074 11.110002c.270918.056476.540634.118569.808975.186239 1.204532.303758 2.394351.602737 3.569442.896936-6.466607-10.505279-10.194502-22.878736-10.193939-36.116744v-753.501018c0-1.045953.023772-2.091771.071296-3.136639.76812-16.887833 6.919686-32.2745198 16.894738-44.3142141zm147.113483 745.4124681c3.113854 0 5.638132 3.134007 5.638132 7s-2.524278 7-5.638132 7c-3.113855 0-5.638133-3.134007-5.638133-7s2.524278-7 5.638133-7zm-2.078783-415c15.570053.060352 28.264113 12.38453 28.264113 27.429538l-.000017 81.43314.251298.175243c11.119863 7.790176 17.82995 20.179494 17.981016 33.906094l.002606.473855c0 24.618512-20.815694 46.299996-46.499016 48.421185-25.684741 2.121437-46.500984-16.976948-46.500984-42.651594 0-14.512627 6.735945-28.320524 17.983622-37.537112l.25098-.203079.000301-83.538001c0-15.280264 12.442165-27.723999 27.799815-27.909269zm-.499995 14c-8.061402.017565-14.675871 6.512259-14.675871 14.414963v87.808652c0 1.487824-.801599 2.904774-2.108937 3.728582-9.973117 6.313496-16.216181 17.217771-16.216181 28.871052 0 18.007658 14.775499 31.472861 33.000989 30.077374 18.223783-1.395738 32.999011-16.696223 32.999011-34.175688 0-11.31164-6.243064-21.253733-16.216181-26.438616-1.307338-.68353-2.108937-2.003355-2.108937-3.471622v-86.654437c0-7.798596-6.614231-14.178746-14.673893-14.16026zm6.855942 56.934338v52.185545c10.612159 2.225834 18.421811 11.169665 18.421811 22.293485 0 13.296916-11.16086 24.895714-24.929527 25.903388-13.766699 1.00687-24.929526-9.20413-24.929526-22.803749 0-11.377053 7.811619-21.358964 18.423778-24.722218v-52.493041zm-234.185705 1.687389 50.903139.37855c5.522694.04107 9.966429 4.551393 9.925641 10.074088-.041353 5.522694-4.551676 9.966429-10.074371 9.925358l-50.903138-.378549c-5.522695-.04107-9.966429-4.551393-9.925642-10.074088.041353-5.522694 4.551676-9.966429 10.074371-9.925359zm305.866989-78.770036c0 1.757396 1.297942 4.417467 4.669941 8.424543.378053.449249 1.177493 1.348155 2.817653 3.174672l.267926.298349c1.956197 2.178293 2.515934 2.807652 2.941927 3.332817.9569 1.178894 2.931868 3.829176 3.616987 4.863226 2.792243 4.238019 4.147351 9.351663 4.147351 14.846582 0 15.535993-13.284866 27.982228-29.378008 28.20516-16.183298.22127-29.621992-11.999753-29.621992-27.639046 0-5.623849 1.442782-10.779197 4.422423-15.179949.448366-.659411.850687-1.245498 1.26334-1.839173.76008-1.093523 1.332764-1.891401 1.780905-2.470264.494736-.639291 1.191712-1.445535 3.386265-3.953587l.277146-.316732c1.55646-1.778832 2.263579-2.594068 2.595408-2.997584 3.407993-4.14438 4.734194-6.899782 4.734194-8.692358 0-6.502229 5.191031-10.827719 10.914231-10.907238 5.807906-.080697 11.164303 4.233762 11.164303 10.850582zm-13.078534.056656c0 4.445035-2.358367 9.028388-6.782687 14.408699-.498761.60651-1.619862 1.88907-2.773692 3.207747l-.277245.316845c-1.34014 1.531583-2.660847 3.042877-3.041801 3.53514-.342885.442904-.860133 1.166217-1.508347 2.098799-.424143.610206-.818406 1.185654-1.210972 1.762999-1.942549 2.86905-2.864937 6.282498-2.864937 10.119418 0 10.448324 9.176157 18.794701 20.498948 18.639887 11.321708-.156835 20.501052-8.757601 20.501052-19.206001 0-3.746816-.865905-7.167717-2.662786-9.894993-.4907-.740574-2.291496-3.159945-3.089335-4.142876-.32978-.406554-1.449211-1.653859-2.650309-2.991323l-.267967-.298395c-1.209313-1.346717-2.44785-2.727992-3.00763-3.393192-4.425005-5.258404-6.783758-9.776144-6.783758-14.21941 0-2.506384-4.078534-2.449703-4.078534.056656zm11.353461 32.094384c3.246719-.04675 5.589842.506763 7.029949 1.660565.103462.708718.156909 1.433064.156909 2.169873 0 8.792609-7.611159 16.030462-17 16.164968-9.388841.133148-17-6.887554-17-15.679949 0-.537908.028487-1.069987.083761-1.595139.198898.18555.40524.374345.619028.566383 2.523961 1.861646 5.441817 2.769077 8.753569 2.722222 3.311752-.046993 6.15558-1.179412 8.531484-3.397211 2.02763-1.685807 4.969396-2.556348 8.8253-2.611712zm-166.878142-402.682731.009855.1021204c.446846.0928941.872873.1815496 1.279443.266512l.150702.0313676 1.060119-.1141813.147881-.0138187-.091886-.0110185c-.812868-.0954036-1.35007-.1577402-1.729822-.1975661l-.209903-.0212787c-.257201-.024995-.428766-.0369345-.575224-.0412231z"/></svg>
