<?xml version="1.0" encoding="UTF-8"?>
<svg width="600px" height="600px" viewBox="0 0 600 600" version="1.1" xmlns="http://www.w3.org/2000/svg">
    <title>drivers/sensor_contact/assets/icon</title>
    <g id="/drivers/sensor_contact/assets/icon" stroke="none" stroke-width="1" fill="none" fill-rule="evenodd">
        <g id="icon" transform="translate(141, 13)" stroke="#000000">
            <path d="M67.506583,1.42851588 C75.291865,0.689744375 81.157756,0.252525775 85.104255,0.116859975 C89.636843,-0.038953325 96.489584,-0.038953325 105.662477,0.116859975 C137.271856,-0.969751325 162.896319,23.8747998 162.896319,55.6087181 L162.896319,519.703403 C162.896319,551.437321 137.271856,575.585666 105.662477,573.640241 L67.506583,571.291905 C30.223727,568.9973 -2.84217094e-14,537.613185 -2.84217094e-14,501.19352 L-2.84217094e-14,69.6927736 C-2.84217094e-14,33.2731092 30.223727,2.71015997 67.506583,1.42851588 Z" id="Rectangle" stroke-width="25"></path>
            <path d="M91.343132,4.98754297 C97.597778,4.25787587 102.310398,3.82604537 105.480991,3.69205147 C109.122443,3.53815837 114.627892,3.53815837 121.997337,3.69205147 C147.392112,2.61883127 167.978645,27.1572053 167.978645,58.5000439 L167.978645,516.875359 C167.978645,548.218198 147.392112,572.068945 121.997337,570.147495 L91.343132,567.828099 C61.39032,565.561773 37.108768,534.564426 37.108768,498.593587 L37.108768,72.4105315 C37.108768,36.4396926 61.39032,6.25339247 91.343132,4.98754297 Z" id="Rectangle" stroke-width="12.5"></path>
            <path d="M285.922564,169.350101 C288.503365,169.040892 290.447893,168.857897 291.756147,168.801115 C293.258688,168.7359 295.530354,168.7359 298.571144,168.801115 C309.049571,168.34632 317.544014,178.744868 317.544014,192.026923 L317.544014,386.271171 C317.544014,399.553226 309.049571,409.660381 298.571144,408.846134 L285.922564,407.863251 C273.563395,406.902858 263.544308,393.767211 263.544308,378.523963 L263.544308,197.921726 C263.544308,182.678478 273.563395,169.886526 285.922564,169.350101 Z" id="Rectangle" stroke-width="12.5"></path>
            <path d="M239.105406,198.725859 L239.105406,379.679557 C241.200344,397.182057 252.436574,407.954528 272.814097,411.99697 C303.380382,418.060632 317.390985,394.76086 317.390985,374.037829 C317.390985,353.314798 317.390985,205.571128 317.390985,192.378158 C317.390985,179.185189 299.93586,157.464116 275.430924,162.00649 C261.950661,164.505268 251.34925,171.11768 243.626689,181.843727 C243.060806,182.629695 241.223084,185.300934 239.946229,190.621793 C239.595889,192.081718 239.315614,194.783073 239.105406,198.725859 Z" id="Path-105" stroke-width="25"></path>
        </g>
    </g>
</svg>
