<svg height="960" viewBox="0 0 960 960" width="960" xmlns="http://www.w3.org/2000/svg"><path d="m421.745738 9.00032232c8.866712.01398918 22.217415.48374982 41.112565 1.48788718 50.170384 2.6661845 81.364968 4.3634201 92.816764 5.0822554l.784399.0496813c1.751872.1120399 2.954825.1968958 3.60531.2545239 6.173792.5469517 11.862479 1.7199768 17.501957 3.9682664 8.107624 3.2322646 15.262165 8.4454735 20.701362 15.7108292 4.889939 6.5316905 7.611959 13.5619743 8.90773 20.9216107.735066 4.1749835.947168 7.8436172.947118 12.3543762l-.000551.3263836c-.012186 4.2778466-.207897 20.9829105-.693582 60.4441978l-.044093 3.581382-.044092 3.579935c-.319608 25.948994-.509624 41.615969-.606483 50.293935l-.003142.223414c1.997793-.001965 3.907124-.003825 5.730515-.004792l4.975916-.000317c10.383631.004662 17.41306.043671 21.374053.123415l.190516.003694 36.027481.000246c21.870476 0 39.641409 17.552229 39.994641 39.338527l.005359.661473v175c0 15.466295-8.777756 28.882076-21.622894 35.537968l-.027587.013786.000045.018762c-.001625 2.104293-.003215 4.199417-.004769 6.28529l-.002305 3.121859-.00864 12.276513c-.017359 25.71721-.028701 49.545513-.033362 71.247222l-.000956 4.970228-.000137.820985-.000767 5.687419c-.000057.536683-.00011 1.071941-.000159 1.605768l-.00008 15.762497c.000055.628284.000117 1.254171.000187 1.877652l.000837 5.546045c.011142 58.458461.092938 94.439184.231594 98.511267.593271 17.423351-3.653983 32.628145-15.70471 44.449446-6.20111 6.083051-13.435486 10.03413-21.178901 12.282636-4.77253 1.385831-8.94531 1.971694-13.721077 2.276482l-.145511.00902-.46139.027758-.133771.007823c-.221103.012558-.443549.024559-.74796.040174l-.527196.026109c-.278779.013257-.278779.013257-.534627.025115-3.18048.146921-14.086899.721124-32.584631 1.715687l-.565714.029243.000995 150.000552.000007.034754.000056 2.236268c-.005374 5.104784-.086843 8.333792-.41037 12.037421-.561036 6.422543-1.767715 12.324586-4.236076 18.368939-7.435155 18.206701-23.45348 29.31589-42.947562 31.46356-5.998531.66086-32.707265 2.749587-75.875393 6.000691-14.893978 1.121705-30.676542 2.300196-46.425697 3.46924-5.656669.419889-10.958607.812531-15.790441 1.169637-1.775113.131193-3.389408.250392-4.828461.35656-.655359.04835-1.15145.084933-1.621248.119561l-.46596.034338-.235642.017362-.15605.011493c-1.526744.117778-3.058684.137149-4.588259.073992-.232405-.009596-.80697-.029271-1.633835-.05038-1.343142-.03429-2.769507-.055827-4.126224-.058116l-.573171-.000049c-1.240382.002107-2.400281.019737-3.432996.053287l-.453081.016069c-.158628.00612-.312558.012605-.492587.02091l-.189868.008966c-6.782842.316106-11.751651-.804662-16.86356-2.682245-2.255838-.82856-4.321989-1.767081-6.440322-2.853809-2.812077-1.442626-5.845529-3.224518-9.360651-5.448054-5.919974-3.744754-13.682828-9.059475-23.480042-16.052574-11.334947-8.090711-25.560135-18.550383-42.700409-31.395868l-1.723745-1.292502c-10.978606-8.236219-23.126818-17.42964-36.450947-27.584542-9.927098-7.565875-15.753461-19.332027-15.753461-31.813603v-246.746374c0-10.797155 4.256595-20.526877 11.129641-27.68671l.211359-.216774-.804-200.241-.094021-.10026c-6.348946-6.958668-10.273492-16.167475-10.43762-26.290401l-.005359-.661473v-223.599791c0-15.5075754 8.96338-29.617784 23.000897-36.2081556 40.673116-19.0953247 71.520601-33.4122106 92.597665-42.9750799 10.712668-4.8604419 18.964415-8.5217983 24.852218-11.023095 1.906122-.8097713 3.599452-1.5132321 5.110585-2.1205483l.046635-.0181962.031986-.0184546c4.131724-2.3830491 7.865643-3.6449194 11.80206-4.5094178l.514643-.1105666c2.167647-.45560546 4.231735-.73603925 6.414821-.9292887 2.855655-.25278614 6.165771-.36769662 10.264847-.37994998zm-1.406025 676.34201568.000459 218.412139c-.00008 2.676334-.420705 5.25443-1.199395 7.671838 28.49405-2.107026 125.709397-9.32101 136.140962-10.470259 11.505364-1.26755 11.961075-9.552818 11.974341-22.152597l-.000042-2.046818-.000048-.208616-.00099-171.646703-85.282326.032424c-1.546492.000575-3.011122-.349932-4.31852-.976207-2.025458-.167547-4.165469-.628395-6.554066-1.348105-3.761542-1.133393-14.499506-4.746835-25.766121-8.603615l-1.472027-.504254c-.537383-.184212-1.075327-.368754-1.61314-.553386l-1.612349-.553925c-7.515977-2.583995-14.870206-5.138452-20.160013-7.003339zm-20.004266-630.6954975-.342489.1532578c-17.632906 7.5951801-55.630559 25.0928389-113.992958 52.4929767v223.599791h10.428097l1.028792 256.202482-11.456889-1.005864v246.746374c13.8525 10.557597 26.412643 20.059244 37.680427 28.504952 12.75846 8.714069 35.773024 24.274565 68.866537 46.559972.825392.555936 1.797903.852924 2.793059.852954 2.761424.000082 5.000067-2.238428 5.000149-4.999555v-224.196518c0-6.258092 1.146872-10.707569 5.471285-14.068763 2.668319-2.073979 5.789679-2.839352 8.983688-2.626538 1.993864.13285 3.918696.625654 6.071131 1.425316 3.514138 1.305554 14.304992 5.075523 25.586194 8.956815l1.614203.554974 1.451554.498379 1.194525.409644c9.746712 3.340668 19.223998 6.544224 24.073883 8.099592l.190078.060256.001149-.153939-.000149-456.075061-.060875.018901c-5.29428 1.574471-13.919992 4.191956-22.729196 6.893307l-1.356285.416125c-.452295.138842-.904647.277776-1.356633.416671l-1.354434.416443c-12.397783 3.813973-24.197314 7.501267-26.569406 8.37171l-.136287.050858c-4.941703 1.881197-8.923371 2.484117-13.135853.844327-5.880338-2.289036-8.226481-7.439652-8.226481-13.361957l.000502-.613405.000786-.640141.000167-.126727.000987-.7201.000228-.161383.000747-.51905.000269-.184684.00057-.386928.000301-.202264.000632-.422178.000332-.219933.000695-.457605.000363-.237692.000758-.49321c.000389-.252558.000794-.514054.001215-.784533l.000863-.552949c.007367-4.707939.019136-11.91941.035585-21.840583l.000451-.272163.000997-.600356c.007774-4.680661.025344-15.209088.043692-26.200198l.00245-1.46775c.021261-12.736071.043026-25.770376.051378-30.793603l.000479-.287989.00032-.192367.000798-.480222.000832-.500376.000256-.154045.000535-.321783.000297-.178677.000698-.420267c.000262-.157717.000557-.335491.000898-.540615.07473-44.9899618.120041-73.4534402.134103-85.0841065zm67.072848 752.2677765c15.904106 2.259539 26.299878 18.669437 24.479982 36.101822-1.845395 17.677996-15.753478 31.142116-31.991802 28.856484-15.913968-2.240981-26.3124-18.65907-24.492876-36.107843 1.845208-17.693727 15.759279-31.15952 32.004696-28.850463zm64.054921-3.671803c15.904105 2.25954 26.299877 18.669438 24.479981 36.101823-1.845395 17.677995-15.753477 31.142116-31.991802 28.856484-15.913968-2.240981-26.312399-18.65907-24.492876-36.107843 1.845209-17.693727 15.75928-31.15952 32.004697-28.850464zm-76.167485 34.596657c-.782561 7.504564 3.093083 13.62382 7.388986 14.228763 3.970228.558831 8.554956-3.879547 9.311657-11.128378.782092-7.491489-3.09551-13.612348-7.401896-14.224168-3.963942-.563418-8.54198 3.867126-9.298747 11.123783zm64.05492-3.671802c-.782561 7.504564 3.093083 13.62382 7.388986 14.228763 3.970229.558831 8.554956-3.879547 9.311658-11.128378.782092-7.491489-3.09551-13.612348-7.401897-14.224168-3.963941-.563418-8.541979 3.867126-9.298747 11.123783zm-21.11259-609.665477-3.260211.000452c.000523.107028.000783.214511.000783.32245v458.003844c-.002865.729377-.012154 1.428911-.02946 2.101083l143.537873-.054982c.024558-.001141.048718-.002261.072478-.003359.154125-.007119.308326-.014316.462532-.021718l.462566-.022955c.154148-.007944.308233-.016223.462186-.024968l.46139-.027757c.141328-.00902.282486-.018542.423419-.028669l.422069-.032293c.134812-.010977.269367-.022605.403617-.034971l.40179-.039404c6.41248-.668775 12.013123-3.245058 11.524563-17.593213-.171483-5.03615-.240899-43.482018-.253811-95.358843l-.000755-3.365327-.000165-.847016-.000886-5.990679-.000169-1.730855.000127-16.25631c.002537-26.435905.015921-55.094643.035344-83.868279l.008639-12.27766c.006109-8.349999.01267-16.684416.019564-24.951683l-135.362063.002166c-11.045695 0-20-8.954305-20-20v-175c0-.984589.071146-1.95256.20858-2.899054zm77.761939 263.497808c32.694764 0 58 32.949526 58 72.5s-25.305236 72.5-58 72.5-58-32.949526-58-72.5 25.305236-72.5 58-72.5zm0 20c-20.324572 0-38 23.014881-38 52.5s17.675428 52.5 38 52.5 38-23.014881 38-52.5-17.675428-52.5-38-52.5zm99.029481-280.598754h-157v175l135.379471-.0006 21.620529.0006zm-254.515265-178.399581-.17911.0009084c.00337.1235123.005066.247339.005066.3714722l-.000355.9427506-.000156.2339803-.000907 1.087267-.000297.3096397-.000679.6646487-.000682.6274379c-.000363.3251598-.000757.6674793-.001184 1.0269505l-.000895.7418091c-.014532 11.8524373-.059663 40.182637-.133701 84.7556386l-.000326.19628-.000572.344341-.000698.420273-.000297.178678-.000535.321787-.000256.154047-.000831.500382-.000699.420148c-.000087.052555-.000178.107339-.000274.16462l-.000624.37582c-.007243 4.355899-.024571 14.735538-.04291 25.721011l-.002005 1.200558-.002009 1.203801-.002013 1.205482-.002505 1.500688-.001945 1.165397-.001941 1.162263-.001932 1.157712c-.017673 10.587155-.034082 20.421715-.040993 24.585556l-.000716.431505c-.014585 8.797024-.025506 15.473707-.032931 20.156797l-.000591.279024.441332-.141145c5.541159-1.772968 13.888851-4.371074 22.392487-6.988094l1.50172-.461859 1.589989-.488362.545125-.167283 1.088271-.333729c11.59082-3.552814 22.554214-6.861386 26.098686-7.85996 1.451552-.408942 2.4102-.6626 3.317569-.837732 1.22134-.532264 2.570051-.82747 3.98776-.827667l85.726326-.011836c-.06453-3.720617-.097976-6.544518-.100336-8.471701l.000269-.448695c.012751-4.142548.325398-29.636486.659082-56.732132l.0211-1.713249.010566-.857877.044091-3.579913.044091-3.581205c.00345-.280317.006899-.560554.010346-.840689l.020662-1.679417.019991-1.62572c.322712-26.2508852.620568-50.8465293.639227-55.773786l.000428-.7120245c-.027942-7.97306-1.26296-11.8429618-11.587594-12.7576471-4.34746-.3851524-47.861232-2.7392155-95.799307-5.2867693-21.00666-1.1163485-33.1974-1.4591037-40.221378-1.4301811zm113.271798 28.179027c16.003702 2.2736899 26.469815 18.7946215 24.637096 36.349835-1.858219 17.800837-15.857436 31.353183-32.195353 29.053533-16.013562-2.255006-26.482337-18.784162-24.649991-36.355907 1.858032-17.8166859 15.863234-31.3706738 32.208248-29.047461zm-70.476689-.8793784c16.003702 2.2736899 26.469815 18.7946215 24.637096 36.3498354-1.858219 17.800837-15.857436 31.353182-32.195354 29.053532-16.013561-2.255005-26.482337-18.784161-24.64999-36.355906 1.858031-17.8166862 15.863234-31.3706741 32.208248-29.0474614zm58.160573 32.0012314c-.795384 7.627535 3.150604 13.857859 7.546101 14.476826 4.069821.572849 8.745684-3.953754 9.515208-11.325428.794915-7.614317-3.153028-13.8462094-7.559011-14.4721796-4.063538-.5775745-8.732707 3.9411656-9.502298 11.3207816zm-70.476689-.879379c-.795385 7.627536 3.150604 13.857859 7.5461 14.476826 4.069822.57285 8.745684-3.953754 9.515209-11.325427.794915-7.614317-3.153028-13.8462098-7.559011-14.47218-4.063538-.5775745-8.732708 3.941165-9.502298 11.320781z"/></svg>